<svg class="animated" id="freepik_stories-setup-wizard" xmlns="http://www.w3.org/2000/svg" viewBox="0 0 500 500" version="1.1" xmlns:xlink="http://www.w3.org/1999/xlink" xmlns:svgjs="http://svgjs.com/svgjs"><style>svg#freepik_stories-setup-wizard:not(.animated) .animable {opacity: 0;}svg#freepik_stories-setup-wizard.animated #freepik--Character--inject-23 {animation: 1.5s Infinite  linear wind;animation-delay: 0s;}            @keyframes wind {                0% {                    transform: rotate( 0deg );                }                25% {                    transform: rotate( 1deg );                }                75% {                    transform: rotate( -1deg );                }            }        .animator-hidden { display: none; }</style><g id="freepik--Floor--inject-23" class="animable" style="transform-origin: 250px 455.485px;"><path d="M464.31,455.48c0,.15-96,.27-214.3.27s-214.32-.12-214.32-.27,95.94-.26,214.32-.26S464.31,455.34,464.31,455.48Z" style="fill: rgb(38, 50, 56); transform-origin: 250px 455.485px;" id="el4r6hjoytdtj" class="animable"></path></g><g id="freepik--Screen--inject-23" class="animable animator-hidden" style="transform-origin: 238.28px 190.045px;" wfd-invisible="true"><rect x="44.07" y="61.89" width="388.33" height="256.43" style="fill: rgb(250, 250, 250); transform-origin: 238.235px 190.105px;" id="el4j6krc7t73" class="animable"></rect><path d="M432.4,318.32c0-1.69-.08-100-.21-256.43l.21.21-388.3,0h0l.26-.26c0,91.25,0,178.06,0,256.43l-.24-.24,388.33.24-388.33.24h-.24v-.24c0-78.37,0-165.18,0-256.43v-.26h.29l388.3,0h.21v.21C432.48,218.28,432.4,316.63,432.4,318.32Z" style="fill: rgb(38, 50, 56); transform-origin: 238.28px 190.045px;" id="eltpegqmnj3iq" class="animable"></path><path d="M77.28,88.22l.51-1.13a4.34,4.34,0,0,0,2.58.86c1.22,0,1.74-.44,1.74-1,0-1.69-4.66-.58-4.66-3.49,0-1.27,1-2.34,3.16-2.34a5,5,0,0,1,2.61.69l-.46,1.13a4.41,4.41,0,0,0-2.16-.61c-1.21,0-1.7.47-1.7,1.06,0,1.67,4.64.58,4.64,3.46,0,1.25-1,2.33-3.17,2.33A5.05,5.05,0,0,1,77.28,88.22Z" style="fill: rgb(38, 50, 56); transform-origin: 80.41px 85.1505px;" id="elal4ugj882fw" class="animable"></path><path d="M90.46,86.5h-4.7a1.81,1.81,0,0,0,1.94,1.44,2.12,2.12,0,0,0,1.62-.65l.75.86a3,3,0,0,1-2.4,1,3,3,0,0,1-3.31-3.07A3,3,0,0,1,87.45,83a2.92,2.92,0,0,1,3,3.09C90.48,86.2,90.47,86.37,90.46,86.5Zm-4.71-.92h3.39a1.62,1.62,0,0,0-1.69-1.46A1.66,1.66,0,0,0,85.75,85.58Z" style="fill: rgb(38, 50, 56); transform-origin: 87.4144px 86.0824px;" id="el78ko808lihj" class="animable"></path><path d="M95.42,88.72a2.21,2.21,0,0,1-1.35.41,1.84,1.84,0,0,1-2.06-2V84.23H91V83.11h1V81.74h1.4v1.37H95v1.12H93.41v2.85c0,.58.29.89.83.89a1.34,1.34,0,0,0,.79-.24Z" style="fill: rgb(38, 50, 56); transform-origin: 93.21px 85.4421px;" id="elef2mrn8gebn" class="animable"></path><path d="M102.36,83.07v6H101v-.76a2.47,2.47,0,0,1-1.93.84,2.37,2.37,0,0,1-2.57-2.65V83.07h1.4v3.22c0,1.09.51,1.6,1.4,1.6a1.57,1.57,0,0,0,1.63-1.8v-3Z" style="fill: rgb(38, 50, 56); transform-origin: 99.4211px 86.115px;" id="el37poe6f7hos" class="animable"></path><path d="M110.55,86.06a2.91,2.91,0,0,1-3,3.07,2.47,2.47,0,0,1-1.92-.81v2.9h-1.4V83.07h1.34v.78a2.46,2.46,0,0,1,2-.85A2.91,2.91,0,0,1,110.55,86.06Zm-1.42,0a1.78,1.78,0,1,0-1.77,1.87A1.73,1.73,0,0,0,109.13,86.06Z" style="fill: rgb(38, 50, 56); transform-origin: 107.392px 87.1081px;" id="elbo23u6r56hf" class="animable"></path><path d="M126.1,81.21l-2.64,7.84h-.88l-2.29-6.69L118,89.05h-.86l-2.64-7.84h.85L117.59,88l2.34-6.74h.77L123,88l2.3-6.77Z" style="fill: rgb(38, 50, 56); transform-origin: 120.3px 85.13px;" id="elpwyuxyqxcn9" class="animable"></path><path d="M127.24,81.3a.58.58,0,0,1,1.16,0,.58.58,0,0,1-1.16,0Zm.17,1.86h.8v5.89h-.8Z" style="fill: rgb(38, 50, 56); transform-origin: 127.82px 84.885px;" id="els3vmbrf1djp" class="animable"></path><path d="M134.58,88.39v.66h-4.79v-.53l3.71-4.69h-3.64v-.67h4.66v.52l-3.71,4.71Z" style="fill: rgb(38, 50, 56); transform-origin: 132.185px 86.105px;" id="elc7xdvx1pfto" class="animable"></path><path d="M140.6,85.4v3.65h-.76v-.92a2.23,2.23,0,0,1-2,1c-1.33,0-2.15-.69-2.15-1.71s.58-1.67,2.27-1.67h1.87v-.36c0-1-.57-1.55-1.66-1.55a3,3,0,0,0-2,.69l-.36-.59a3.68,3.68,0,0,1,2.39-.8A2.09,2.09,0,0,1,140.6,85.4Zm-.8,1.88v-1H138c-1.15,0-1.52.45-1.52,1.06s.55,1.11,1.49,1.11A1.88,1.88,0,0,0,139.8,87.28Z" style="fill: rgb(38, 50, 56); transform-origin: 138.15px 86.1249px;" id="el0zuwj668cpg" class="animable"></path><path d="M145.73,83.11v.77h-.19a1.91,1.91,0,0,0-2,2.18v3h-.8V83.16h.76v1.15A2.23,2.23,0,0,1,145.73,83.11Z" style="fill: rgb(38, 50, 56); transform-origin: 144.235px 86.0782px;" id="el1aibni7ejhw" class="animable"></path><path d="M152.49,80.74v8.31h-.77V87.88a2.54,2.54,0,0,1-2.27,1.22,3,3,0,0,1,0-6,2.56,2.56,0,0,1,2.24,1.17V80.74Zm-.79,5.36a2.19,2.19,0,1,0-2.18,2.3A2.15,2.15,0,0,0,151.7,86.1Z" style="fill: rgb(38, 50, 56); transform-origin: 149.47px 84.921px;" id="elkz7qu9f2fx" class="animable"></path><path d="M81.32,176.82l.32-.64a3.86,3.86,0,0,0,2.6,1c1.47,0,2.11-.62,2.11-1.39,0-2.16-4.84-.84-4.84-3.74,0-1.16.9-2.16,2.89-2.16a4.43,4.43,0,0,1,2.44.7l-.28.66a4,4,0,0,0-2.16-.65c-1.43,0-2.07.64-2.07,1.42,0,2.16,4.84.86,4.84,3.72,0,1.16-.92,2.15-2.93,2.15A4.24,4.24,0,0,1,81.32,176.82Z" style="fill: rgb(197, 63, 63); transform-origin: 84.245px 173.89px;" id="el5keyarz0sb9" class="animable"></path><path d="M91.92,177.42a1.92,1.92,0,0,1-1.25.41,1.56,1.56,0,0,1-1.73-1.71v-3.57h-1v-.68h1v-1.29h.8v1.29h1.8v.68h-1.8v3.52a1,1,0,0,0,1,1.08,1.34,1.34,0,0,0,.88-.3Z" style="fill: rgb(197, 63, 63); transform-origin: 89.93px 174.21px;" id="elgj37tbslus" class="animable"></path><path d="M98.3,175.07H93.36a2.18,2.18,0,0,0,2.32,2.06,2.32,2.32,0,0,0,1.81-.78l.45.52a3.13,3.13,0,0,1-5.38-2,2.84,2.84,0,0,1,2.89-3,2.81,2.81,0,0,1,2.86,3C98.31,174.89,98.3,175,98.3,175.07Zm-4.94-.59h4.19a2.1,2.1,0,0,0-4.19,0Z" style="fill: rgb(197, 63, 63); transform-origin: 95.436px 174.849px;" id="el2adauqcurvj" class="animable"></path><path d="M105.92,174.83a2.85,2.85,0,0,1-2.94,3,2.57,2.57,0,0,1-2.24-1.16V180h-.8v-8.09h.76V173a2.58,2.58,0,0,1,2.28-1.21A2.85,2.85,0,0,1,105.92,174.83Zm-.79,0a2.21,2.21,0,1,0-2.2,2.3A2.18,2.18,0,0,0,105.13,174.83Z" style="fill: rgb(197, 63, 63); transform-origin: 102.933px 175.894px;" id="el5y89094rm7d" class="animable"></path><path d="M115.17,175.52c0,1.32-1,2.33-2.85,2.33a4.1,4.1,0,0,1-2.83-1l.39-.64a3.46,3.46,0,0,0,2.44.9c1.3,0,2-.6,2-1.58s-.67-1.56-2.13-1.56h-.56v-.59l2.18-2.73h-4v-.72h5.06v.57l-2.23,2.8C114.33,173.38,115.17,174.26,115.17,175.52Z" style="fill: rgb(197, 63, 63); transform-origin: 112.33px 173.891px;" id="el7i8mtusrn4" class="animable"></path><rect x="315.98" y="276.88" width="44.21" height="24.47" rx="1.79" style="fill: rgb(224, 224, 224); transform-origin: 338.085px 289.115px;" id="elcs6lbf7ap2i" class="animable"></rect><path d="M335.66,290.13c0,1.13-.84,1.78-2.51,1.78h-3.06v-6.67H333c1.49,0,2.35.63,2.35,1.72a1.55,1.55,0,0,1-1,1.51A1.59,1.59,0,0,1,335.66,290.13Zm-4.87-4.31v2.42h2.13c1.06,0,1.68-.41,1.68-1.21s-.62-1.21-1.68-1.21Zm4.16,4.25c0-.87-.63-1.25-1.8-1.25h-2.36v2.51h2.36C334.32,291.33,335,291,335,290.07Z" style="fill: rgb(255, 255, 255); transform-origin: 332.876px 288.575px;" id="eleef7stxqqx" class="animable"></path><path d="M340.9,288.8v3.11h-.64v-.78a1.91,1.91,0,0,1-1.73.83c-1.13,0-1.83-.6-1.83-1.46s.5-1.42,1.94-1.42h1.59v-.31c0-.85-.49-1.32-1.42-1.32a2.57,2.57,0,0,0-1.67.59l-.3-.5a3.14,3.14,0,0,1,2-.68A1.78,1.78,0,0,1,340.9,288.8Zm-.67,1.6v-.82h-1.57c-1,0-1.29.39-1.29.9s.47.94,1.27.94A1.6,1.6,0,0,0,340.23,290.4Z" style="fill: rgb(255, 255, 255); transform-origin: 338.805px 289.401px;" id="elutsn00v61h" class="animable"></path><path d="M342.25,289.4a2.47,2.47,0,0,1,2.58-2.54,2.16,2.16,0,0,1,2,1l-.5.34a1.71,1.71,0,0,0-1.46-.74,2,2,0,0,0,0,3.9,1.68,1.68,0,0,0,1.46-.73l.5.35a2.21,2.21,0,0,1-2,1A2.48,2.48,0,0,1,342.25,289.4Z" style="fill: rgb(255, 255, 255); transform-origin: 344.539px 289.419px;" id="elzwe5kuz9z0e" class="animable"></path><path d="M349.9,289.39l-1.18,1.09v1.43H348v-7.07h.68v4.79l3-2.73h.83L350.4,289l2.34,3h-.82Z" style="fill: rgb(255, 255, 255); transform-origin: 350.37px 288.42px;" id="eln63obxcaf7e" class="animable"></path><path d="M324.71,287.05a11.62,11.62,0,0,1-1.8,1.87h0v-.23a11.35,11.35,0,0,1,1.81,1.85,11.16,11.16,0,0,1-2-1.61l-.12-.12.12-.11h0A10.88,10.88,0,0,1,324.71,287.05Z" style="fill: rgb(255, 255, 255); transform-origin: 323.66px 288.795px;" id="el4qzcmhnug0y" class="animable"></path><path d="M327.57,288.81a17.86,17.86,0,0,1-4.77,0,17.86,17.86,0,0,1,4.77,0Z" style="fill: rgb(255, 255, 255); transform-origin: 325.185px 288.81px;" id="elj2gltlaogu" class="animable"></path><rect x="367.85" y="276.88" width="44.21" height="24.47" rx="1.79" style="fill: rgb(197, 63, 63); transform-origin: 389.955px 289.115px;" id="elsg350s900fm" class="animable"></rect><path d="M381.74,285.24v6.67h-.58l-4.28-5.41v5.41h-.7v-6.67h.58l4.29,5.41v-5.41Z" style="fill: rgb(255, 255, 255); transform-origin: 378.96px 288.575px;" id="elk0mg3wtdku" class="animable"></path><path d="M388.13,289.61h-4.19a1.85,1.85,0,0,0,2,1.74,2,2,0,0,0,1.54-.65l.38.44a2.65,2.65,0,0,1-4.56-1.74,2.44,2.44,0,1,1,4.87,0C388.14,289.46,388.13,289.54,388.13,289.61Zm-4.19-.5h3.55a1.78,1.78,0,0,0-3.55,0Z" style="fill: rgb(255, 255, 255); transform-origin: 385.735px 289.379px;" id="ellt551fhplo" class="animable"></path><path d="M392.57,291.91l-1.59-2.1-1.6,2.1h-.77l2-2.57-1.89-2.44h.76l1.51,2,1.5-2h.74l-1.88,2.44,2,2.57Z" style="fill: rgb(255, 255, 255); transform-origin: 390.98px 289.405px;" id="elq90fad8iui" class="animable"></path><path d="M397.1,291.6A1.62,1.62,0,0,1,396,292a1.33,1.33,0,0,1-1.47-1.46v-3h-.89v-.57h.89v-1.1h.68v1.1h1.52v.57h-1.52v3a.8.8,0,0,0,.87.91,1.12,1.12,0,0,0,.74-.25Z" style="fill: rgb(255, 255, 255); transform-origin: 395.37px 288.939px;" id="el3cqkxo26lqi" class="animable"></path><path d="M401.7,290.54a11.62,11.62,0,0,1,1.8-1.87h0v.23a11.35,11.35,0,0,1-1.81-1.85,11,11,0,0,1,2,1.62l.13.11-.13.12h0A10.88,10.88,0,0,1,401.7,290.54Z" style="fill: rgb(255, 255, 255); transform-origin: 402.755px 288.795px;" id="elds069rs8fh" class="animable"></path><path d="M398.84,288.78a9.82,9.82,0,0,1,2.39-.15,9.7,9.7,0,0,1,2.38.15,8.88,8.88,0,0,1-2.38.16A9,9,0,0,1,398.84,288.78Z" style="fill: rgb(255, 255, 255); transform-origin: 401.225px 288.786px;" id="elo6vzru27mii" class="animable"></path><circle cx="90.63" cy="135.33" r="9.84" style="fill: rgb(197, 63, 63); transform-origin: 90.63px 135.33px;" id="ellzyy3ye45pb" class="animable"></circle><path d="M291.24,135.9a19.55,19.55,0,0,0-.4-2.38,9.78,9.78,0,0,0-3.6-5.3,9.42,9.42,0,0,0-4.06-1.78,9.61,9.61,0,0,0-5.05.44,9.55,9.55,0,0,0-4.45,3.35,9.56,9.56,0,0,0,0,11.33,8.89,8.89,0,0,0,2,2,9.15,9.15,0,0,0,2.43,1.32,9.7,9.7,0,0,0,5.05.43,9.42,9.42,0,0,0,4.06-1.78,9.78,9.78,0,0,0,3.6-5.3,20,20,0,0,0,.4-2.37,7.4,7.4,0,0,1-.21,2.42,9.77,9.77,0,0,1-3.56,5.55,10.07,10.07,0,0,1-4.21,1.91,10.23,10.23,0,0,1-5.3-.41,9.55,9.55,0,0,1-2.55-1.37,9.4,9.4,0,0,1-2.14-2.13,10,10,0,0,1,0-11.94,9.25,9.25,0,0,1,2.14-2.14,9.55,9.55,0,0,1,2.55-1.37,10.23,10.23,0,0,1,5.3-.41,10.07,10.07,0,0,1,4.21,1.91,9.77,9.77,0,0,1,3.56,5.55A7.46,7.46,0,0,1,291.24,135.9Z" style="fill: rgb(38, 50, 56); transform-origin: 281.266px 135.855px;" id="elidwfnq8120h" class="animable"></path><path d="M386.58,134.76c-.07,0,0-.88-.41-2.38a9.88,9.88,0,0,0-3.59-5.3,9.63,9.63,0,0,0-9.12-1.34,9.4,9.4,0,0,0-2.43,1.31,9.1,9.1,0,0,0-2,2,9.57,9.57,0,0,0,0,11.34,9.55,9.55,0,0,0,4.45,3.35,9.63,9.63,0,0,0,9.12-1.34,9.88,9.88,0,0,0,3.59-5.3c.39-1.5.34-2.38.41-2.38a7.84,7.84,0,0,1-.21,2.43,9.94,9.94,0,0,1-7.78,7.45,10,10,0,0,1-5.29-.41,9.43,9.43,0,0,1-2.56-1.36,9.25,9.25,0,0,1-2.14-2.14,10,10,0,0,1,0-11.94,9.25,9.25,0,0,1,2.14-2.14,9.43,9.43,0,0,1,2.56-1.36,10,10,0,0,1,5.29-.41,9.94,9.94,0,0,1,7.78,7.45A7.84,7.84,0,0,1,386.58,134.76Z" style="fill: rgb(38, 50, 56); transform-origin: 376.631px 134.72px;" id="eljy8hs3vg7rr" class="animable"></path><path d="M94.73,132.67a32.55,32.55,0,0,1-3.83,4.41c-.35.38-.7.74-1,1.08l-.18.19-.18-.18a22.24,22.24,0,0,1-3-3.17,20.94,20.94,0,0,1,3.33,2.81h-.35c.32-.35.66-.72,1-1.09A32.87,32.87,0,0,1,94.73,132.67Z" style="fill: rgb(255, 255, 255); transform-origin: 90.635px 135.51px;" id="elzkh2hufjkq" class="animable"></path><rect x="102.33" y="133.33" width="71.24" height="4" style="fill: rgb(197, 63, 63); transform-origin: 137.95px 135.33px;" id="ele02kmonrwql" class="animable"></rect><circle cx="185.75" cy="135.33" r="9.84" style="fill: rgb(197, 63, 63); transform-origin: 185.75px 135.33px;" id="elbycutn54lfc" class="animable"></circle><path d="M189.85,132.67a33.44,33.44,0,0,1-3.83,4.41c-.36.38-.7.74-1,1.08l-.17.19-.18-.18a20.89,20.89,0,0,1-3-3.17,21.71,21.71,0,0,1,3.32,2.81h-.35l1-1.09A32.54,32.54,0,0,1,189.85,132.67Z" style="fill: rgb(255, 255, 255); transform-origin: 185.76px 135.51px;" id="el5mcesbioqkk" class="animable"></path><rect x="197.44" y="133.33" width="71.24" height="4" style="fill: rgb(197, 63, 63); transform-origin: 233.06px 135.33px;" id="elowxdtezx8ug" class="animable"></rect><path d="M365.27,134.76c0,.14-15.95.26-35.62.26S294,134.9,294,134.76s16-.26,35.62-.26S365.27,134.62,365.27,134.76Z" style="fill: rgb(38, 50, 56); transform-origin: 329.635px 134.76px;" id="eli67fagiotf" class="animable"></path><path d="M432.4,103.6c0,.14-86.94.26-194.16.26s-194.17-.12-194.17-.26,86.92-.26,194.17-.26S432.4,103.45,432.4,103.6Z" style="fill: rgb(224, 224, 224); transform-origin: 238.235px 103.6px;" id="elgrcizijodm" class="animable"></path><path d="M382.78,191.07c0,.14-66.32.26-148.11.26s-148.14-.12-148.14-.26,66.31-.26,148.14-.26S382.78,190.93,382.78,191.07Z" style="fill: rgb(38, 50, 56); transform-origin: 234.655px 191.07px;" id="elkqsow69by3r" class="animable"></path><path d="M218.61,202.76a1.55,1.55,0,0,1-.34,0l-1,0-3.85.05-14.15.08-46.69.07-46.7-.07-14.16-.08-3.84-.05-1,0a1.6,1.6,0,0,1-.35,0l.35,0,1,0,3.84-.05,14.16-.08,46.7-.08,46.69.08,14.15.08,3.85.05,1,0Z" style="fill: rgb(38, 50, 56); transform-origin: 152.57px 202.755px;" id="ele4sct54lgve" class="animable"></path><path d="M352.53,219.77c0,.14-54.16.26-121,.26s-121-.12-121-.26,54.15-.26,121-.26S352.53,219.63,352.53,219.77Z" style="fill: rgb(38, 50, 56); transform-origin: 231.53px 219.77px;" id="elqj0btmohs" class="animable"></path><path d="M95.42,223.63a5.29,5.29,0,1,1,5.29-5.28A5.3,5.3,0,0,1,95.42,223.63Zm0-9.57a4.29,4.29,0,1,0,4.29,4.29A4.3,4.3,0,0,0,95.42,214.06Z" style="fill: rgb(224, 224, 224); transform-origin: 95.42px 218.34px;" id="elbyogna8stbm" class="animable"></path><path d="M303.46,232.73s-.16,0-.49,0l-1.46,0-5.62.05-20.67.08L207,233l-68.2-.08-20.67-.08-5.61-.05-1.47,0-.49,0,.49,0,1.47,0,5.61-.05,20.67-.08,68.2-.08,68.18.08,20.67.08,5.62.05,1.46,0C303.3,232.71,303.46,232.73,303.46,232.73Z" style="fill: rgb(38, 50, 56); transform-origin: 207.01px 232.79px;" id="elx8hpr1f8q1" class="animable"></path><path d="M95.42,238a5.29,5.29,0,1,1,5.29-5.29A5.3,5.3,0,0,1,95.42,238Zm0-9.58a4.29,4.29,0,1,0,4.29,4.29A4.3,4.3,0,0,0,95.42,228.44Z" style="fill: rgb(224, 224, 224); transform-origin: 95.42px 232.71px;" id="elz6uz23t7zp" class="animable"></path><circle cx="95.42" cy="232.73" r="2.33" style="fill: rgb(197, 63, 63); transform-origin: 95.42px 232.73px;" id="elfnym9473bow" class="animable"></circle><path d="M352.53,248.54c0,.14-54.16.26-121,.26s-121-.12-121-.26,54.15-.26,121-.26S352.53,248.39,352.53,248.54Z" style="fill: rgb(38, 50, 56); transform-origin: 231.53px 248.54px;" id="el0xzneekb22i" class="animable"></path><path d="M95.42,252.4a5.29,5.29,0,1,1,5.29-5.29A5.3,5.3,0,0,1,95.42,252.4Zm0-9.57a4.29,4.29,0,1,0,4.29,4.28A4.29,4.29,0,0,0,95.42,242.83Z" style="fill: rgb(224, 224, 224); transform-origin: 95.42px 247.11px;" id="el641dvzlu3bh" class="animable"></path></g><g id="freepik--Character--inject-23" class="animable animator-active" style="transform-origin: 248.486px 352.315px;"><path d="M183.38,250.5a9.38,9.38,0,0,0-6,8.37c-.07,2.31,0,5-1.79,6.45s-4.24.73-6.28,1.49c-2.6,1-3.89,3.87-4.46,6.58s-.74,5.61-2.26,7.93-3.92,3.56-6.15,5-4.44,3.45-4.85,6.09c-.59,3.78,2.74,7.64,1.37,11.22-.88,2.3-3.36,3.48-5.22,5.09a11.93,11.93,0,0,0-.94,17.14,8.11,8.11,0,0,0,6.83,2.85c2.48-.35,4.45-2.16,6.31-3.82a101,101,0,0,1,22.66-15.22c2.12-1,4.44-2.15,5.54-4.25a11.13,11.13,0,0,0,.91-3.46q3.44-23.62,6.89-47.24" style="fill: rgb(38, 50, 56); transform-origin: 169.777px 289.617px;" id="elinyvrnzuwyi" class="animable"></path><path d="M206.76,235.53c-.93-3.47,1.1-7.24,4.11-9.21s6.75-2.43,10.34-2.33,7.79,1,9.83,4.11c1.27,1.93,1.49,4.4,2.63,6.42,3.21,5.7,12.13,5.8,15.61,11.34,3.31,5.26-.07,12.15.72,18.31.53,4.13,2.92,7.74,4.79,11.47s3.25,8.14,1.67,12c-1.7,4.12-6.48,6.79-7,11.22-.59,5.49,5.92,10.52,3.92,15.67-1.48,3.82-7,5.27-7.63,9.32-.32,2.17,1,4.21,1.55,6.32,1.48,5.36-2,11.25-7,13.73s-11,2.09-16.25.28A33.22,33.22,0,0,1,203.87,301" style="fill: rgb(38, 50, 56); transform-origin: 229.428px 284.813px;" id="elz6qkhscvxf8" class="animable"></path><path d="M150.48,288.94a1.77,1.77,0,0,0-.78-.7,2,2,0,0,0-1.25-.1,1.67,1.67,0,0,0-1.24,1.08,2.4,2.4,0,0,0,.33,2.06,2.56,2.56,0,0,0,2.22,1.06,3.77,3.77,0,0,0,2.64-1.19,7,7,0,0,0,1.6-2.95c.7-2.31.5-5,.75-7.87a12.08,12.08,0,0,1,1.18-4.33,7,7,0,0,1,1.43-1.92,6.27,6.27,0,0,1,2.11-1.26,26.12,26.12,0,0,1,4.91-.84,6.28,6.28,0,0,0,4.39-2c1.07-1.31,1.16-3.16,1-4.92a39.44,39.44,0,0,1-.36-5.51,10.94,10.94,0,0,1,1.84-5.26,8.49,8.49,0,0,1,4.22-3.38,12.65,12.65,0,0,1,5.21-.25c1.64.12,3.37.19,4.59-.77s1.55-2.56,1.63-4a22.54,22.54,0,0,1,.44-4.45,12,12,0,0,1,4.48-6.56,10.87,10.87,0,0,1,6.22-2.1,11.61,11.61,0,0,1,4.88.94,10.07,10.07,0,0,1,2.69,1.63,6.66,6.66,0,0,1,.79.75s-.29-.24-.86-.67a11.08,11.08,0,0,0-2.7-1.53,11.86,11.86,0,0,0-4.79-.83,10.63,10.63,0,0,0-6,2.11,11.62,11.62,0,0,0-4.28,6.37,22.54,22.54,0,0,0-.4,4.37,9.24,9.24,0,0,1-.39,2.34,4.23,4.23,0,0,1-1.41,2,4.54,4.54,0,0,1-2.38.9,14.37,14.37,0,0,1-2.54,0,12,12,0,0,0-5,.23,8,8,0,0,0-4,3.19,10.4,10.4,0,0,0-1.75,5,41.66,41.66,0,0,0,.35,5.45,11.43,11.43,0,0,1-.07,2.74,5.34,5.34,0,0,1-1.07,2.53,5.18,5.18,0,0,1-2.18,1.59,11.15,11.15,0,0,1-2.54.6,25.13,25.13,0,0,0-4.82.8,5.76,5.76,0,0,0-2,1.15,6.43,6.43,0,0,0-1.33,1.78,11.84,11.84,0,0,0-1.16,4.17c-.27,2.81-.09,5.54-.83,7.93a7.14,7.14,0,0,1-1.72,3.07,4.06,4.06,0,0,1-2.87,1.25,2.86,2.86,0,0,1-2.43-1.21,2.6,2.6,0,0,1-.31-2.27,1.83,1.83,0,0,1,1.39-1.16,2.11,2.11,0,0,1,1.34.15A1.29,1.29,0,0,1,150.48,288.94Z" style="fill: rgb(38, 50, 56); transform-origin: 176.594px 262.709px;" id="elbkrm19m0ko4" class="animable"></path><path d="M259.76,301.33a2.74,2.74,0,0,1,.12.26,2.19,2.19,0,0,1,.14.81,3.3,3.3,0,0,1-1.67,2.61,3.22,3.22,0,0,1-2.25.46,4,4,0,0,1-2.33-1.44,5.59,5.59,0,0,1-1.22-2.91,7.06,7.06,0,0,1,.58-3.49c.94-2.34,2.89-4.3,4.7-6.48a13.74,13.74,0,0,0,2.27-3.72,11.81,11.81,0,0,0,.78-4.53,12.1,12.1,0,0,0-1.07-4.71,12.59,12.59,0,0,0-3-4c-1.27-1.19-2.7-2.28-4-3.62a8.52,8.52,0,0,1-2.54-5,14.29,14.29,0,0,1,.85-5.51,24.27,24.27,0,0,0,1.19-5.17,12.4,12.4,0,0,0-2.66-9.29,9.87,9.87,0,0,0-3.68-2.71,10,10,0,0,0-4.27-.65,10.25,10.25,0,0,1-4.18-.52,5.35,5.35,0,0,1-2.68-2.81c-1-2.3-1-4.59-1.45-6.44a8.88,8.88,0,0,0-.91-2.5,4.9,4.9,0,0,0-1.48-1.63,4,4,0,0,0-2.91-.76,4.84,4.84,0,0,0-1,.37,2.18,2.18,0,0,1,1-.47,4.06,4.06,0,0,1,3,.69,5.24,5.24,0,0,1,1.58,1.68,9,9,0,0,1,1,2.55c.48,1.89.48,4.17,1.5,6.36a5,5,0,0,0,2.51,2.59,9.88,9.88,0,0,0,4,.46,9.72,9.72,0,0,1,8.32,3.47,12.86,12.86,0,0,1,2.8,9.66,24.11,24.11,0,0,1-1.19,5.26,13.89,13.89,0,0,0-.83,5.32,8,8,0,0,0,2.39,4.67c1.24,1.29,2.65,2.39,3.95,3.6a12.91,12.91,0,0,1,3.12,4.2,12.47,12.47,0,0,1,1.1,4.9,12.29,12.29,0,0,1-.83,4.7,14.12,14.12,0,0,1-2.37,3.83c-1.85,2.2-3.77,4.11-4.69,6.35a6.78,6.78,0,0,0-.59,3.31,5.37,5.37,0,0,0,1.11,2.76,3.77,3.77,0,0,0,2.15,1.39,3,3,0,0,0,2.11-.4,3.2,3.2,0,0,0,1.66-2.43A4,4,0,0,0,259.76,301.33Z" style="fill: rgb(38, 50, 56); transform-origin: 244.216px 266.469px;" id="el42t2xmrsr6f" class="animable"></path><path d="M181.9,251.71c-1.9.53-2.93,2.68-2.93,4.65a22.15,22.15,0,0,0,1.28,5.74c.52,1.9.77,4-.17,5.75-1.9,3.46-7.23,3.28-9.8,6.28-3.27,3.81-.22,10.11-2.58,14.54-2.15,4-8.16,5.3-9.35,9.72-.76,2.81.84,5.87,0,8.67-.89,3.18-4.42,4.79-6.28,7.52a10.24,10.24,0,0,0-.57,9.55A18.62,18.62,0,0,0,157,331c.28.24.57.47.86.7l34.44-8L199.2,260Z" style="fill: rgb(38, 50, 56); transform-origin: 174.891px 291.705px;" id="elrb78ol0bbph" class="animable"></path><path d="M200.79,239.92a5,5,0,0,0-5.46,4h0L184,310.85c-1.56,7.86,8.93,14.72,17.35,16.33h0c8.51,1.63,9.67-2.46,11.38-9.88,2.86-12.41,3.85-17.08,3.84-17s11.08.51,16.27-13c2.59-6.71,4.66-18.17,6.06-27.59,1.26-8.49-2.1-20-10.63-20.84Z" style="fill: rgb(183, 136, 118); transform-origin: 211.5px 283.203px;" id="el2lfujl9zmoq" class="animable"></path><path d="M233.85,268.1a1.82,1.82,0,0,1-2.11,1.43,1.74,1.74,0,0,1-1.5-2,1.84,1.84,0,0,1,2.11-1.44A1.75,1.75,0,0,1,233.85,268.1Z" style="fill: rgb(38, 50, 56); transform-origin: 232.045px 267.812px;" id="ely4q3aes2xw" class="animable"></path><path d="M235.14,266.29c-.27.19-1.41-1.1-3.34-1.51s-3.54.26-3.7,0c-.08-.13.23-.5.94-.82a5,5,0,0,1,3-.27,4.81,4.81,0,0,1,2.6,1.5C235.16,265.75,235.27,266.21,235.14,266.29Z" style="fill: rgb(38, 50, 56); transform-origin: 231.639px 264.941px;" id="elqfqb1jw9mzh" class="animable"></path><path d="M214.66,264a1.83,1.83,0,0,1-2.11,1.44,1.76,1.76,0,0,1-1.5-2,1.84,1.84,0,0,1,2.11-1.44A1.75,1.75,0,0,1,214.66,264Z" style="fill: rgb(38, 50, 56); transform-origin: 212.856px 263.721px;" id="elsgubqrw95ip" class="animable"></path><path d="M216.13,262c-.27.18-1.41-1.11-3.34-1.52s-3.55.26-3.7,0c-.08-.13.23-.5.94-.82a5.1,5.1,0,0,1,3-.27,4.87,4.87,0,0,1,2.6,1.5C216.15,261.44,216.26,261.9,216.13,262Z" style="fill: rgb(38, 50, 56); transform-origin: 212.629px 260.648px;" id="el9mk8me3ty5" class="animable"></path><path d="M220.07,277.22a12.79,12.79,0,0,1,3.25.1c.51.05,1,.06,1.15-.26a2.56,2.56,0,0,0,0-1.53l-.66-4.06c-.88-5.76-1.41-10.46-1.17-10.49s1.13,4.61,2,10.38c.2,1.41.4,2.77.59,4.06a2.93,2.93,0,0,1-.16,2,1.27,1.27,0,0,1-1,.55,3.22,3.22,0,0,1-.86-.06A13,13,0,0,1,220.07,277.22Z" style="fill: rgb(38, 50, 56); transform-origin: 222.703px 269.478px;" id="eliok5iap3a8s" class="animable"></path><path d="M216.54,300.29a36.23,36.23,0,0,1-17.62-9s2.61,10.86,16.86,12.53Z" style="fill: rgb(170, 101, 80); transform-origin: 207.73px 297.555px;" id="eldffare2q5y6" class="animable"></path><path d="M218.27,281.69a3.55,3.55,0,0,0-2.84-2,3.23,3.23,0,0,0-2.43.71,2,2,0,0,0-.65,2.26,2.37,2.37,0,0,0,2.39,1.18,7.4,7.4,0,0,0,2.78-.94,2.42,2.42,0,0,0,.67-.46.64.64,0,0,0,.15-.71" style="fill: rgb(170, 101, 80); transform-origin: 215.31px 281.765px;" id="elfbqamfrrxau" class="animable"></path><path d="M214.12,277.34c.32.05-.12,2.14,1.35,4s3.75,2.11,3.7,2.4c0,.14-.58.3-1.53.13a5.34,5.34,0,0,1-3.11-1.89,4.65,4.65,0,0,1-1-3.33C213.64,277.77,214,277.3,214.12,277.34Z" style="fill: rgb(38, 50, 56); transform-origin: 216.341px 280.641px;" id="el4ckihxgy4bj" class="animable"></path><path d="M217.72,258.25c-.31.49-2.18-.17-4.49-.38s-4.28,0-4.48-.52c-.09-.25.34-.68,1.18-1a7.86,7.86,0,0,1,6.83.69C217.52,257.52,217.85,258,217.72,258.25Z" style="fill: rgb(38, 50, 56); transform-origin: 213.243px 257.149px;" id="eltb9pn7i9gcj" class="animable"></path><path d="M235.62,262.82c-.43.37-1.66-.37-3.25-.73s-3-.34-3.22-.86c-.09-.25.21-.64.89-.93a4.84,4.84,0,0,1,5.22,1.28C235.73,262.15,235.82,262.64,235.62,262.82Z" style="fill: rgb(38, 50, 56); transform-origin: 232.427px 261.465px;" id="eldy391zrrq5a" class="animable"></path><path d="M210.92,237.35a13.84,13.84,0,0,0-10.61-4.45c-3.95.27-7.76,2.95-8.7,6.72-.61,2.45-.12,5.29-1.69,7.28s-4.25,2.2-6.39,3.34a8.51,8.51,0,0,0-4.1,9.65c.92,3.12,3.68,5.86,3.27,9.08-.39,3-3.43,5-4.67,7.78-1.37,3.08-.3,6.79,1.79,9.48s5.07,4.56,8,6.38c2.27,1.42,4.72,2.89,7.4,2.86a8,8,0,0,0,7.15-5.31,10.93,10.93,0,0,0-1.09-9.05c-1.37-2.35-3.52-4.57-3.39-7.27.21-4.2,5.76-6.49,6.34-10.66.31-2.14-.81-4.21-1.67-6.22s-1.48-4.43-.29-6.25c1.54-2.36,5.08-2.3,7.53-3.75a6.4,6.4,0,0,0,3.08-6,6.59,6.59,0,0,0-4.12-5.4" style="fill: rgb(38, 50, 56); transform-origin: 195.159px 264.182px;" id="el69dpdbtnufh" class="animable"></path><path d="M210.1,233.88a9.76,9.76,0,0,0,9.23,11.86c2.21.07,4.78-.51,6.38,1s1.13,4.55,2.53,6.42c2,2.66,6.34,1.5,9.27,3.1,2.25,1.24,3.26,3.86,4.45,6.15s3.18,4.64,5.75,4.45a29.06,29.06,0,0,0,.43-6.64,9.72,9.72,0,0,0-2.53-6c-.85-.87-1.93-1.51-2.69-2.46-1.66-2-1.51-5-2.26-7.48a10.7,10.7,0,0,0-6.83-7c-2.68-.88-5.69-.66-8.22-1.91-1.87-.93-3.32-2.59-5.24-3.4-3.74-1.58-8,.44-11.4,2.62" style="fill: rgb(38, 50, 56); transform-origin: 228.573px 249.139px;" id="el9g1yodkw6cb" class="animable"></path><path d="M159.05,314.4a4.11,4.11,0,0,1-1.08-.34,6.36,6.36,0,0,1-2.46-2.08,7.14,7.14,0,0,1-1.34-4.89,9.53,9.53,0,0,1,3-6c.93-.87,2-1.59,3.11-2.42a6.65,6.65,0,0,0,2.49-3.2,13,13,0,0,0,0-4.45,9.33,9.33,0,0,1,1-4.79,10.25,10.25,0,0,1,3.41-3.86,9.51,9.51,0,0,1,5.11-1.61c1.82-.09,3.65.1,5.46-.14a6.6,6.6,0,0,0,2.53-.85,5.08,5.08,0,0,0,1.81-2,23.91,23.91,0,0,0,1.56-5.35,11.49,11.49,0,0,1,.95-2.65,6.12,6.12,0,0,1,1.85-2.13,13.63,13.63,0,0,1,5.07-1.75,11.65,11.65,0,0,0,4.63-1.7,4.37,4.37,0,0,0,1.47-1.76,4.86,4.86,0,0,0,.39-2.22,17.3,17.3,0,0,0-1.08-4.36,10.67,10.67,0,0,1-.67-4.25,4.66,4.66,0,0,1,.63-2,4.31,4.31,0,0,1,1.43-1.39,9.28,9.28,0,0,1,3.47-1,25.92,25.92,0,0,0,3.12-.53,7.7,7.7,0,0,0,4.09-2.75,8.15,8.15,0,0,0,1.43-2.82c.19-.71.21-1.1.24-1.1a4.68,4.68,0,0,1-.14,1.12,7.7,7.7,0,0,1-1.37,2.93,7.88,7.88,0,0,1-4.17,2.9,25.61,25.61,0,0,1-3.15.58,9.05,9.05,0,0,0-3.33,1,3.84,3.84,0,0,0-1.85,3.08,10.47,10.47,0,0,0,.68,4.09,17,17,0,0,1,1.12,4.46,5.31,5.31,0,0,1-.41,2.44,4.88,4.88,0,0,1-1.62,2,12.19,12.19,0,0,1-4.81,1.8,13.06,13.06,0,0,0-4.88,1.68,7.27,7.27,0,0,0-2.59,4.49,23.93,23.93,0,0,1-1.6,5.47,5.54,5.54,0,0,1-2,2.17,7,7,0,0,1-2.74.92c-1.9.25-3.74.05-5.51.14a9.34,9.34,0,0,0-8.11,5.18,8.8,8.8,0,0,0-1,4.54,13.46,13.46,0,0,1,0,4.61,7.1,7.1,0,0,1-2.67,3.39c-1.09.84-2.19,1.54-3.1,2.37a9.27,9.27,0,0,0-3,5.75,7,7,0,0,0,1.21,4.75A6.41,6.41,0,0,0,158,314C158.67,314.29,159.06,314.37,159.05,314.4Z" style="fill: rgb(69, 90, 100); transform-origin: 182.404px 277.205px;" id="el5bdkss7khbq" class="animable"></path><path d="M242,335.59a10.31,10.31,0,0,0,.87-.95,6.25,6.25,0,0,0,1.15-3.46,11,11,0,0,0-1.33-5.63c-1-2.07-2.56-4.21-3.6-7a14.44,14.44,0,0,1,0-9.46,14.16,14.16,0,0,1,2.64-4.65c1.21-1.4,2.68-2.57,3.85-4.06s2-3.4,1.42-5.26-2.26-3.17-3.74-4.63a10.41,10.41,0,0,1-2-2.52,8.23,8.23,0,0,1-.91-3.16,14.71,14.71,0,0,1,1.09-6.53c.81-2.1,1.88-4,2.77-6a18.19,18.19,0,0,0,1.79-6,12.93,12.93,0,0,0-4.31-10.56,40.59,40.59,0,0,0-4.69-3,6.51,6.51,0,0,1-2-1.93,6.87,6.87,0,0,1-.84-2.53,6,6,0,0,0-.77-2.29,4.6,4.6,0,0,0-1.7-1.55,17.61,17.61,0,0,0-4.27-1.39,15.71,15.71,0,0,1-4-1.34,12.89,12.89,0,0,1-3-2.21,13.61,13.61,0,0,1-3.25-5,12.09,12.09,0,0,1-.77-3.66,8.75,8.75,0,0,1,0-1.31,14,14,0,0,0,.93,4.9,13.47,13.47,0,0,0,3.26,4.82,12.17,12.17,0,0,0,2.95,2.12,15.66,15.66,0,0,0,3.88,1.29,17.22,17.22,0,0,1,4.38,1.39,4.88,4.88,0,0,1,1.86,1.67,6.7,6.7,0,0,1,.85,2.44,6.27,6.27,0,0,0,.79,2.37,6,6,0,0,0,1.85,1.79,39.25,39.25,0,0,1,4.75,3,13.37,13.37,0,0,1,4.5,11,18.34,18.34,0,0,1-1.82,6.17c-.9,2-2,3.89-2.75,5.93a14.41,14.41,0,0,0-1.07,6.3,7.73,7.73,0,0,0,.86,3,9.81,9.81,0,0,0,1.91,2.4c.74.72,1.53,1.41,2.23,2.18a7,7,0,0,1,1.64,2.67,5.21,5.21,0,0,1-.09,3.08,8.47,8.47,0,0,1-1.44,2.62c-1.21,1.54-2.7,2.71-3.87,4.06a13.65,13.65,0,0,0-2.58,4.49,14,14,0,0,0,0,9.19c1,2.7,2.54,4.87,3.52,7a11.13,11.13,0,0,1,1.26,5.78,6.15,6.15,0,0,1-1.27,3.5A3.81,3.81,0,0,1,242,335.59Z" style="fill: rgb(69, 90, 100); transform-origin: 231.983px 282.55px;" id="el6p9r4oa4fb6" class="animable"></path><path d="M230.72,323.71a31.17,31.17,0,0,1,8.61,22c-.26,13.68,1.95,38.49,1.95,38.49l37.85,23.14L268.45,423.7l-41.7-18.5L218,387.29Z" style="fill: rgb(197, 63, 63); transform-origin: 248.565px 373.705px;" id="ely8afv8sfln9" class="animable"></path><path d="M242.29,417.45s1.41-2.71-2.56-4.78H233.3L220.75,391l10-67.29-17.12-13-37.89-3.37-13.25,68.1,16.93,30.95L213,420.18Z" style="fill: rgb(197, 63, 63); transform-origin: 202.512px 363.76px;" id="el5q3g8wc69vm" class="animable"></path><path d="M182.43,307.83l.76-6.42a2,2,0,0,1,2.55-1.73c9.39,7.36,19,11.09,29.24,8.15a2.66,2.66,0,0,1,1.87,3.2l-4,16.08-10.37,3.11-13.69-2.68-6.4-11.82Z" style="fill: rgb(197, 63, 63); transform-origin: 199.659px 314.91px;" id="elkr89wj154h" class="animable"></path><path d="M215.25,312.26A5.62,5.62,0,0,1,214,313a21.94,21.94,0,0,1-3.59,1.48,24.23,24.23,0,0,1-23.92-5.4,22.33,22.33,0,0,1-2.6-2.87,6.34,6.34,0,0,1-.78-1.19,46.91,46.91,0,0,0,3.63,3.79,24.87,24.87,0,0,0,23.57,5.31A45.07,45.07,0,0,0,215.25,312.26Z" style="fill: rgb(38, 50, 56); transform-origin: 199.18px 310.322px;" id="elvgr0up1556" class="animable"></path><g id="elp0eec6cjc2"><g style="opacity: 0.2; transform-origin: 198.815px 313.029px;" class="animable"><path d="M184.26,306.27a4,4,0,0,0,.47,3.78,11.58,11.58,0,0,0,2.87,2.71c3.68,2.74,7.5,5.45,11.9,6.71s9.56.78,12.94-2.31c1-.89,1.73-2.57.72-3.42-.76-.64-1.91-.25-2.83.11a21.67,21.67,0,0,1-25.56-7.91" id="eljle2vaoadlp" class="animable" style="transform-origin: 198.815px 313.029px;"></path></g></g><path d="M179,379.12,241,412.32l-22.34,13.5L176,413.32c-22.59-6-28.76-15.36-28.54-25,.09-3.53-.33-38,1.19-54.85,2.07-23,27.08-26.1,27.08-26.1L175.31,327l.28,24,.85,22c2.26-1.13,2.82,3.11,2.82,3.11Z" style="fill: rgb(197, 63, 63); transform-origin: 194.227px 366.595px;" id="el9g0p3zvp199" class="animable"></path><path d="M176,375.68c-.14,0-.34-8.33-.43-18.6s-.05-18.61.09-18.62.34,8.33.43,18.61S176.16,375.68,176,375.68Z" style="fill: rgb(38, 50, 56); transform-origin: 175.833px 357.07px;" id="ell0ygqmdi7a" class="animable"></path><path d="M178.81,380.25c-.07,0,.13-.41.22-1a3.64,3.64,0,0,0-.42-2.36,3.6,3.6,0,0,0-1.85-1.52c-.59-.23-1-.24-1-.33s.42-.18,1.12,0a3.45,3.45,0,0,1,2.52,4.32C179.18,380,178.86,380.29,178.81,380.25Z" style="fill: rgb(38, 50, 56); transform-origin: 177.648px 377.595px;" id="elvwu8qdxwd1p" class="animable"></path><path d="M178.81,380.25s0,0,.11.1l.36.23c.33.2.82.47,1.46.82,1.27.69,3.13,1.67,5.43,2.86l18,9.25,18.06,9.23,5.45,2.84,1.47.79a2.2,2.2,0,0,1,.5.31,2.67,2.67,0,0,1-.54-.22l-1.52-.7-5.53-2.69C217.45,400.78,211,397.58,204,394s-13.41-6.91-18-9.39S178.65,380.45,178.81,380.25Z" style="fill: rgb(38, 50, 56); transform-origin: 204.227px 393.465px;" id="eliuuk2xbn5zh" class="animable"></path><path d="M219.33,391.67a15.3,15.3,0,0,1-2.89-.7c-1.77-.51-4.2-1.26-6.86-2.16s-5-1.8-6.75-2.48a16.51,16.51,0,0,1-2.72-1.21A18.06,18.06,0,0,1,203,386l6.79,2.32,6.8,2.31A16.66,16.66,0,0,1,219.33,391.67Z" style="fill: rgb(38, 50, 56); transform-origin: 209.72px 388.395px;" id="elrg5p5ejzk5" class="animable"></path><path d="M204.06,366.15s-.07.28-.3.73a11.1,11.1,0,0,1-1.14,1.84,16.11,16.11,0,0,1-2.16,2.37,19.26,19.26,0,0,1-3.22,2.26,18.71,18.71,0,0,1-3.65,1.47,15.89,15.89,0,0,1-3.17.52,11.28,11.28,0,0,1-2.16,0c-.5-.06-.78-.11-.77-.15s1.12,0,2.9-.18a18.53,18.53,0,0,0,3.07-.62,20.59,20.59,0,0,0,3.53-1.47,19.14,19.14,0,0,0,3.15-2.17,17.43,17.43,0,0,0,2.19-2.23C203.46,367.1,204,366.11,204.06,366.15Z" style="fill: rgb(38, 50, 56); transform-origin: 195.775px 370.77px;" id="elzgggdm10joa" class="animable"></path><path d="M175.76,332.8c-.08,0-.21-1.39-.54-3.63a30.82,30.82,0,0,0-2.32-8.44,17,17,0,0,0-5.42-6.73,22.75,22.75,0,0,0-3.18-1.76,2.83,2.83,0,0,1,1,.24,11.21,11.21,0,0,1,2.43,1.21,16.33,16.33,0,0,1,5.68,6.82,27.78,27.78,0,0,1,2.22,8.62c.12,1.13.18,2.05.2,2.68A3.18,3.18,0,0,1,175.76,332.8Z" style="fill: rgb(38, 50, 56); transform-origin: 170.071px 322.52px;" id="eldnl8n7b6tvh" class="animable"></path><path d="M241.82,384.11a17.86,17.86,0,0,0-1.58,1.27,20.37,20.37,0,0,0-3,3.89,19.11,19.11,0,0,0-2,4.45c-.34,1.2-.35,2-.44,2a4.35,4.35,0,0,1,.09-2.08,15.3,15.3,0,0,1,1.9-4.63,16.22,16.22,0,0,1,3.16-3.89A3.41,3.41,0,0,1,241.82,384.11Z" style="fill: rgb(38, 50, 56); transform-origin: 238.267px 389.915px;" id="elk7gnd7orstr" class="animable"></path><g id="elvyyezusmfgp"><g style="opacity: 0.2; transform-origin: 227.41px 379.09px;" class="animable"><path d="M232.59,408.45c2.06-3.95,1.55-8.74.39-13s-2.92-8.49-3.26-12.93c-.29-3.85.52-7.69,1.29-11.47s1.52-7.63,1.12-11.47-2.12-7.73-5.34-9.85a40.4,40.4,0,0,1,3,9.84,13.55,13.55,0,0,1-2.18,9.81c-1.07,1.4-2.51,2.55-3.21,4.17-.92,2.15-.78,4.59-1.46,6.74-.75,2.37-2.11,10.31-2.11,10.31-.09.44,2.35,4.93,4.76,8.13s5.34,6.09,7.09,9.7" id="eljph5u5xkj6h" class="animable" style="transform-origin: 227.41px 379.09px;"></path></g></g><path d="M232.74,408.18s-.09-.09-.25-.29l-.68-.91-2.51-3.48c-2.16-3.06-5.17-7.32-8.75-12.37l-.05-.08,0-.1L223.76,375c.13-.61.25-1.21.37-1.8l0-.07,0-.06a19.53,19.53,0,0,0,5.71-13.62,18.26,18.26,0,0,0-4-10.78l0,0v-.05c-.16-2.55-.29-4.59-.38-6.05,0-.67-.06-1.2-.08-1.61a2.64,2.64,0,0,1,0-.56,2.08,2.08,0,0,1,.09.55c0,.41.09.94.16,1.6.13,1.46.31,3.5.53,6l0-.09a18.41,18.41,0,0,1,4.18,11,17.61,17.61,0,0,1-1.38,7.25,21,21,0,0,1-4.42,6.76l.07-.13c-.12.58-.24,1.19-.37,1.8C223.08,380.85,222,386.27,221,391l0-.18,8.59,12.48c1,1.49,1.82,2.68,2.4,3.55l.62.95C232.69,408.06,232.76,408.18,232.74,408.18Z" style="fill: rgb(38, 50, 56); transform-origin: 226.622px 374.29px;" id="ele159sop7y1w" class="animable"></path><g id="elx8gxx1pr4q8"><g style="opacity: 0.2; transform-origin: 194.967px 374.118px;" class="animable"><path d="M187.79,375.51c-.61-.49-1.58.27-1.54,1.05a2.45,2.45,0,0,0,1.36,1.8,10.3,10.3,0,0,0,6.22,1.24,11.93,11.93,0,0,0,7.27-3,7.89,7.89,0,0,0,2.46-7.24,1.26,1.26,0,0,0-.26-.59c-.51-.52-1.35.06-1.85.59a19.75,19.75,0,0,1-13.24,6.1" id="el8axaorsff07" class="animable" style="transform-origin: 194.967px 374.118px;"></path></g></g><g id="elcrx1l2xgtia"><g style="opacity: 0.2; transform-origin: 172.141px 377.161px;" class="animable"><path d="M175.72,375.07A5.82,5.82,0,0,0,169,376.8a2,2,0,0,0-.41,2.22,1.63,1.63,0,0,0,1.76.6,4.64,4.64,0,0,0,1.72-1c1.15-.89,2.28-1.81,3.37-2.76a1.11,1.11,0,0,0,.39-.47.41.41,0,0,0-.18-.52" id="el45cbsmxmdqh" class="animable" style="transform-origin: 172.141px 377.161px;"></path></g></g><path d="M170.48,380.3c-.06,0,0-.51.3-1.25a7.14,7.14,0,0,1,4.54-4,2.3,2.3,0,0,1,1.27-.13,13,13,0,0,0-3.64,2A13.47,13.47,0,0,0,170.48,380.3Z" style="fill: rgb(38, 50, 56); transform-origin: 173.525px 377.592px;" id="eloqlhsj2vu4" class="animable"></path><path d="M152.07,346.21a79.14,79.14,0,0,1,0-8.93,79,79,0,0,1,.54-8.91,73.61,73.61,0,0,1,0,8.92A76.75,76.75,0,0,1,152.07,346.21Z" style="fill: rgb(250, 250, 250); transform-origin: 152.345px 337.29px;" id="eljwmgjbo05a8" class="animable"></path><path d="M156.52,360.16c-.14,0-.27-4.8-.28-10.71s.11-10.7.25-10.7.27,4.79.28,10.7S156.66,360.16,156.52,360.16Z" style="fill: rgb(250, 250, 250); transform-origin: 156.505px 349.455px;" id="elzaa5fc2to8" class="animable"></path><path d="M164.52,324.8a11.17,11.17,0,0,1,.08,2.43c0,1.5-.06,3.57-.15,5.85s-.2,4.35-.31,5.85a10.12,10.12,0,0,1-.28,2.41,11,11,0,0,1-.08-2.42c0-1.5.06-3.57.15-5.86s.2-4.36.31-5.85A10,10,0,0,1,164.52,324.8Z" style="fill: rgb(250, 250, 250); transform-origin: 164.19px 333.07px;" id="elktnus3zp1e" class="animable"></path><path d="M170.37,353.51a45,45,0,0,1-.26-6.9,47.27,47.27,0,0,1,.27-6.89,45.78,45.78,0,0,1,.25,6.89A46.6,46.6,0,0,1,170.37,353.51Z" style="fill: rgb(250, 250, 250); transform-origin: 170.37px 346.615px;" id="elb1pdk8830jt" class="animable"></path><path d="M163.8,369.24a41.6,41.6,0,0,1,.07-6.5,42,42,0,0,1,.58-6.48,79.75,79.75,0,0,1-.65,13Z" style="fill: rgb(250, 250, 250); transform-origin: 164.098px 362.76px;" id="elgki09ang4yv" class="animable"></path><path d="M150.41,382.37a79,79,0,0,1-.22-12.81,79,79,0,0,1,.22,12.81Z" style="fill: rgb(250, 250, 250); transform-origin: 150.3px 375.965px;" id="el9a00ba8jw4n" class="animable"></path><path d="M156.48,383.35a21,21,0,0,1,0-4.64,21.24,21.24,0,0,1,.51-4.61,21,21,0,0,1,0,4.64A20.63,20.63,0,0,1,156.48,383.35Z" style="fill: rgb(250, 250, 250); transform-origin: 156.735px 378.725px;" id="eltfdj3ka376q" class="animable"></path><path d="M188.59,390.65a29.27,29.27,0,0,1-6-2.9,30.07,30.07,0,0,1-5.51-3.75c.08-.13,2.6,1.47,5.77,3.3S188.66,390.52,188.59,390.65Z" style="fill: rgb(250, 250, 250); transform-origin: 182.836px 387.321px;" id="elh2zgbn48g3n" class="animable"></path><path d="M209,401.35a8.63,8.63,0,0,1-2.06-.85,45.66,45.66,0,0,1-9-5.9,8.25,8.25,0,0,1-1.6-1.56c.1-.12,2.7,2.06,6.19,4.34S209.1,401.21,209,401.35Z" style="fill: rgb(250, 250, 250); transform-origin: 202.671px 397.193px;" id="elfg8aeu69tpi" class="animable"></path><path d="M210.31,407.21a26.73,26.73,0,0,1-4.91-2,26.15,26.15,0,0,1-4.68-2.47,26.81,26.81,0,0,1,4.9,2A27.77,27.77,0,0,1,210.31,407.21Z" style="fill: rgb(250, 250, 250); transform-origin: 205.515px 404.975px;" id="elyvzxwvudzcd" class="animable"></path><path d="M224.14,412c-.08.13-2.36-1.31-5.33-2.8s-5.47-2.48-5.42-2.62A29.56,29.56,0,0,1,224.14,412Z" style="fill: rgb(250, 250, 250); transform-origin: 218.765px 409.294px;" id="el7d1or3mx0ms" class="animable"></path><path d="M220.71,418.86a25.86,25.86,0,0,1-3.6-2,27.59,27.59,0,0,1-3.54-2.08,11.74,11.74,0,0,1,3.79,1.63A12.36,12.36,0,0,1,220.71,418.86Z" style="fill: rgb(250, 250, 250); transform-origin: 217.14px 416.82px;" id="elkqlv7mb0eyn" class="animable"></path><path d="M172.48,377.51a16.91,16.91,0,0,1-.42-4.12,17.16,17.16,0,0,1,.09-4.15,16.06,16.06,0,0,1,.43,4.12A16.27,16.27,0,0,1,172.48,377.51Z" style="fill: rgb(250, 250, 250); transform-origin: 172.321px 373.375px;" id="elpjcm1zgoarp" class="animable"></path><path d="M203,350.11a33.62,33.62,0,0,1-1-5.73,31.43,31.43,0,0,1-.48-5.78,32.25,32.25,0,0,1,1,5.72A31.51,31.51,0,0,1,203,350.11Z" style="fill: rgb(250, 250, 250); transform-origin: 202.26px 344.355px;" id="elw5556hyhhg" class="animable"></path><path d="M206.32,367.13a36.33,36.33,0,0,1-.35-6.08,35.41,35.41,0,0,1,.18-6.08,35.76,35.76,0,0,1,.34,6.08A35,35,0,0,1,206.32,367.13Z" style="fill: rgb(250, 250, 250); transform-origin: 206.232px 361.05px;" id="elz1zfly71xr" class="animable"></path><path d="M186.19,369.56a28.84,28.84,0,0,1-.81-11.35c.15,0,.13,2.55.35,5.68S186.34,369.53,186.19,369.56Z" style="fill: rgb(250, 250, 250); transform-origin: 185.685px 363.885px;" id="elbbk3lllsgyg" class="animable"></path><path d="M193.08,386.28a18.94,18.94,0,0,1-1-5.32,19.17,19.17,0,0,1,.06-5.4,53,53,0,0,1,.46,5.36C192.87,383.87,193.23,386.25,193.08,386.28Z" style="fill: rgb(250, 250, 250); transform-origin: 192.517px 380.92px;" id="el3mzhlpt49jk" class="animable"></path><path d="M196.06,362.26a65.61,65.61,0,0,1,0-11.67,65.61,65.61,0,0,1,0,11.67Z" style="fill: rgb(250, 250, 250); transform-origin: 196.06px 356.425px;" id="el5c9sc10km" class="animable"></path><path d="M187.78,342.15a35.66,35.66,0,0,1,0,8.76,37,37,0,0,1,0-8.76Z" style="fill: rgb(250, 250, 250); transform-origin: 187.785px 346.53px;" id="eluyatkvphn5" class="animable"></path><path d="M196.24,327.4a29.23,29.23,0,0,1,.16,7.78,15.35,15.35,0,0,1-.34-3.89A15.11,15.11,0,0,1,196.24,327.4Z" style="fill: rgb(250, 250, 250); transform-origin: 196.297px 331.29px;" id="elb3ku7vjy08a" class="animable"></path><path d="M211.75,343.62a65.68,65.68,0,0,1-.78-8.26,67.49,67.49,0,0,1-.27-8.28,63.92,63.92,0,0,1,.79,8.25A68.75,68.75,0,0,1,211.75,343.62Z" style="fill: rgb(250, 250, 250); transform-origin: 211.225px 335.35px;" id="el2gxqayff74w" class="animable"></path><path d="M216.81,372.8a83.26,83.26,0,0,1-.26-9.24,83.26,83.26,0,0,1,.26-9.24,80.43,80.43,0,0,1,.26,9.24A80.43,80.43,0,0,1,216.81,372.8Z" style="fill: rgb(250, 250, 250); transform-origin: 216.812px 363.56px;" id="eldw2xfizm1qm" class="animable"></path><path d="M207.73,387.72a81,81,0,0,1,0-13,81,81,0,0,1,0,13Z" style="fill: rgb(250, 250, 250); transform-origin: 207.73px 381.22px;" id="elkg0h10co55f" class="animable"></path><path d="M216,396.48a6.35,6.35,0,0,1-.26-2.51,6.42,6.42,0,0,1,.26-2.52,6.2,6.2,0,0,1,.26,2.52A6.14,6.14,0,0,1,216,396.48Z" style="fill: rgb(250, 250, 250); transform-origin: 216.002px 393.965px;" id="elhtmbzggp1o4" class="animable"></path><path d="M221.52,335.18a67.53,67.53,0,0,1,0,11.84,67.53,67.53,0,0,1,0-11.84Z" style="fill: rgb(250, 250, 250); transform-origin: 221.52px 341.1px;" id="elr21m85fh0g" class="animable"></path><path d="M215.84,314.58a60.62,60.62,0,0,1,.26,7.87,60.62,60.62,0,0,1-.26,7.87,60.62,60.62,0,0,1-.26-7.87A60.62,60.62,0,0,1,215.84,314.58Z" style="fill: rgb(250, 250, 250); transform-origin: 215.84px 322.45px;" id="el5ossvo77j7c" class="animable"></path><path d="M205.14,316.69a55.28,55.28,0,0,1,0,10.71,55.28,55.28,0,0,1,0-10.71Z" style="fill: rgb(250, 250, 250); transform-origin: 205.14px 322.045px;" id="elp6nud5a1mj" class="animable"></path><path d="M229.69,341.14a45.95,45.95,0,0,1-.23-13c.15,0,.1,2.93.17,6.52S229.84,341.12,229.69,341.14Z" style="fill: rgb(250, 250, 250); transform-origin: 229.431px 334.64px;" id="elyvmu9vegbzf" class="animable"></path><path d="M234.39,352.08a84.28,84.28,0,0,1,0-13.23,84.28,84.28,0,0,1,0,13.23Z" style="fill: rgb(250, 250, 250); transform-origin: 234.39px 345.465px;" id="eltez9glbosc" class="animable"></path><path d="M237.28,371.3a89.58,89.58,0,0,1,0-13.64,89.58,89.58,0,0,1,0,13.64Z" style="fill: rgb(250, 250, 250); transform-origin: 237.28px 364.48px;" id="el8pj4ppch3m" class="animable"></path><path d="M230.67,381.84a100.79,100.79,0,0,1,0-14.47,100.79,100.79,0,0,1,0,14.47Z" style="fill: rgb(250, 250, 250); transform-origin: 230.67px 374.605px;" id="elsepxki9yu8j" class="animable"></path><path d="M225.5,394a112.67,112.67,0,0,1,0-15.3,55.33,55.33,0,0,1,.26,7.65A55.33,55.33,0,0,1,225.5,394Z" style="fill: rgb(250, 250, 250); transform-origin: 225.517px 386.35px;" id="elbdioxplfkhf" class="animable"></path><path d="M236.87,387.63a38.13,38.13,0,0,1,0-8.89,38.13,38.13,0,0,1,0,8.89Z" style="fill: rgb(250, 250, 250); transform-origin: 236.87px 383.185px;" id="elr3a0gn3kmc" class="animable"></path><path d="M248,409.26a64.49,64.49,0,0,1-7.63-2.91,62.61,62.61,0,0,1-7.42-3.39,64.76,64.76,0,0,1,7.62,2.91A63.27,63.27,0,0,1,248,409.26Z" style="fill: rgb(250, 250, 250); transform-origin: 240.475px 406.11px;" id="elgllep8iug1" class="animable"></path><path d="M261.24,405.26a69.21,69.21,0,0,1-8.16-2.63,70.51,70.51,0,0,1-8-3.12,71.55,71.55,0,0,1,8.16,2.63A72.84,72.84,0,0,1,261.24,405.26Z" style="fill: rgb(250, 250, 250); transform-origin: 253.16px 402.385px;" id="el71stagudbjb" class="animable"></path><path d="M251.91,396.41a35,35,0,0,1-5.47-2.5,34.31,34.31,0,0,1-5.23-3,35,35,0,0,1,5.47,2.5A33.93,33.93,0,0,1,251.91,396.41Z" style="fill: rgb(250, 250, 250); transform-origin: 246.56px 393.66px;" id="eleacsh2edvnd" class="animable"></path><path d="M163.86,314.52c.11.12-1.48,1.56-3.05,3.66s-2.54,4-2.68,3.93a11.77,11.77,0,0,1,2.27-4.25A11.59,11.59,0,0,1,163.86,314.52Z" style="fill: rgb(250, 250, 250); transform-origin: 160.998px 318.316px;" id="elyymrwz14bxg" class="animable"></path><path d="M177.55,318.32a10.16,10.16,0,0,1-.91-3.11,9.64,9.64,0,0,1-.4-3.21,10.5,10.5,0,0,1,.91,3.1A10.36,10.36,0,0,1,177.55,318.32Z" style="fill: rgb(250, 250, 250); transform-origin: 176.893px 315.16px;" id="eldpr04j1gmmt" class="animable"></path><path d="M234.79,421.63l66.15-32.12a22,22,0,0,1,21.1,1h0a22,22,0,0,1,5.25,33.07l-28.66,33.54-73.17,10.12-6.85-41.44,8.14-12.6Z" style="fill: rgb(38, 50, 56); transform-origin: 275.59px 427.264px;" id="el9dx2ptarw5s" class="animable"></path><path d="M274.75,435.35a4,4,0,0,1-.81.67c-.54.4-1.34,1-2.33,1.65-2,1.36-4.77,3.17-7.92,5.07s-6.05,3.51-8.18,4.63c-1.07.56-1.94,1-2.55,1.29a4.07,4.07,0,0,1-1,.4,3.76,3.76,0,0,1,.87-.58l2.46-1.44c2.08-1.2,4.95-2.86,8.09-4.75s5.95-3.65,8-4.93l2.42-1.51A4,4,0,0,1,274.75,435.35Z" style="fill: rgb(69, 90, 100); transform-origin: 263.355px 442.205px;" id="el1e9rx06exx7" class="animable"></path><path d="M135,437.82s6.57-31.72,10-36.6,10.51-15.81,19.52-16.93,27.42,9.68,30.77,13.92c8.48,10.75,62,67.4,61.34,66.66l-17.25,11.89L221.15,471h-52.3S132.62,464.87,135,437.82Z" style="fill: rgb(38, 50, 56); transform-origin: 195.762px 430.485px;" id="elfemqr1r04n" class="animable"></path><path d="M221.15,471a4.36,4.36,0,0,1-.8-.05,16,16,0,0,1-2.27-.36,42.36,42.36,0,0,1-8-2.81A119.37,119.37,0,0,1,186.55,453a199.48,199.48,0,0,1-21.08-18.17,53.24,53.24,0,0,1-5.47-6.42,17.74,17.74,0,0,1-1.23-1.95,4.21,4.21,0,0,1-.37-.7,3.39,3.39,0,0,1,.46.65c.31.43.67,1.11,1.3,1.88a59.87,59.87,0,0,0,5.57,6.29,218.12,218.12,0,0,0,21.14,18,125.08,125.08,0,0,0,23.4,14.82,46.48,46.48,0,0,0,7.85,3c1,.22,1.72.39,2.24.45A4.33,4.33,0,0,1,221.15,471Z" style="fill: rgb(69, 90, 100); transform-origin: 189.775px 448.381px;" id="elu5jjia7pr38" class="animable"></path><path d="M197.71,463.91a5.51,5.51,0,0,1-.68.41l-2,1.1c-.87.47-2,.91-3.28,1.49-.64.3-1.37.49-2.12.77a25.12,25.12,0,0,1-2.4.77A47.46,47.46,0,0,1,175,470.28a50.9,50.9,0,0,1-15.07-1.95,46.49,46.49,0,0,1-13.72-6.51c-.94-.71-1.89-1.34-2.74-2.06a19.07,19.07,0,0,1-2.28-2.31,26.85,26.85,0,0,1-3.22-4.83,25.25,25.25,0,0,1-2.72-7.91,14.22,14.22,0,0,1-.2-2.27,4.76,4.76,0,0,1,0-.79c.06,0,0,1.09.38,3a26.16,26.16,0,0,0,2.84,7.77,28.09,28.09,0,0,0,3.22,4.72,19.84,19.84,0,0,0,2.25,2.24c.84.7,1.79,1.32,2.72,2a47,47,0,0,0,13.6,6.4,51.17,51.17,0,0,0,14.91,2,48.64,48.64,0,0,0,12.18-1.7c.86-.18,1.64-.5,2.4-.73s1.47-.45,2.11-.73c1.28-.55,2.42-1,3.3-1.4l2-1A3.64,3.64,0,0,1,197.71,463.91Z" style="fill: rgb(69, 90, 100); transform-origin: 166.372px 455.971px;" id="el4m3k41z76wd" class="animable"></path><path d="M255.07,463c-.1.1-13.08-13.57-29-30.53s-28.72-30.79-28.62-30.88,13.09,13.56,29,30.53S255.18,462.91,255.07,463Z" style="fill: rgb(69, 90, 100); transform-origin: 226.26px 432.295px;" id="el0aeal74s1lb" class="animable"></path><path d="M201.09,462.76s-11.83,4.82-10.59,10.33,7.33,8.07,13.5,7.48,17.52-5.67,17.52-5.67l5.84-3.1s-7.1-.11-10.69-1.39C212.51,468.92,201.09,462.76,201.09,462.76Z" style="fill: rgb(197, 63, 63); transform-origin: 208.884px 471.707px;" id="elncdtpt5bgn" class="animable"></path><path d="M215.72,472.43l42,6.6,88.66-8.84-48.61-13.32-82,11.79a1.9,1.9,0,0,0-1.63,1.88h0A1.91,1.91,0,0,0,215.72,472.43Z" style="fill: rgb(69, 90, 100); transform-origin: 280.26px 467.95px;" id="elasy6iqg4c9" class="animable"></path><path d="M269,412.24l-10.16,60.07a5.2,5.2,0,0,0,5.65,6l81.87-8.16a5.2,5.2,0,0,0,4.6-4.24L362,405.15a5.21,5.21,0,0,0-5.67-6.11l-82.78,8.9A5.21,5.21,0,0,0,269,412.24Z" style="fill: rgb(69, 90, 100); transform-origin: 310.429px 438.674px;" id="elgmmgciv6xra" class="animable"></path><path d="M214.11,470.54l.22,0,.65.07,2.49.35,9.24,1.38L258,477.21l-.29.21c.52-3.13,1.05-6.39,1.6-9.72,2.47-14.78,4.7-28.15,6.33-37.88.83-4.81,1.5-8.72,2-11.46.23-1.33.42-2.37.56-3.12.06-.33.12-.59.16-.8a1.24,1.24,0,0,1,.07-.28,1.17,1.17,0,0,1,0,.28c0,.22-.06.49-.11.82-.11.75-.27,1.8-.46,3.13-.44,2.75-1.06,6.67-1.82,11.49-1.58,9.74-3.76,23.12-6.17,37.9-.56,3.33-1.09,6.59-1.61,9.73l0,.25-.26,0-31.3-5-9.22-1.53-2.48-.43-.64-.13Z" style="fill: rgb(38, 50, 56); transform-origin: 241.274px 445.96px;" id="eldovo4lsjse6" class="animable"></path><path d="M320.14,438.26c0,3.26-2.36,5.9-5.27,5.9s-5.26-2.64-5.26-5.9,2.36-5.9,5.26-5.9S320.14,435,320.14,438.26Z" style="fill: rgb(250, 250, 250); transform-origin: 314.875px 438.26px;" id="el1akeahnea43" class="animable"></path><path d="M196.77,274.7c2.12,3.13,4.26,6.31,5.44,9.9s1.31,7.7-.53,11c-1.53,2.74-4.34,4.89-4.82,8-.8,5.29,5.55,9.21,6,14.54.26,3-1.47,5.88-3.44,8.21s-4.27,4.45-5.55,7.22S192.66,340,195,342c-2.92-.82-5.95,2.28-8.83,1.32-2.45-.81-3.1-3.91-3.34-6.48a6.19,6.19,0,0,0-1.09,5.49,15.31,15.31,0,0,1-2.5-17.54C181,321.52,184,318.64,184,315c-.05-4-3.8-7-4.85-10.93-.73-2.66-.13-5.49.67-8.13s1.82-5.27,1.93-8-.14-3.86-2.5-5.28" style="fill: rgb(38, 50, 56); transform-origin: 190.312px 309.103px;" id="ele1y9dfei3un" class="animable"></path><path d="M189.42,341.39l-.22,0a2.67,2.67,0,0,1-.62-.2,4.27,4.27,0,0,1-1.9-1.64,6.56,6.56,0,0,1-1.05-3.83,9.68,9.68,0,0,1,1.83-4.94c1.07-1.64,2.57-3.19,3.95-5s2.72-3.94,2.72-6.46-1.37-4.95-2.92-7.23-3.36-4.71-3.91-7.75a7.09,7.09,0,0,1,.64-4.43,14.51,14.51,0,0,1,2.61-3.45,30.35,30.35,0,0,0,2.72-3,7.93,7.93,0,0,0,1.57-3.45,5,5,0,0,0-.78-3.43,23.44,23.44,0,0,0-2.17-2.75,11.08,11.08,0,0,1-2.71-5.77,10.38,10.38,0,0,1,.58-5.23,10.73,10.73,0,0,1,2.11-3.38,10,10,0,0,1,1.92-1.62,6.33,6.33,0,0,1,.56-.33q.19-.1.21-.09a13.15,13.15,0,0,0-2.54,2.18,10.68,10.68,0,0,0-2,3.34,10.21,10.21,0,0,0-.49,5.08,10.64,10.64,0,0,0,2.67,5.54,24.56,24.56,0,0,1,2.23,2.79,5.48,5.48,0,0,1,.86,3.73,8.38,8.38,0,0,1-1.64,3.68,28.66,28.66,0,0,1-2.75,3.09,14.39,14.39,0,0,0-2.52,3.33,6.51,6.51,0,0,0-.58,4.11c.51,2.87,2.26,5.26,3.82,7.56a24.44,24.44,0,0,1,2.07,3.6,9.62,9.62,0,0,1,.9,3.91,8.69,8.69,0,0,1-.92,3.71,17.31,17.31,0,0,1-1.93,3c-1.43,1.8-2.92,3.32-4,4.92a9.45,9.45,0,0,0-1.84,4.74,6.5,6.5,0,0,0,.93,3.71,4.44,4.44,0,0,0,1.77,1.66C189.12,341.31,189.43,341.35,189.42,341.39Z" style="fill: rgb(69, 90, 100); transform-origin: 190.481px 304.4px;" id="elgna40ao97jj" class="animable"></path><path d="M259.58,432.65c-2.88-2.59.36-5.62-4.86-10.55-3.9-3.67-11.29-10-25.6-14.76l-9,16,15.6,5-.15,10.17a3.72,3.72,0,0,0,3.77,3.78l8.1-.1s-2.37,10-2,10.6a2.14,2.14,0,0,0,3.82-.41c.32-1.34,7-17.48,7-17.48s4.36,3.76,5,1.61C261.28,436.56,262.47,435.25,259.58,432.65Z" style="fill: rgb(183, 136, 118); transform-origin: 240.82px 430.564px;" id="elztigwged69" class="animable"></path><path d="M237.8,442.58c0-.05.37-.3.91-.83a6.58,6.58,0,0,0,1.54-2.45,6.49,6.49,0,0,0,.31-2.88c-.09-.74-.26-1.19-.2-1.22a2.46,2.46,0,0,1,.48,1.18,5.8,5.8,0,0,1-.22,3.05A5.91,5.91,0,0,1,238.9,442,2.46,2.46,0,0,1,237.8,442.58Z" style="fill: rgb(170, 101, 80); transform-origin: 239.375px 438.89px;" id="eldvqgnrfupnc" class="animable"></path><path d="M243,442.25a11.39,11.39,0,0,0,1.56-3.13,11.24,11.24,0,0,0,.14-3.49,2.19,2.19,0,0,1,.35,1,6.2,6.2,0,0,1-1.26,4.89C243.37,442.05,243,442.28,243,442.25Z" style="fill: rgb(170, 101, 80); transform-origin: 244.068px 438.941px;" id="elq7ef846yv99" class="animable"></path><path d="M249.28,436.39c.05,0,.15.32.16.88a5.21,5.21,0,0,1-.43,2.11,5.3,5.3,0,0,1-1.22,1.77c-.41.38-.72.53-.75.49a12.43,12.43,0,0,0,1.61-2.41A12,12,0,0,0,249.28,436.39Z" style="fill: rgb(170, 101, 80); transform-origin: 248.24px 439.018px;" id="eloi8t3euso3r" class="animable"></path></g><g id="freepik--Plant--inject-23" class="animable" style="transform-origin: 434.426px 374.48px;"><path d="M461.61,389.62c.9-3.12,2.82-6.13,5.8-7.42s6.69-.57,9.86.58,6.29,2.69,9.65,2.9,7.17-1.39,8.18-4.61c.95-3-.88-6.25-3.16-8.45a20,20,0,0,0-32.7,7.85" style="fill: rgb(197, 63, 63); transform-origin: 477.298px 378.347px;" id="el9h5ucs2mrep" class="animable"></path><g id="elrm76hcevyx8"><g style="opacity: 0.5; transform-origin: 477.298px 378.347px;" class="animable"><path d="M461.61,389.62c.9-3.12,2.82-6.13,5.8-7.42s6.69-.57,9.86.58,6.29,2.69,9.65,2.9,7.17-1.39,8.18-4.61c.95-3-.88-6.25-3.16-8.45a20,20,0,0,0-32.7,7.85" id="elisa5cbur3de" class="animable" style="transform-origin: 477.298px 378.347px;"></path></g></g><path d="M434.93,403.14c-4.94-4.69-4.7-12.86-2.23-19.21s7.84-11.24,13.85-14.45a43.86,43.86,0,0,1,38.23-1.24,18.14,18.14,0,0,0-14.67,8.61c-2.71,4.5-3.31,10-5.55,14.71a23.14,23.14,0,0,1-29.63,11.58" style="fill: rgb(197, 63, 63); transform-origin: 457.883px 384.643px;" id="elzct11jq4ku" class="animable"></path><path d="M432.55,374.94c-5.47-6.45-6.2-16.82-5.39-25.24s2.76-16.9,1.43-25.26c-.79-4.95-2.71-9.68-3.36-14.65s.27-10.6,4.12-13.8c4.43-3.69,11.4-2.82,16,.64s7.27,8.9,9.22,14.33c4.29,11.91,5.86,25.12,2.34,37.28s-11.78,23-23.89,26.7" style="fill: rgb(197, 63, 63); transform-origin: 441.943px 334.27px;" id="eldz3g7njuhrg" class="animable"></path><path d="M429.93,427.92a3.2,3.2,0,0,1,0-.74c0-.49,0-1.21,0-2.13.07-1.86.24-4.53.66-7.82a106.44,106.44,0,0,1,2.1-11.46,52.82,52.82,0,0,1,5.23-13.26,55.15,55.15,0,0,1,8.54-11.41,54.33,54.33,0,0,1,8.95-7.45c1.37-.94,2.69-1.66,3.83-2.32s2.18-1.12,3-1.52l2-.83a5.74,5.74,0,0,1,.7-.26,4.9,4.9,0,0,1-.66.34l-1.93.91c-.82.42-1.82.95-3,1.58s-2.42,1.41-3.77,2.37a56.36,56.36,0,0,0-17.28,18.82c-5,8.79-6.4,18-7.4,24.53-.46,3.27-.68,5.94-.81,7.79l-.12,2.12A5.31,5.31,0,0,1,429.93,427.92Z" style="fill: rgb(38, 50, 56); transform-origin: 447.424px 398.32px;" id="eloihzf0ktblh" class="animable"></path><path d="M382.74,349.47c-10.12,6.11-10.09,11.67-8.4,16.91s7.91,8.89,13.06,6.93c2.91-1.11,5-3.64,6.82-6.18s3.49-5.27,6-7.09,6.19-2.53,8.72-.72" style="fill: rgb(197, 63, 63); transform-origin: 391.218px 361.659px;" id="elxaimbzetpk" class="animable"></path><g id="ele0d0gra64xu"><g style="opacity: 0.5; transform-origin: 391.218px 361.659px;" class="animable"><path d="M382.74,349.47c-10.12,6.11-10.09,11.67-8.4,16.91s7.91,8.89,13.06,6.93c2.91-1.11,5-3.64,6.82-6.18s3.49-5.27,6-7.09,6.19-2.53,8.72-.72" id="elagl4me6j84c" class="animable" style="transform-origin: 391.218px 361.659px;"></path></g></g><path d="M375.17,356.17c2.64-3.66,9.18-4.72,13.31-2.89s7.15,5.44,9.86,9.05,5.34,7.43,9.09,9.94,9,3.42,12.72.89a10.91,10.91,0,0,0,4.32-7.48,24.83,24.83,0,0,0-.59-8.83c-.89-4.24-2.35-8.67-5.75-11.37-3.79-3-9-3.15-13.87-3-5.54.18-11.17.6-16.37,2.52s-10.52,6.07-12.72,11.16" style="fill: rgb(197, 63, 63); transform-origin: 399.898px 358.553px;" id="eltwdpa91eu3r" class="animable"></path><path d="M421.51,419.82s0-.08,0-.22l0-.66c0-.61-.05-1.45-.08-2.51-.07-2.22-.16-5.36-.27-9.24s-.28-8.54-.56-13.69-.67-10.81-1.45-16.7a54.63,54.63,0,0,0-1.68-8.48,43.91,43.91,0,0,0-3.1-7.42,42,42,0,0,0-3.92-6.14,38.9,38.9,0,0,0-4.27-4.69,31.49,31.49,0,0,0-7.57-5.17c-.5-.22-.93-.45-1.32-.6l-1-.39-.61-.24-.2-.1.21.05.63.21,1,.34c.4.15.84.36,1.34.57a30.32,30.32,0,0,1,7.72,5.09,39.34,39.34,0,0,1,4.35,4.7,43.43,43.43,0,0,1,4,6.17,44.09,44.09,0,0,1,3.15,7.49,53,53,0,0,1,1.7,8.55c.79,5.92,1.16,11.59,1.42,16.74s.39,9.8.47,13.7.11,7.07.12,9.25v2.51c0,.27,0,.48,0,.66A.57.57,0,0,1,421.51,419.82Z" style="fill: rgb(38, 50, 56); transform-origin: 408.535px 381.695px;" id="elrhsvz7gn46" class="animable"></path><path d="M425.16,424.39a28.46,28.46,0,0,1-1.11-4.34,45.51,45.51,0,0,1-.47-12.22,81.8,81.8,0,0,1,3.86-17.71c2.08-6.51,4.9-13.48,7.31-21a96.13,96.13,0,0,0,2.9-11.09,99.4,99.4,0,0,0,1.44-10.58,157.47,157.47,0,0,0,.32-18.1c-.17-5.15-.45-9.32-.62-12.2-.08-1.42-.15-2.53-.19-3.31,0-.37,0-.65-.05-.87a1.29,1.29,0,0,1,0-.29,2.8,2.8,0,0,1,0,.29c0,.22,0,.5.09.86.06.78.16,1.89.28,3.31.22,2.88.54,7,.76,12.2a147.9,147.9,0,0,1-.23,18.14,90.18,90.18,0,0,1-4.32,21.78c-2.42,7.51-5.25,14.46-7.34,20.95a82.36,82.36,0,0,0-3.94,17.61,47.16,47.16,0,0,0,.32,12.16c.25,1.41.48,2.51.68,3.24.08.35.15.63.2.84Z" style="fill: rgb(38, 50, 56); transform-origin: 431.612px 368.535px;" id="elitxo9ssuzm" class="animable"></path><polygon points="450.25 428.97 402.73 428.97 401.64 419.82 450.25 419.82 450.25 428.97" style="fill: rgb(69, 90, 100); transform-origin: 425.945px 424.395px;" id="elbrkhykqvqq9" class="animable"></polygon><polygon points="407.82 427.92 413.77 455.36 439.59 455.36 445.15 427.92 407.82 427.92" style="fill: rgb(69, 90, 100); transform-origin: 426.485px 441.64px;" id="el7xcup7ua9xh" class="animable"></polygon><path d="M450.25,429c0,.12-10.45.19-23.34.16s-23.33-.17-23.33-.3,10.44-.19,23.33-.16S450.25,428.84,450.25,429Z" style="fill: rgb(69, 90, 100); transform-origin: 426.915px 428.93px;" id="elgo1fbg0pu2v" class="animable"></path><path d="M442.09,442.51a19.55,19.55,0,0,0-4.18-2.4,14.68,14.68,0,0,0-5.09-1,17.61,17.61,0,0,0-6.26,1.15c-2.17.73-4.19,1.58-6.16,2.05a14.46,14.46,0,0,1-5.32.16,10.83,10.83,0,0,1-3.42-1.08,6.13,6.13,0,0,1-.83-.53,1.22,1.22,0,0,1-.26-.22s.41.24,1.17.59a11.74,11.74,0,0,0,3.38.92,14.85,14.85,0,0,0,5.19-.25c1.9-.47,3.92-1.33,6.11-2.07a17.74,17.74,0,0,1,6.41-1.14,14.58,14.58,0,0,1,5.2,1.14,13.79,13.79,0,0,1,3.09,1.81,7.4,7.4,0,0,1,.74.64C442,442.41,442.1,442.5,442.09,442.51Z" style="fill: rgb(38, 50, 56); transform-origin: 426.33px 440.666px;" id="eltijsheo7txd" class="animable"></path><path d="M441.73,444.34a20.29,20.29,0,0,0-4-2.37,13.9,13.9,0,0,0-4.91-1,17.74,17.74,0,0,0-6.05,1.09c-2.09.7-4.06,1.51-5.93,2a15.27,15.27,0,0,1-5.12.57,8.74,8.74,0,0,1-3.35-.89,6.8,6.8,0,0,1-.8-.51c-.17-.13-.26-.2-.25-.22s.39.23,1.12.57a9.3,9.3,0,0,0,3.3.73,15.5,15.5,0,0,0,5-.65c1.84-.52,3.79-1.34,5.91-2.05a17.46,17.46,0,0,1,6.2-1.07,13.43,13.43,0,0,1,5,1.13,13.11,13.11,0,0,1,3,1.8,6.59,6.59,0,0,1,.71.62C441.66,444.25,441.74,444.33,441.73,444.34Z" style="fill: rgb(255, 255, 255); transform-origin: 426.525px 442.598px;" id="elvl0xvo0e8zm" class="animable"></path><path d="M442.56,440.69a22.94,22.94,0,0,0-4.3-2.53,15.75,15.75,0,0,0-5.21-1.26,17,17,0,0,0-6.46,1.14,58.18,58.18,0,0,1-6.38,2.08,16,16,0,0,1-5.49,0,12.56,12.56,0,0,1-3.53-1.11,6.41,6.41,0,0,1-.86-.54c-.19-.13-.28-.21-.27-.23s.42.25,1.2.61a14,14,0,0,0,3.51,1,16.61,16.61,0,0,0,5.37-.11,63.74,63.74,0,0,0,6.31-2.1,16.81,16.81,0,0,1,6.62-1.12,15.49,15.49,0,0,1,5.32,1.37,15.79,15.79,0,0,1,3.17,1.91,7.93,7.93,0,0,1,.76.66C442.49,440.59,442.57,440.68,442.56,440.69Z" style="fill: rgb(255, 255, 255); transform-origin: 426.31px 438.6px;" id="ellx4ftf5es" class="animable"></path><path d="M450.67,429c0,.13-10.69.23-23.88.23s-23.87-.1-23.87-.23,10.69-.22,23.87-.22S450.67,428.88,450.67,429Z" style="fill: rgb(38, 50, 56); transform-origin: 426.795px 429.005px;" id="eljdav97b7c2" class="animable"></path></g><defs>     <filter id="active" height="200%">         <feMorphology in="SourceAlpha" result="DILATED" operator="dilate" radius="2"></feMorphology>                <feFlood flood-color="#32DFEC" flood-opacity="1" result="PINK"></feFlood>        <feComposite in="PINK" in2="DILATED" operator="in" result="OUTLINE"></feComposite>        <feMerge>            <feMergeNode in="OUTLINE"></feMergeNode>            <feMergeNode in="SourceGraphic"></feMergeNode>        </feMerge>    </filter>    <filter id="hover" height="200%">        <feMorphology in="SourceAlpha" result="DILATED" operator="dilate" radius="2"></feMorphology>                <feFlood flood-color="#ff0000" flood-opacity="0.5" result="PINK"></feFlood>        <feComposite in="PINK" in2="DILATED" operator="in" result="OUTLINE"></feComposite>        <feMerge>            <feMergeNode in="OUTLINE"></feMergeNode>            <feMergeNode in="SourceGraphic"></feMergeNode>        </feMerge>            <feColorMatrix type="matrix" values="0   0   0   0   0                0   1   0   0   0                0   0   0   0   0                0   0   0   1   0 "></feColorMatrix>    </filter></defs></svg>