<svg width="136" height="73" viewBox="0 0 136 73" fill="none" xmlns="http://www.w3.org/2000/svg">
<path d="M7.88636 8.36364H9.43182L10.7273 10.0682L11.0682 10.5227L13 13.0909H11.4545L10.1818 11.3864L9.86364 10.9545L7.88636 8.36364ZM13.4773 6.18182C13.4773 7.40909 13.2557 8.4697 12.8125 9.36364C12.3693 10.2576 11.7614 10.947 10.9886 11.4318C10.2159 11.9167 9.33333 12.1591 8.34091 12.1591C7.34849 12.1591 6.46591 11.9167 5.69318 11.4318C4.92045 10.947 4.3125 10.2576 3.86932 9.36364C3.42614 8.4697 3.20455 7.40909 3.20455 6.18182C3.20455 4.95455 3.42614 3.89394 3.86932 3C4.3125 2.10606 4.92045 1.41667 5.69318 0.931818C6.46591 0.446969 7.34849 0.204545 8.34091 0.204545C9.33333 0.204545 10.2159 0.446969 10.9886 0.931818C11.7614 1.41667 12.3693 2.10606 12.8125 3C13.2557 3.89394 13.4773 4.95455 13.4773 6.18182ZM12.1136 6.18182C12.1136 5.17424 11.9451 4.32386 11.608 3.63068C11.2746 2.9375 10.822 2.41288 10.25 2.05682C9.68182 1.70076 9.04545 1.52273 8.34091 1.52273C7.63636 1.52273 6.99811 1.70076 6.42614 2.05682C5.85795 2.41288 5.4053 2.9375 5.06818 3.63068C4.73485 4.32386 4.56818 5.17424 4.56818 6.18182C4.56818 7.18939 4.73485 8.03977 5.06818 8.73295C5.4053 9.42614 5.85795 9.95076 6.42614 10.3068C6.99811 10.6629 7.63636 10.8409 8.34091 10.8409C9.04545 10.8409 9.68182 10.6629 10.25 10.3068C10.822 9.95076 11.2746 9.42614 11.608 8.73295C11.9451 8.03977 12.1136 7.18939 12.1136 6.18182ZM21.1648 8.43182V3.27273H22.5057V12H21.1648V10.5227H21.0739C20.8693 10.9659 20.5511 11.3428 20.1193 11.6534C19.6875 11.9602 19.142 12.1136 18.483 12.1136C17.9375 12.1136 17.4527 11.9943 17.0284 11.7557C16.6042 11.5133 16.2708 11.1496 16.0284 10.6648C15.786 10.1761 15.6648 9.56061 15.6648 8.81818V3.27273H17.0057V8.72727C17.0057 9.36364 17.1837 9.87121 17.5398 10.25C17.8996 10.6288 18.358 10.8182 18.9148 10.8182C19.2481 10.8182 19.5871 10.733 19.9318 10.5625C20.2803 10.392 20.572 10.1307 20.8068 9.77841C21.0455 9.42614 21.1648 8.97727 21.1648 8.43182ZM28.6207 12.1818C27.7798 12.1818 27.0545 11.9962 26.4446 11.625C25.8385 11.25 25.3707 10.7273 25.0412 10.0568C24.7154 9.38258 24.5526 8.59848 24.5526 7.70455C24.5526 6.81061 24.7154 6.02273 25.0412 5.34091C25.3707 4.6553 25.8291 4.12121 26.4162 3.73864C27.0071 3.35227 27.6965 3.15909 28.4844 3.15909C28.9389 3.15909 29.3878 3.23485 29.831 3.38636C30.2741 3.53788 30.6776 3.78409 31.0412 4.125C31.4048 4.46212 31.6946 4.90909 31.9105 5.46591C32.1264 6.02273 32.2344 6.70833 32.2344 7.52273V8.09091H25.5071V6.93182H30.8707C30.8707 6.43939 30.7723 6 30.5753 5.61364C30.3821 5.22727 30.1056 4.92235 29.7457 4.69886C29.3897 4.47538 28.9692 4.36364 28.4844 4.36364C27.9503 4.36364 27.4882 4.49621 27.098 4.76136C26.7116 5.02273 26.4143 5.36364 26.206 5.78409C25.9976 6.20455 25.8935 6.6553 25.8935 7.13636V7.90909C25.8935 8.56818 26.0071 9.12689 26.2344 9.58523C26.4654 10.0398 26.7855 10.3864 27.1946 10.625C27.6037 10.8598 28.0791 10.9773 28.6207 10.9773C28.973 10.9773 29.2912 10.928 29.5753 10.8295C29.8632 10.7273 30.1113 10.5758 30.3196 10.375C30.5279 10.1705 30.6889 9.91667 30.8026 9.61364L32.098 9.97727C31.9616 10.4167 31.7325 10.803 31.4105 11.1364C31.0885 11.4659 30.6908 11.7235 30.2173 11.9091C29.7438 12.0909 29.2116 12.1818 28.6207 12.1818ZM34.2741 12V3.27273H35.5696V4.59091H35.6605C35.8196 4.15909 36.1075 3.80871 36.5241 3.53977C36.9408 3.27083 37.4105 3.13636 37.9332 3.13636C38.0317 3.13636 38.1548 3.13826 38.3026 3.14205C38.4503 3.14583 38.562 3.15152 38.6378 3.15909V4.52273C38.5923 4.51136 38.4882 4.49432 38.3253 4.47159C38.1662 4.44508 37.9976 4.43182 37.8196 4.43182C37.3954 4.43182 37.0166 4.52083 36.6832 4.69886C36.3537 4.87311 36.0923 5.11553 35.8991 5.42614C35.7098 5.73295 35.6151 6.08333 35.6151 6.47727V12H34.2741ZM47.2955 12.2045C46.7424 12.2045 46.2405 12.1004 45.7898 11.892C45.339 11.6799 44.9811 11.375 44.7159 10.9773C44.4508 10.5758 44.3182 10.0909 44.3182 9.52273C44.3182 9.02273 44.4167 8.61742 44.6136 8.30682C44.8106 7.99242 45.0739 7.74621 45.4034 7.56818C45.733 7.39015 46.0966 7.25758 46.4943 7.17045C46.8958 7.07955 47.2992 7.00758 47.7045 6.95455C48.2348 6.88636 48.6648 6.83523 48.9943 6.80114C49.3277 6.76326 49.5701 6.70076 49.7216 6.61364C49.8769 6.52652 49.9545 6.375 49.9545 6.15909V6.11364C49.9545 5.55303 49.8011 5.11742 49.4943 4.80682C49.1913 4.49621 48.7311 4.34091 48.1136 4.34091C47.4735 4.34091 46.9716 4.48106 46.608 4.76136C46.2443 5.04167 45.9886 5.34091 45.8409 5.65909L44.5682 5.20455C44.7955 4.67424 45.0985 4.26136 45.4773 3.96591C45.8598 3.66667 46.2765 3.45833 46.7273 3.34091C47.1818 3.2197 47.6288 3.15909 48.0682 3.15909C48.3485 3.15909 48.6705 3.19318 49.0341 3.26136C49.4015 3.32576 49.7557 3.46023 50.0966 3.66477C50.4413 3.86932 50.7273 4.17803 50.9545 4.59091C51.1818 5.00379 51.2955 5.55682 51.2955 6.25V12H49.9545V10.8182H49.8864C49.7955 11.0076 49.6439 11.2102 49.4318 11.4261C49.2197 11.642 48.9375 11.8258 48.5852 11.9773C48.233 12.1288 47.803 12.2045 47.2955 12.2045ZM47.5 11C48.0303 11 48.4773 10.8958 48.8409 10.6875C49.2083 10.4792 49.4848 10.2102 49.6705 9.88068C49.8598 9.55114 49.9545 9.20455 49.9545 8.84091V7.61364C49.8977 7.68182 49.7727 7.74432 49.5795 7.80114C49.3902 7.85417 49.1705 7.90151 48.9205 7.94318C48.6742 7.98106 48.4337 8.01515 48.1989 8.04545C47.9678 8.07197 47.7803 8.0947 47.6364 8.11364C47.2879 8.15909 46.9621 8.23295 46.6591 8.33523C46.3598 8.43371 46.1174 8.58333 45.9318 8.78409C45.75 8.98106 45.6591 9.25 45.6591 9.59091C45.6591 10.0568 45.8314 10.4091 46.1761 10.6477C46.5246 10.8826 46.9659 11 47.5 11ZM59.9247 5.22727L58.7202 5.56818C58.6444 5.36742 58.5327 5.17235 58.3849 4.98295C58.241 4.78977 58.044 4.63068 57.794 4.50568C57.544 4.38068 57.224 4.31818 56.8338 4.31818C56.2997 4.31818 55.8546 4.44129 55.4986 4.6875C55.1463 4.92992 54.9702 5.23864 54.9702 5.61364C54.9702 5.94697 55.0914 6.21023 55.3338 6.40341C55.5762 6.59659 55.955 6.75758 56.4702 6.88636L57.7656 7.20455C58.5459 7.39394 59.1274 7.68371 59.5099 8.07386C59.8925 8.46023 60.0838 8.95833 60.0838 9.56818C60.0838 10.0682 59.9399 10.5152 59.652 10.9091C59.3679 11.303 58.9702 11.6136 58.4588 11.8409C57.9474 12.0682 57.3527 12.1818 56.6747 12.1818C55.7846 12.1818 55.0478 11.9886 54.4645 11.6023C53.8812 11.2159 53.5118 10.6515 53.3565 9.90909L54.6293 9.59091C54.7505 10.0606 54.9796 10.4129 55.3168 10.6477C55.6577 10.8826 56.1027 11 56.652 11C57.277 11 57.7732 10.8674 58.1406 10.6023C58.5118 10.3333 58.6974 10.0114 58.6974 9.63636C58.6974 9.33333 58.5914 9.07955 58.3793 8.875C58.1671 8.66667 57.8414 8.51136 57.402 8.40909L55.9474 8.06818C55.1482 7.87879 54.5611 7.58523 54.1861 7.1875C53.8149 6.78598 53.6293 6.28409 53.6293 5.68182C53.6293 5.18939 53.7675 4.75379 54.044 4.375C54.3243 3.99621 54.705 3.69886 55.1861 3.48295C55.6709 3.26705 56.2202 3.15909 56.8338 3.15909C57.6974 3.15909 58.3755 3.34848 58.8679 3.72727C59.3641 4.10606 59.7164 4.60606 59.9247 5.22727ZM66.6023 12V3.27273H67.8977V4.63636H68.0114C68.1932 4.17045 68.4867 3.80871 68.892 3.55114C69.2973 3.28977 69.7841 3.15909 70.3523 3.15909C70.928 3.15909 71.4072 3.28977 71.7898 3.55114C72.1761 3.80871 72.4773 4.17045 72.6932 4.63636H72.7841C73.0076 4.18561 73.3428 3.82765 73.7898 3.5625C74.2367 3.29356 74.7727 3.15909 75.3977 3.15909C76.178 3.15909 76.8163 3.40341 77.3125 3.89205C77.8087 4.37689 78.0568 5.13258 78.0568 6.15909V12H76.7159V6.15909C76.7159 5.51515 76.5398 5.05492 76.1875 4.77841C75.8352 4.50189 75.4205 4.36364 74.9432 4.36364C74.3295 4.36364 73.8542 4.54924 73.517 4.92045C73.1799 5.28788 73.0114 5.75379 73.0114 6.31818V12H71.6477V6.02273C71.6477 5.52652 71.4867 5.12689 71.1648 4.82386C70.8428 4.51705 70.428 4.36364 69.9205 4.36364C69.572 4.36364 69.2462 4.45644 68.9432 4.64205C68.6439 4.82765 68.4015 5.08523 68.2159 5.41477C68.0341 5.74053 67.9432 6.11742 67.9432 6.54545V12H66.6023ZM84.1676 12.1818C83.3267 12.1818 82.6013 11.9962 81.9915 11.625C81.3854 11.25 80.9176 10.7273 80.5881 10.0568C80.2623 9.38258 80.0994 8.59848 80.0994 7.70455C80.0994 6.81061 80.2623 6.02273 80.5881 5.34091C80.9176 4.6553 81.3759 4.12121 81.9631 3.73864C82.554 3.35227 83.2434 3.15909 84.0312 3.15909C84.4858 3.15909 84.9347 3.23485 85.3778 3.38636C85.821 3.53788 86.2244 3.78409 86.5881 4.125C86.9517 4.46212 87.2415 4.90909 87.4574 5.46591C87.6733 6.02273 87.7812 6.70833 87.7812 7.52273V8.09091H81.054V6.93182H86.4176C86.4176 6.43939 86.3191 6 86.1222 5.61364C85.929 5.22727 85.6525 4.92235 85.2926 4.69886C84.9366 4.47538 84.5161 4.36364 84.0312 4.36364C83.4972 4.36364 83.035 4.49621 82.6449 4.76136C82.2585 5.02273 81.9612 5.36364 81.7528 5.78409C81.5445 6.20455 81.4403 6.6553 81.4403 7.13636V7.90909C81.4403 8.56818 81.554 9.12689 81.7812 9.58523C82.0123 10.0398 82.3324 10.3864 82.7415 10.625C83.1506 10.8598 83.6259 10.9773 84.1676 10.9773C84.5199 10.9773 84.8381 10.928 85.1222 10.8295C85.41 10.7273 85.6581 10.5758 85.8665 10.375C86.0748 10.1705 86.2358 9.91667 86.3494 9.61364L87.6449 9.97727C87.5085 10.4167 87.2794 10.803 86.9574 11.1364C86.6354 11.4659 86.2377 11.7235 85.7642 11.9091C85.2907 12.0909 84.7585 12.1818 84.1676 12.1818ZM91.1619 0.363636V12H89.821V0.363636H91.1619ZM94.9588 6.75V12H93.6179V0.363636H94.9588V4.63636H95.0724C95.277 4.18561 95.5838 3.82765 95.9929 3.5625C96.4058 3.29356 96.955 3.15909 97.6406 3.15909C98.2353 3.15909 98.7562 3.27841 99.2031 3.51705C99.6501 3.75189 99.9967 4.11364 100.243 4.60227C100.493 5.08712 100.618 5.70455 100.618 6.45455V12H99.277V6.54545C99.277 5.85227 99.0971 5.31629 98.7372 4.9375C98.3812 4.55492 97.8868 4.36364 97.2543 4.36364C96.8149 4.36364 96.4209 4.45644 96.0724 4.64205C95.7277 4.82765 95.455 5.09848 95.2543 5.45455C95.0573 5.81061 94.9588 6.24242 94.9588 6.75ZM106.616 12.1818C105.829 12.1818 105.137 11.9943 104.543 11.6193C103.952 11.2443 103.49 10.7197 103.156 10.0455C102.827 9.37121 102.662 8.58333 102.662 7.68182C102.662 6.77273 102.827 5.97917 103.156 5.30114C103.49 4.62311 103.952 4.09659 104.543 3.72159C105.137 3.34659 105.829 3.15909 106.616 3.15909C107.404 3.15909 108.094 3.34659 108.685 3.72159C109.279 4.09659 109.741 4.62311 110.071 5.30114C110.404 5.97917 110.571 6.77273 110.571 7.68182C110.571 8.58333 110.404 9.37121 110.071 10.0455C109.741 10.7197 109.279 11.2443 108.685 11.6193C108.094 11.9943 107.404 12.1818 106.616 12.1818ZM106.616 10.9773C107.215 10.9773 107.707 10.8239 108.094 10.517C108.48 10.2102 108.766 9.80682 108.952 9.30682C109.137 8.80682 109.23 8.26515 109.23 7.68182C109.23 7.09848 109.137 6.55492 108.952 6.05114C108.766 5.54735 108.48 5.14015 108.094 4.82955C107.707 4.51894 107.215 4.36364 106.616 4.36364C106.018 4.36364 105.526 4.51894 105.139 4.82955C104.753 5.14015 104.467 5.54735 104.281 6.05114C104.096 6.55492 104.003 7.09848 104.003 7.68182C104.003 8.26515 104.096 8.80682 104.281 9.30682C104.467 9.80682 104.753 10.2102 105.139 10.517C105.526 10.8239 106.018 10.9773 106.616 10.9773ZM112.618 12V3.27273H113.913V4.59091H114.004C114.163 4.15909 114.451 3.80871 114.868 3.53977C115.285 3.27083 115.754 3.13636 116.277 3.13636C116.375 3.13636 116.499 3.13826 116.646 3.14205C116.794 3.14583 116.906 3.15152 116.982 3.15909V4.52273C116.936 4.51136 116.832 4.49432 116.669 4.47159C116.51 4.44508 116.341 4.43182 116.163 4.43182C115.739 4.43182 115.36 4.52083 115.027 4.69886C114.697 4.87311 114.436 5.11553 114.243 5.42614C114.054 5.73295 113.959 6.08333 113.959 6.47727V12H112.618ZM121.964 12.1818C121.124 12.1818 120.398 11.9962 119.788 11.625C119.182 11.25 118.714 10.7273 118.385 10.0568C118.059 9.38258 117.896 8.59848 117.896 7.70455C117.896 6.81061 118.059 6.02273 118.385 5.34091C118.714 4.6553 119.173 4.12121 119.76 3.73864C120.351 3.35227 121.04 3.15909 121.828 3.15909C122.283 3.15909 122.732 3.23485 123.175 3.38636C123.618 3.53788 124.021 3.78409 124.385 4.125C124.749 4.46212 125.038 4.90909 125.254 5.46591C125.47 6.02273 125.578 6.70833 125.578 7.52273V8.09091H118.851V6.93182H124.214C124.214 6.43939 124.116 6 123.919 5.61364C123.726 5.22727 123.449 4.92235 123.089 4.69886C122.733 4.47538 122.313 4.36364 121.828 4.36364C121.294 4.36364 120.832 4.49621 120.442 4.76136C120.055 5.02273 119.758 5.36364 119.55 5.78409C119.341 6.20455 119.237 6.6553 119.237 7.13636V7.90909C119.237 8.56818 119.351 9.12689 119.578 9.58523C119.809 10.0398 120.129 10.3864 120.538 10.625C120.947 10.8598 121.423 10.9773 121.964 10.9773C122.317 10.9773 122.635 10.928 122.919 10.8295C123.207 10.7273 123.455 10.5758 123.663 10.375C123.872 10.1705 124.033 9.91667 124.146 9.61364L125.442 9.97727C125.305 10.4167 125.076 10.803 124.754 11.1364C124.432 11.4659 124.035 11.7235 123.561 11.9091C123.088 12.0909 122.555 12.1818 121.964 12.1818ZM133.8 5.22727L132.595 5.56818C132.519 5.36742 132.408 5.17235 132.26 4.98295C132.116 4.78977 131.919 4.63068 131.669 4.50568C131.419 4.38068 131.099 4.31818 130.709 4.31818C130.175 4.31818 129.73 4.44129 129.374 4.6875C129.021 4.92992 128.845 5.23864 128.845 5.61364C128.845 5.94697 128.966 6.21023 129.209 6.40341C129.451 6.59659 129.83 6.75758 130.345 6.88636L131.641 7.20455C132.421 7.39394 133.002 7.68371 133.385 8.07386C133.768 8.46023 133.959 8.95833 133.959 9.56818C133.959 10.0682 133.815 10.5152 133.527 10.9091C133.243 11.303 132.845 11.6136 132.334 11.8409C131.822 12.0682 131.228 12.1818 130.55 12.1818C129.66 12.1818 128.923 11.9886 128.339 11.6023C127.756 11.2159 127.387 10.6515 127.232 9.90909L128.504 9.59091C128.625 10.0606 128.855 10.4129 129.192 10.6477C129.533 10.8826 129.978 11 130.527 11C131.152 11 131.648 10.8674 132.016 10.6023C132.387 10.3333 132.572 10.0114 132.572 9.63636C132.572 9.33333 132.466 9.07955 132.254 8.875C132.042 8.66667 131.716 8.51136 131.277 8.40909L129.822 8.06818C129.023 7.87879 128.436 7.58523 128.061 7.1875C127.69 6.78598 127.504 6.28409 127.504 5.68182C127.504 5.18939 127.643 4.75379 127.919 4.375C128.199 3.99621 128.58 3.69886 129.061 3.48295C129.546 3.26705 130.095 3.15909 130.709 3.15909C131.572 3.15909 132.25 3.34848 132.743 3.72727C133.239 4.10606 133.591 4.60606 133.8 5.22727ZM8.16335 31.1818C7.43608 31.1818 6.79403 30.9981 6.23722 30.6307C5.6804 30.2595 5.24479 29.7367 4.9304 29.0625C4.616 28.3845 4.45881 27.5833 4.45881 26.6591C4.45881 25.7424 4.616 24.947 4.9304 24.2727C5.24479 23.5985 5.68229 23.0777 6.2429 22.7102C6.8035 22.3428 7.45123 22.1591 8.18608 22.1591C8.75426 22.1591 9.20313 22.2538 9.53267 22.4432C9.866 22.6288 10.1198 22.8409 10.294 23.0795C10.4721 23.3144 10.6103 23.5076 10.7088 23.6591H10.8224V19.3636H12.1634V31H10.8679V29.6591H10.7088C10.6103 29.8182 10.4702 30.0189 10.2884 30.2614C10.1065 30.5 9.84706 30.714 9.50994 30.9034C9.17282 31.089 8.72396 31.1818 8.16335 31.1818ZM8.34517 29.9773C8.88305 29.9773 9.33759 29.8371 9.70881 29.5568C10.08 29.2727 10.3622 28.8807 10.5554 28.3807C10.7486 27.8769 10.8452 27.2955 10.8452 26.6364C10.8452 25.9848 10.7505 25.4148 10.5611 24.9261C10.3717 24.4337 10.0914 24.0511 9.72017 23.7784C9.34896 23.5019 8.89063 23.3636 8.34517 23.3636C7.77699 23.3636 7.3035 23.5095 6.92472 23.8011C6.54972 24.089 6.26752 24.4811 6.07812 24.9773C5.89252 25.4697 5.79972 26.0227 5.79972 26.6364C5.79972 27.2576 5.89441 27.822 6.08381 28.3295C6.27699 28.8333 6.56108 29.2348 6.93608 29.5341C7.31487 29.8295 7.78456 29.9773 8.34517 29.9773ZM14.8054 31V22.2727H16.1463V31H14.8054ZM15.4872 20.8182C15.2259 20.8182 15.0005 20.7292 14.8111 20.5511C14.6255 20.3731 14.5327 20.1591 14.5327 19.9091C14.5327 19.6591 14.6255 19.4451 14.8111 19.267C15.0005 19.089 15.2259 19 15.4872 19C15.7486 19 15.9721 19.089 16.1577 19.267C16.3471 19.4451 16.4418 19.6591 16.4418 19.9091C16.4418 20.1591 16.3471 20.3731 16.1577 20.5511C15.9721 20.7292 15.7486 20.8182 15.4872 20.8182ZM22.1477 31.1818C21.3295 31.1818 20.625 30.9886 20.0341 30.6023C19.4432 30.2159 18.9886 29.6837 18.6705 29.0057C18.3523 28.3277 18.1932 27.553 18.1932 26.6818C18.1932 25.7955 18.3561 25.0133 18.6818 24.3352C19.0114 23.6534 19.4697 23.1212 20.0568 22.7386C20.6477 22.3523 21.3371 22.1591 22.125 22.1591C22.7386 22.1591 23.2917 22.2727 23.7841 22.5C24.2765 22.7273 24.6799 23.0455 24.9943 23.4545C25.3087 23.8636 25.5038 24.3409 25.5795 24.8864H24.2386C24.1364 24.4886 23.9091 24.1364 23.5568 23.8295C23.2083 23.5189 22.7386 23.3636 22.1477 23.3636C21.625 23.3636 21.1667 23.5 20.7727 23.7727C20.3826 24.0417 20.0777 24.4223 19.858 24.9148C19.642 25.4034 19.5341 25.9773 19.5341 26.6364C19.5341 27.3106 19.6402 27.8977 19.8523 28.3977C20.0682 28.8977 20.3712 29.286 20.7614 29.5625C21.1553 29.839 21.6174 29.9773 22.1477 29.9773C22.4962 29.9773 22.8125 29.9167 23.0966 29.7955C23.3807 29.6742 23.6212 29.5 23.8182 29.2727C24.0152 29.0455 24.1553 28.7727 24.2386 28.4545H25.5795C25.5038 28.9697 25.3163 29.4337 25.017 29.8466C24.7216 30.2557 24.3295 30.5814 23.8409 30.8239C23.3561 31.0625 22.7917 31.1818 22.1477 31.1818ZM30.108 31.2045C29.5549 31.2045 29.053 31.1004 28.6023 30.892C28.1515 30.6799 27.7936 30.375 27.5284 29.9773C27.2633 29.5758 27.1307 29.0909 27.1307 28.5227C27.1307 28.0227 27.2292 27.6174 27.4261 27.3068C27.6231 26.9924 27.8864 26.7462 28.2159 26.5682C28.5455 26.3902 28.9091 26.2576 29.3068 26.1705C29.7083 26.0795 30.1117 26.0076 30.517 25.9545C31.0473 25.8864 31.4773 25.8352 31.8068 25.8011C32.1402 25.7633 32.3826 25.7008 32.5341 25.6136C32.6894 25.5265 32.767 25.375 32.767 25.1591V25.1136C32.767 24.553 32.6136 24.1174 32.3068 23.8068C32.0038 23.4962 31.5436 23.3409 30.9261 23.3409C30.286 23.3409 29.7841 23.4811 29.4205 23.7614C29.0568 24.0417 28.8011 24.3409 28.6534 24.6591L27.3807 24.2045C27.608 23.6742 27.911 23.2614 28.2898 22.9659C28.6723 22.6667 29.089 22.4583 29.5398 22.3409C29.9943 22.2197 30.4413 22.1591 30.8807 22.1591C31.161 22.1591 31.483 22.1932 31.8466 22.2614C32.214 22.3258 32.5682 22.4602 32.9091 22.6648C33.2538 22.8693 33.5398 23.178 33.767 23.5909C33.9943 24.0038 34.108 24.5568 34.108 25.25V31H32.767V29.8182H32.6989C32.608 30.0076 32.4564 30.2102 32.2443 30.4261C32.0322 30.642 31.75 30.8258 31.3977 30.9773C31.0455 31.1288 30.6155 31.2045 30.108 31.2045ZM30.3125 30C30.8428 30 31.2898 29.8958 31.6534 29.6875C32.0208 29.4792 32.2973 29.2102 32.483 28.8807C32.6723 28.5511 32.767 28.2045 32.767 27.8409V26.6136C32.7102 26.6818 32.5852 26.7443 32.392 26.8011C32.2027 26.8542 31.983 26.9015 31.733 26.9432C31.4867 26.9811 31.2462 27.0152 31.0114 27.0455C30.7803 27.072 30.5928 27.0947 30.4489 27.1136C30.1004 27.1591 29.7746 27.233 29.4716 27.3352C29.1723 27.4337 28.9299 27.5833 28.7443 27.7841C28.5625 27.9811 28.4716 28.25 28.4716 28.5909C28.4716 29.0568 28.6439 29.4091 28.9886 29.6477C29.3371 29.8826 29.7784 30 30.3125 30ZM42.7372 24.2273L41.5327 24.5682C41.4569 24.3674 41.3452 24.1723 41.1974 23.983C41.0535 23.7898 40.8565 23.6307 40.6065 23.5057C40.3565 23.3807 40.0365 23.3182 39.6463 23.3182C39.1122 23.3182 38.6671 23.4413 38.3111 23.6875C37.9588 23.9299 37.7827 24.2386 37.7827 24.6136C37.7827 24.947 37.9039 25.2102 38.1463 25.4034C38.3887 25.5966 38.7675 25.7576 39.2827 25.8864L40.5781 26.2045C41.3584 26.3939 41.9399 26.6837 42.3224 27.0739C42.705 27.4602 42.8963 27.9583 42.8963 28.5682C42.8963 29.0682 42.7524 29.5152 42.4645 29.9091C42.1804 30.303 41.7827 30.6136 41.2713 30.8409C40.7599 31.0682 40.1652 31.1818 39.4872 31.1818C38.5971 31.1818 37.8603 30.9886 37.277 30.6023C36.6937 30.2159 36.3243 29.6515 36.169 28.9091L37.4418 28.5909C37.563 29.0606 37.7921 29.4129 38.1293 29.6477C38.4702 29.8826 38.9152 30 39.4645 30C40.0895 30 40.5857 29.8674 40.9531 29.6023C41.3243 29.3333 41.5099 29.0114 41.5099 28.6364C41.5099 28.3333 41.4039 28.0795 41.1918 27.875C40.9796 27.6667 40.6539 27.5114 40.2145 27.4091L38.7599 27.0682C37.9607 26.8788 37.3736 26.5852 36.9986 26.1875C36.6274 25.786 36.4418 25.2841 36.4418 24.6818C36.4418 24.1894 36.58 23.7538 36.8565 23.375C37.1368 22.9962 37.5175 22.6989 37.9986 22.483C38.4834 22.267 39.0327 22.1591 39.6463 22.1591C40.5099 22.1591 41.188 22.3485 41.6804 22.7273C42.1766 23.1061 42.5289 23.6061 42.7372 24.2273ZM49.4148 34.2727V22.2727H50.7102V23.6591H50.8693C50.9678 23.5076 51.1042 23.3144 51.2784 23.0795C51.4564 22.8409 51.7102 22.6288 52.0398 22.4432C52.3731 22.2538 52.8239 22.1591 53.392 22.1591C54.1269 22.1591 54.7746 22.3428 55.3352 22.7102C55.8958 23.0777 56.3333 23.5985 56.6477 24.2727C56.9621 24.947 57.1193 25.7424 57.1193 26.6591C57.1193 27.5833 56.9621 28.3845 56.6477 29.0625C56.3333 29.7367 55.8977 30.2595 55.3409 30.6307C54.7841 30.9981 54.142 31.1818 53.4148 31.1818C52.8542 31.1818 52.4053 31.089 52.0682 30.9034C51.7311 30.714 51.4716 30.5 51.2898 30.2614C51.108 30.0189 50.9678 29.8182 50.8693 29.6591H50.7557V34.2727H49.4148ZM50.733 26.6364C50.733 27.2955 50.8295 27.8769 51.0227 28.3807C51.2159 28.8807 51.4981 29.2727 51.8693 29.5568C52.2405 29.8371 52.6951 29.9773 53.233 29.9773C53.7936 29.9773 54.2614 29.8295 54.6364 29.5341C55.0152 29.2348 55.2992 28.8333 55.4886 28.3295C55.6818 27.822 55.7784 27.2576 55.7784 26.6364C55.7784 26.0227 55.6837 25.4697 55.4943 24.9773C55.3087 24.4811 55.0265 24.089 54.6477 23.8011C54.2727 23.5095 53.8011 23.3636 53.233 23.3636C52.6875 23.3636 52.2292 23.5019 51.858 23.7784C51.4867 24.0511 51.2064 24.4337 51.017 24.9261C50.8277 25.4148 50.733 25.9848 50.733 26.6364ZM61.733 31.2045C61.1799 31.2045 60.678 31.1004 60.2273 30.892C59.7765 30.6799 59.4186 30.375 59.1534 29.9773C58.8883 29.5758 58.7557 29.0909 58.7557 28.5227C58.7557 28.0227 58.8542 27.6174 59.0511 27.3068C59.2481 26.9924 59.5114 26.7462 59.8409 26.5682C60.1705 26.3902 60.5341 26.2576 60.9318 26.1705C61.3333 26.0795 61.7367 26.0076 62.142 25.9545C62.6723 25.8864 63.1023 25.8352 63.4318 25.8011C63.7652 25.7633 64.0076 25.7008 64.1591 25.6136C64.3144 25.5265 64.392 25.375 64.392 25.1591V25.1136C64.392 24.553 64.2386 24.1174 63.9318 23.8068C63.6288 23.4962 63.1686 23.3409 62.5511 23.3409C61.911 23.3409 61.4091 23.4811 61.0455 23.7614C60.6818 24.0417 60.4261 24.3409 60.2784 24.6591L59.0057 24.2045C59.233 23.6742 59.536 23.2614 59.9148 22.9659C60.2973 22.6667 60.714 22.4583 61.1648 22.3409C61.6193 22.2197 62.0663 22.1591 62.5057 22.1591C62.786 22.1591 63.108 22.1932 63.4716 22.2614C63.839 22.3258 64.1932 22.4602 64.5341 22.6648C64.8788 22.8693 65.1648 23.178 65.392 23.5909C65.6193 24.0038 65.733 24.5568 65.733 25.25V31H64.392V29.8182H64.3239C64.233 30.0076 64.0814 30.2102 63.8693 30.4261C63.6572 30.642 63.375 30.8258 63.0227 30.9773C62.6705 31.1288 62.2405 31.2045 61.733 31.2045ZM61.9375 30C62.4678 30 62.9148 29.8958 63.2784 29.6875C63.6458 29.4792 63.9223 29.2102 64.108 28.8807C64.2973 28.5511 64.392 28.2045 64.392 27.8409V26.6136C64.3352 26.6818 64.2102 26.7443 64.017 26.8011C63.8277 26.8542 63.608 26.9015 63.358 26.9432C63.1117 26.9811 62.8712 27.0152 62.6364 27.0455C62.4053 27.072 62.2178 27.0947 62.0739 27.1136C61.7254 27.1591 61.3996 27.233 61.0966 27.3352C60.7973 27.4337 60.5549 27.5833 60.3693 27.7841C60.1875 27.9811 60.0966 28.25 60.0966 28.5909C60.0966 29.0568 60.2689 29.4091 60.6136 29.6477C60.9621 29.8826 61.4034 30 61.9375 30ZM68.1804 31V22.2727H69.4759V23.5909H69.5668C69.7259 23.1591 70.0137 22.8087 70.4304 22.5398C70.8471 22.2708 71.3168 22.1364 71.8395 22.1364C71.938 22.1364 72.0611 22.1383 72.2088 22.142C72.3565 22.1458 72.4683 22.1515 72.544 22.1591V23.5227C72.4986 23.5114 72.3944 23.4943 72.2315 23.4716C72.0724 23.4451 71.9039 23.4318 71.7259 23.4318C71.3016 23.4318 70.9228 23.5208 70.5895 23.6989C70.2599 23.8731 69.9986 24.1155 69.8054 24.4261C69.616 24.733 69.5213 25.0833 69.5213 25.4773V31H68.1804ZM76.7017 31.2045C76.1487 31.2045 75.6468 31.1004 75.196 30.892C74.7453 30.6799 74.3873 30.375 74.1222 29.9773C73.857 29.5758 73.7244 29.0909 73.7244 28.5227C73.7244 28.0227 73.8229 27.6174 74.0199 27.3068C74.2169 26.9924 74.4801 26.7462 74.8097 26.5682C75.1392 26.3902 75.5028 26.2576 75.9006 26.1705C76.3021 26.0795 76.7055 26.0076 77.1108 25.9545C77.6411 25.8864 78.071 25.8352 78.4006 25.8011C78.7339 25.7633 78.9763 25.7008 79.1278 25.6136C79.2831 25.5265 79.3608 25.375 79.3608 25.1591V25.1136C79.3608 24.553 79.2074 24.1174 78.9006 23.8068C78.5975 23.4962 78.1373 23.3409 77.5199 23.3409C76.8797 23.3409 76.3778 23.4811 76.0142 23.7614C75.6506 24.0417 75.3949 24.3409 75.2472 24.6591L73.9744 24.2045C74.2017 23.6742 74.5047 23.2614 74.8835 22.9659C75.2661 22.6667 75.6828 22.4583 76.1335 22.3409C76.5881 22.2197 77.035 22.1591 77.4744 22.1591C77.7547 22.1591 78.0767 22.1932 78.4403 22.2614C78.8078 22.3258 79.1619 22.4602 79.5028 22.6648C79.8475 22.8693 80.1335 23.178 80.3608 23.5909C80.5881 24.0038 80.7017 24.5568 80.7017 25.25V31H79.3608V29.8182H79.2926C79.2017 30.0076 79.0502 30.2102 78.8381 30.4261C78.6259 30.642 78.3438 30.8258 77.9915 30.9773C77.6392 31.1288 77.2093 31.2045 76.7017 31.2045ZM76.9062 30C77.4366 30 77.8835 29.8958 78.2472 29.6875C78.6146 29.4792 78.8911 29.2102 79.0767 28.8807C79.2661 28.5511 79.3608 28.2045 79.3608 27.8409V26.6136C79.304 26.6818 79.179 26.7443 78.9858 26.8011C78.7964 26.8542 78.5767 26.9015 78.3267 26.9432C78.0805 26.9811 77.84 27.0152 77.6051 27.0455C77.3741 27.072 77.1866 27.0947 77.0426 27.1136C76.6941 27.1591 76.3684 27.233 76.0653 27.3352C75.7661 27.4337 75.5237 27.5833 75.3381 27.7841C75.1563 27.9811 75.0653 28.25 75.0653 28.5909C75.0653 29.0568 75.2377 29.4091 75.5824 29.6477C75.9309 29.8826 76.3722 30 76.9062 30ZM91.1946 31.1818C90.3764 31.1818 89.6719 30.9886 89.081 30.6023C88.4901 30.2159 88.0355 29.6837 87.7173 29.0057C87.3991 28.3277 87.2401 27.553 87.2401 26.6818C87.2401 25.7955 87.4029 25.0133 87.7287 24.3352C88.0582 23.6534 88.5166 23.1212 89.1037 22.7386C89.6946 22.3523 90.384 22.1591 91.1719 22.1591C91.7855 22.1591 92.3385 22.2727 92.831 22.5C93.3234 22.7273 93.7268 23.0455 94.0412 23.4545C94.3556 23.8636 94.5507 24.3409 94.6264 24.8864H93.2855C93.1832 24.4886 92.956 24.1364 92.6037 23.8295C92.2552 23.5189 91.7855 23.3636 91.1946 23.3636C90.6719 23.3636 90.2135 23.5 89.8196 23.7727C89.4295 24.0417 89.1245 24.4223 88.9048 24.9148C88.6889 25.4034 88.581 25.9773 88.581 26.6364C88.581 27.3106 88.687 27.8977 88.8991 28.3977C89.1151 28.8977 89.4181 29.286 89.8082 29.5625C90.2022 29.839 90.6643 29.9773 91.1946 29.9773C91.5431 29.9773 91.8594 29.9167 92.1435 29.7955C92.4276 29.6742 92.6681 29.5 92.8651 29.2727C93.062 29.0455 93.2022 28.7727 93.2855 28.4545H94.6264C94.5507 28.9697 94.3632 29.4337 94.0639 29.8466C93.7685 30.2557 93.3764 30.5814 92.8878 30.8239C92.4029 31.0625 91.8385 31.1818 91.1946 31.1818ZM102.087 27.4318V22.2727H103.428V31H102.087V29.5227H101.996C101.791 29.9659 101.473 30.3428 101.041 30.6534C100.609 30.9602 100.064 31.1136 99.4048 31.1136C98.8594 31.1136 98.3745 30.9943 97.9503 30.7557C97.526 30.5133 97.1927 30.1496 96.9503 29.6648C96.7079 29.1761 96.5866 28.5606 96.5866 27.8182V22.2727H97.9276V27.7273C97.9276 28.3636 98.1056 28.8712 98.4616 29.25C98.8215 29.6288 99.2798 29.8182 99.8366 29.8182C100.17 29.8182 100.509 29.733 100.854 29.5625C101.202 29.392 101.494 29.1307 101.729 28.7784C101.967 28.4261 102.087 27.9773 102.087 27.4318ZM105.884 31V22.2727H107.224V31H105.884ZM106.565 20.8182C106.304 20.8182 106.079 20.7292 105.889 20.5511C105.704 20.3731 105.611 20.1591 105.611 19.9091C105.611 19.6591 105.704 19.4451 105.889 19.267C106.079 19.089 106.304 19 106.565 19C106.827 19 107.05 19.089 107.236 19.267C107.425 19.4451 107.52 19.6591 107.52 19.9091C107.52 20.1591 107.425 20.3731 107.236 20.5511C107.05 20.7292 106.827 20.8182 106.565 20.8182ZM112.976 31.1818C112.249 31.1818 111.607 30.9981 111.05 30.6307C110.493 30.2595 110.057 29.7367 109.743 29.0625C109.429 28.3845 109.271 27.5833 109.271 26.6591C109.271 25.7424 109.429 24.947 109.743 24.2727C110.057 23.5985 110.495 23.0777 111.055 22.7102C111.616 22.3428 112.264 22.1591 112.999 22.1591C113.567 22.1591 114.016 22.2538 114.345 22.4432C114.679 22.6288 114.932 22.8409 115.107 23.0795C115.285 23.3144 115.423 23.5076 115.521 23.6591H115.635V19.3636H116.976V31H115.68V29.6591H115.521C115.423 29.8182 115.283 30.0189 115.101 30.2614C114.919 30.5 114.66 30.714 114.322 30.9034C113.985 31.089 113.536 31.1818 112.976 31.1818ZM113.158 29.9773C113.696 29.9773 114.15 29.8371 114.521 29.5568C114.893 29.2727 115.175 28.8807 115.368 28.3807C115.561 27.8769 115.658 27.2955 115.658 26.6364C115.658 25.9848 115.563 25.4148 115.374 24.9261C115.184 24.4337 114.904 24.0511 114.533 23.7784C114.161 23.5019 113.703 23.3636 113.158 23.3636C112.589 23.3636 112.116 23.5095 111.737 23.8011C111.362 24.089 111.08 24.4811 110.891 24.9773C110.705 25.4697 110.612 26.0227 110.612 26.6364C110.612 27.2576 110.707 27.822 110.896 28.3295C111.089 28.8333 111.374 29.2348 111.749 29.5341C112.127 29.8295 112.597 29.9773 113.158 29.9773ZM122.186 31.2045C121.633 31.2045 121.131 31.1004 120.68 30.892C120.23 30.6799 119.872 30.375 119.607 29.9773C119.341 29.5758 119.209 29.0909 119.209 28.5227C119.209 28.0227 119.307 27.6174 119.504 27.3068C119.701 26.9924 119.964 26.7462 120.294 26.5682C120.624 26.3902 120.987 26.2576 121.385 26.1705C121.786 26.0795 122.19 26.0076 122.595 25.9545C123.125 25.8864 123.555 25.8352 123.885 25.8011C124.218 25.7633 124.461 25.7008 124.612 25.6136C124.768 25.5265 124.845 25.375 124.845 25.1591V25.1136C124.845 24.553 124.692 24.1174 124.385 23.8068C124.082 23.4962 123.622 23.3409 123.004 23.3409C122.364 23.3409 121.862 23.4811 121.499 23.7614C121.135 24.0417 120.879 24.3409 120.732 24.6591L119.459 24.2045C119.686 23.6742 119.989 23.2614 120.368 22.9659C120.75 22.6667 121.167 22.4583 121.618 22.3409C122.072 22.2197 122.519 22.1591 122.959 22.1591C123.239 22.1591 123.561 22.1932 123.925 22.2614C124.292 22.3258 124.646 22.4602 124.987 22.6648C125.332 22.8693 125.618 23.178 125.845 23.5909C126.072 24.0038 126.186 24.5568 126.186 25.25V31H124.845V29.8182H124.777C124.686 30.0076 124.535 30.2102 124.322 30.4261C124.11 30.642 123.828 30.8258 123.476 30.9773C123.124 31.1288 122.694 31.2045 122.186 31.2045ZM122.391 30C122.921 30 123.368 29.8958 123.732 29.6875C124.099 29.4792 124.375 29.2102 124.561 28.8807C124.75 28.5511 124.845 28.2045 124.845 27.8409V26.6136C124.788 26.6818 124.663 26.7443 124.47 26.8011C124.281 26.8542 124.061 26.9015 123.811 26.9432C123.565 26.9811 123.324 27.0152 123.089 27.0455C122.858 27.072 122.671 27.0947 122.527 27.1136C122.179 27.1591 121.853 27.233 121.55 27.3352C121.25 27.4337 121.008 27.5833 120.822 27.7841C120.641 27.9811 120.55 28.25 120.55 28.5909C120.55 29.0568 120.722 29.4091 121.067 29.6477C121.415 29.8826 121.857 30 122.391 30ZM128.634 31V22.2727H129.929V23.5909H130.02C130.179 23.1591 130.467 22.8087 130.884 22.5398C131.3 22.2708 131.77 22.1364 132.293 22.1364C132.391 22.1364 132.514 22.1383 132.662 22.142C132.81 22.1458 132.921 22.1515 132.997 22.1591V23.5227C132.952 23.5114 132.848 23.4943 132.685 23.4716C132.526 23.4451 132.357 23.4318 132.179 23.4318C131.755 23.4318 131.376 23.5208 131.043 23.6989C130.713 23.8731 130.452 24.1155 130.259 24.4261C130.069 24.733 129.974 25.0833 129.974 25.4773V31H128.634ZM5.7571 50.1818C5.02983 50.1818 4.38778 49.9981 3.83097 49.6307C3.27415 49.2595 2.83854 48.7367 2.52415 48.0625C2.20975 47.3845 2.05256 46.5833 2.05256 45.6591C2.05256 44.7424 2.20975 43.947 2.52415 43.2727C2.83854 42.5985 3.27604 42.0777 3.83665 41.7102C4.39725 41.3428 5.04498 41.1591 5.77983 41.1591C6.34801 41.1591 6.79688 41.2538 7.12642 41.4432C7.45975 41.6288 7.71354 41.8409 7.88778 42.0795C8.06581 42.3144 8.20407 42.5076 8.30256 42.6591H8.41619V38.3636H9.7571V50H8.46165V48.6591H8.30256C8.20407 48.8182 8.06392 49.0189 7.8821 49.2614C7.70028 49.5 7.44081 49.714 7.10369 49.9034C6.76657 50.089 6.31771 50.1818 5.7571 50.1818ZM5.93892 48.9773C6.4768 48.9773 6.93134 48.8371 7.30256 48.5568C7.67377 48.2727 7.95597 47.8807 8.14915 47.3807C8.34233 46.8769 8.43892 46.2955 8.43892 45.6364C8.43892 44.9848 8.34422 44.4148 8.15483 43.9261C7.96544 43.4337 7.68513 43.0511 7.31392 42.7784C6.94271 42.5019 6.48438 42.3636 5.93892 42.3636C5.37074 42.3636 4.89725 42.5095 4.51847 42.8011C4.14347 43.089 3.86127 43.4811 3.67188 43.9773C3.48627 44.4697 3.39347 45.0227 3.39347 45.6364C3.39347 46.2576 3.48816 46.822 3.67756 47.3295C3.87074 47.8333 4.15483 48.2348 4.52983 48.5341C4.90862 48.8295 5.37831 48.9773 5.93892 48.9773ZM15.9446 50.1818C15.1567 50.1818 14.4654 49.9943 13.8707 49.6193C13.2798 49.2443 12.8177 48.7197 12.4844 48.0455C12.1548 47.3712 11.9901 46.5833 11.9901 45.6818C11.9901 44.7727 12.1548 43.9792 12.4844 43.3011C12.8177 42.6231 13.2798 42.0966 13.8707 41.7216C14.4654 41.3466 15.1567 41.1591 15.9446 41.1591C16.7325 41.1591 17.4219 41.3466 18.0128 41.7216C18.6075 42.0966 19.0696 42.6231 19.3991 43.3011C19.7325 43.9792 19.8991 44.7727 19.8991 45.6818C19.8991 46.5833 19.7325 47.3712 19.3991 48.0455C19.0696 48.7197 18.6075 49.2443 18.0128 49.6193C17.4219 49.9943 16.7325 50.1818 15.9446 50.1818ZM15.9446 48.9773C16.5431 48.9773 17.0355 48.8239 17.4219 48.517C17.8082 48.2102 18.0942 47.8068 18.2798 47.3068C18.4654 46.8068 18.5582 46.2652 18.5582 45.6818C18.5582 45.0985 18.4654 44.5549 18.2798 44.0511C18.0942 43.5473 17.8082 43.1402 17.4219 42.8295C17.0355 42.5189 16.5431 42.3636 15.9446 42.3636C15.3461 42.3636 14.8537 42.5189 14.4673 42.8295C14.081 43.1402 13.795 43.5473 13.6094 44.0511C13.4238 44.5549 13.331 45.0985 13.331 45.6818C13.331 46.2652 13.4238 46.8068 13.6094 47.3068C13.795 47.8068 14.081 48.2102 14.4673 48.517C14.8537 48.8239 15.3461 48.9773 15.9446 48.9773ZM28.1278 43.2273L26.9233 43.5682C26.8475 43.3674 26.7358 43.1723 26.5881 42.983C26.4441 42.7898 26.2472 42.6307 25.9972 42.5057C25.7472 42.3807 25.4271 42.3182 25.0369 42.3182C24.5028 42.3182 24.0578 42.4413 23.7017 42.6875C23.3494 42.9299 23.1733 43.2386 23.1733 43.6136C23.1733 43.947 23.2945 44.2102 23.5369 44.4034C23.7794 44.5966 24.1581 44.7576 24.6733 44.8864L25.9688 45.2045C26.7491 45.3939 27.3305 45.6837 27.7131 46.0739C28.0956 46.4602 28.2869 46.9583 28.2869 47.5682C28.2869 48.0682 28.143 48.5152 27.8551 48.9091C27.571 49.303 27.1733 49.6136 26.6619 49.8409C26.1506 50.0682 25.5559 50.1818 24.8778 50.1818C23.9877 50.1818 23.2509 49.9886 22.6676 49.6023C22.0843 49.2159 21.715 48.6515 21.5597 47.9091L22.8324 47.5909C22.9536 48.0606 23.1828 48.4129 23.5199 48.6477C23.8608 48.8826 24.3059 49 24.8551 49C25.4801 49 25.9763 48.8674 26.3438 48.6023C26.715 48.3333 26.9006 48.0114 26.9006 47.6364C26.9006 47.3333 26.7945 47.0795 26.5824 46.875C26.3703 46.6667 26.0445 46.5114 25.6051 46.4091L24.1506 46.0682C23.3513 45.8788 22.7642 45.5852 22.3892 45.1875C22.018 44.786 21.8324 44.2841 21.8324 43.6818C21.8324 43.1894 21.9706 42.7538 22.2472 42.375C22.5275 41.9962 22.9081 41.6989 23.3892 41.483C23.8741 41.267 24.4233 41.1591 25.0369 41.1591C25.9006 41.1591 26.5786 41.3485 27.071 41.7273C27.5672 42.1061 27.9195 42.6061 28.1278 43.2273ZM40.9872 43.2273L39.7827 43.5682C39.7069 43.3674 39.5952 43.1723 39.4474 42.983C39.3035 42.7898 39.1065 42.6307 38.8565 42.5057C38.6065 42.3807 38.2865 42.3182 37.8963 42.3182C37.3622 42.3182 36.9171 42.4413 36.5611 42.6875C36.2088 42.9299 36.0327 43.2386 36.0327 43.6136C36.0327 43.947 36.1539 44.2102 36.3963 44.4034C36.6387 44.5966 37.0175 44.7576 37.5327 44.8864L38.8281 45.2045C39.6084 45.3939 40.1899 45.6837 40.5724 46.0739C40.955 46.4602 41.1463 46.9583 41.1463 47.5682C41.1463 48.0682 41.0024 48.5152 40.7145 48.9091C40.4304 49.303 40.0327 49.6136 39.5213 49.8409C39.0099 50.0682 38.4152 50.1818 37.7372 50.1818C36.8471 50.1818 36.1103 49.9886 35.527 49.6023C34.9437 49.2159 34.5743 48.6515 34.419 47.9091L35.6918 47.5909C35.813 48.0606 36.0421 48.4129 36.3793 48.6477C36.7202 48.8826 37.1652 49 37.7145 49C38.3395 49 38.8357 48.8674 39.2031 48.6023C39.5743 48.3333 39.7599 48.0114 39.7599 47.6364C39.7599 47.3333 39.6539 47.0795 39.4418 46.875C39.2296 46.6667 38.9039 46.5114 38.4645 46.4091L37.0099 46.0682C36.2107 45.8788 35.6236 45.5852 35.2486 45.1875C34.8774 44.786 34.6918 44.2841 34.6918 43.6818C34.6918 43.1894 34.83 42.7538 35.1065 42.375C35.3868 41.9962 35.7675 41.6989 36.2486 41.483C36.7334 41.267 37.2827 41.1591 37.8963 41.1591C38.7599 41.1591 39.438 41.3485 39.9304 41.7273C40.4266 42.1061 40.7789 42.6061 40.9872 43.2273ZM46.8239 50.1818C45.983 50.1818 45.2576 49.9962 44.6477 49.625C44.0417 49.25 43.5739 48.7273 43.2443 48.0568C42.9186 47.3826 42.7557 46.5985 42.7557 45.7045C42.7557 44.8106 42.9186 44.0227 43.2443 43.3409C43.5739 42.6553 44.0322 42.1212 44.6193 41.7386C45.2102 41.3523 45.8996 41.1591 46.6875 41.1591C47.142 41.1591 47.5909 41.2348 48.0341 41.3864C48.4773 41.5379 48.8807 41.7841 49.2443 42.125C49.608 42.4621 49.8977 42.9091 50.1136 43.4659C50.3295 44.0227 50.4375 44.7083 50.4375 45.5227V46.0909H43.7102V44.9318H49.0739C49.0739 44.4394 48.9754 44 48.7784 43.6136C48.5852 43.2273 48.3087 42.9223 47.9489 42.6989C47.5928 42.4754 47.1723 42.3636 46.6875 42.3636C46.1534 42.3636 45.6913 42.4962 45.3011 42.7614C44.9148 43.0227 44.6174 43.3636 44.4091 43.7841C44.2008 44.2045 44.0966 44.6553 44.0966 45.1364V45.9091C44.0966 46.5682 44.2102 47.1269 44.4375 47.5852C44.6686 48.0398 44.9886 48.3864 45.3977 48.625C45.8068 48.8598 46.2822 48.9773 46.8239 48.9773C47.1761 48.9773 47.4943 48.928 47.7784 48.8295C48.0663 48.7273 48.3144 48.5758 48.5227 48.375C48.7311 48.1705 48.892 47.9167 49.0057 47.6136L50.3011 47.9773C50.1648 48.4167 49.9356 48.803 49.6136 49.1364C49.2917 49.4659 48.8939 49.7235 48.4205 49.9091C47.947 50.0909 47.4148 50.1818 46.8239 50.1818ZM57.9773 46.4318V41.2727H59.3182V50H57.9773V48.5227H57.8864C57.6818 48.9659 57.3636 49.3428 56.9318 49.6534C56.5 49.9602 55.9545 50.1136 55.2955 50.1136C54.75 50.1136 54.2652 49.9943 53.8409 49.7557C53.4167 49.5133 53.0833 49.1496 52.8409 48.6648C52.5985 48.1761 52.4773 47.5606 52.4773 46.8182V41.2727H53.8182V46.7273C53.8182 47.3636 53.9962 47.8712 54.3523 48.25C54.7121 48.6288 55.1705 48.8182 55.7273 48.8182C56.0606 48.8182 56.3996 48.733 56.7443 48.5625C57.0928 48.392 57.3845 48.1307 57.6193 47.7784C57.858 47.4261 57.9773 46.9773 57.9773 46.4318ZM67.956 43.2273L66.7514 43.5682C66.6757 43.3674 66.5639 43.1723 66.4162 42.983C66.2723 42.7898 66.0753 42.6307 65.8253 42.5057C65.5753 42.3807 65.2552 42.3182 64.8651 42.3182C64.331 42.3182 63.8859 42.4413 63.5298 42.6875C63.1776 42.9299 63.0014 43.2386 63.0014 43.6136C63.0014 43.947 63.1226 44.2102 63.3651 44.4034C63.6075 44.5966 63.9863 44.7576 64.5014 44.8864L65.7969 45.2045C66.5772 45.3939 67.1586 45.6837 67.5412 46.0739C67.9238 46.4602 68.1151 46.9583 68.1151 47.5682C68.1151 48.0682 67.9711 48.5152 67.6832 48.9091C67.3991 49.303 67.0014 49.6136 66.4901 49.8409C65.9787 50.0682 65.384 50.1818 64.706 50.1818C63.8158 50.1818 63.0791 49.9886 62.4957 49.6023C61.9124 49.2159 61.5431 48.6515 61.3878 47.9091L62.6605 47.5909C62.7817 48.0606 63.0109 48.4129 63.348 48.6477C63.6889 48.8826 64.134 49 64.6832 49C65.3082 49 65.8045 48.8674 66.1719 48.6023C66.5431 48.3333 66.7287 48.0114 66.7287 47.6364C66.7287 47.3333 66.6226 47.0795 66.4105 46.875C66.1984 46.6667 65.8726 46.5114 65.4332 46.4091L63.9787 46.0682C63.1795 45.8788 62.5923 45.5852 62.2173 45.1875C61.8461 44.786 61.6605 44.2841 61.6605 43.6818C61.6605 43.1894 61.7988 42.7538 62.0753 42.375C62.3556 41.9962 62.7363 41.6989 63.2173 41.483C63.7022 41.267 64.2514 41.1591 64.8651 41.1591C65.7287 41.1591 66.4067 41.3485 66.8991 41.7273C67.3954 42.1061 67.7476 42.6061 67.956 43.2273ZM78.179 50.1818C77.3608 50.1818 76.6563 49.9886 76.0653 49.6023C75.4744 49.2159 75.0199 48.6837 74.7017 48.0057C74.3835 47.3277 74.2244 46.553 74.2244 45.6818C74.2244 44.7955 74.3873 44.0133 74.7131 43.3352C75.0426 42.6534 75.5009 42.1212 76.0881 41.7386C76.679 41.3523 77.3684 41.1591 78.1562 41.1591C78.7699 41.1591 79.3229 41.2727 79.8153 41.5C80.3078 41.7273 80.7112 42.0455 81.0256 42.4545C81.34 42.8636 81.535 43.3409 81.6108 43.8864H80.2699C80.1676 43.4886 79.9403 43.1364 79.5881 42.8295C79.2396 42.5189 78.7699 42.3636 78.179 42.3636C77.6563 42.3636 77.1979 42.5 76.804 42.7727C76.4138 43.0417 76.1089 43.4223 75.8892 43.9148C75.6733 44.4034 75.5653 44.9773 75.5653 45.6364C75.5653 46.3106 75.6714 46.8977 75.8835 47.3977C76.0994 47.8977 76.4025 48.286 76.7926 48.5625C77.1866 48.839 77.6487 48.9773 78.179 48.9773C78.5275 48.9773 78.8438 48.9167 79.1278 48.7955C79.4119 48.6742 79.6525 48.5 79.8494 48.2727C80.0464 48.0455 80.1866 47.7727 80.2699 47.4545H81.6108C81.535 47.9697 81.3475 48.4337 81.0483 48.8466C80.7528 49.2557 80.3608 49.5814 79.8722 49.8239C79.3873 50.0625 78.8229 50.1818 78.179 50.1818ZM86.1392 50.2045C85.5862 50.2045 85.0843 50.1004 84.6335 49.892C84.1828 49.6799 83.8248 49.375 83.5597 48.9773C83.2945 48.5758 83.1619 48.0909 83.1619 47.5227C83.1619 47.0227 83.2604 46.6174 83.4574 46.3068C83.6544 45.9924 83.9176 45.7462 84.2472 45.5682C84.5767 45.3902 84.9403 45.2576 85.3381 45.1705C85.7396 45.0795 86.143 45.0076 86.5483 44.9545C87.0786 44.8864 87.5085 44.8352 87.8381 44.8011C88.1714 44.7633 88.4138 44.7008 88.5653 44.6136C88.7206 44.5265 88.7983 44.375 88.7983 44.1591V44.1136C88.7983 43.553 88.6449 43.1174 88.3381 42.8068C88.035 42.4962 87.5748 42.3409 86.9574 42.3409C86.3172 42.3409 85.8153 42.4811 85.4517 42.7614C85.0881 43.0417 84.8324 43.3409 84.6847 43.6591L83.4119 43.2045C83.6392 42.6742 83.9422 42.2614 84.321 41.9659C84.7036 41.6667 85.1203 41.4583 85.571 41.3409C86.0256 41.2197 86.4725 41.1591 86.9119 41.1591C87.1922 41.1591 87.5142 41.1932 87.8778 41.2614C88.2453 41.3258 88.5994 41.4602 88.9403 41.6648C89.285 41.8693 89.571 42.178 89.7983 42.5909C90.0256 43.0038 90.1392 43.5568 90.1392 44.25V50H88.7983V48.8182H88.7301C88.6392 49.0076 88.4877 49.2102 88.2756 49.4261C88.0634 49.642 87.7813 49.8258 87.429 49.9773C87.0767 50.1288 86.6468 50.2045 86.1392 50.2045ZM86.3438 49C86.8741 49 87.321 48.8958 87.6847 48.6875C88.0521 48.4792 88.3286 48.2102 88.5142 47.8807C88.7036 47.5511 88.7983 47.2045 88.7983 46.8409V45.6136C88.7415 45.6818 88.6165 45.7443 88.4233 45.8011C88.2339 45.8542 88.0142 45.9015 87.7642 45.9432C87.518 45.9811 87.2775 46.0152 87.0426 46.0455C86.8116 46.072 86.6241 46.0947 86.4801 46.1136C86.1316 46.1591 85.8059 46.233 85.5028 46.3352C85.2036 46.4337 84.9612 46.5833 84.7756 46.7841C84.5938 46.9811 84.5028 47.25 84.5028 47.5909C84.5028 48.0568 84.6752 48.4091 85.0199 48.6477C85.3684 48.8826 85.8097 49 86.3438 49ZM96.1321 50.1818C95.3139 50.1818 94.6094 49.9886 94.0185 49.6023C93.4276 49.2159 92.973 48.6837 92.6548 48.0057C92.3366 47.3277 92.1776 46.553 92.1776 45.6818C92.1776 44.7955 92.3404 44.0133 92.6662 43.3352C92.9957 42.6534 93.4541 42.1212 94.0412 41.7386C94.6321 41.3523 95.3215 41.1591 96.1094 41.1591C96.723 41.1591 97.276 41.2727 97.7685 41.5C98.2609 41.7273 98.6643 42.0455 98.9787 42.4545C99.2931 42.8636 99.4882 43.3409 99.5639 43.8864H98.223C98.1207 43.4886 97.8935 43.1364 97.5412 42.8295C97.1927 42.5189 96.723 42.3636 96.1321 42.3636C95.6094 42.3636 95.151 42.5 94.7571 42.7727C94.367 43.0417 94.062 43.4223 93.8423 43.9148C93.6264 44.4034 93.5185 44.9773 93.5185 45.6364C93.5185 46.3106 93.6245 46.8977 93.8366 47.3977C94.0526 47.8977 94.3556 48.286 94.7457 48.5625C95.1397 48.839 95.6018 48.9773 96.1321 48.9773C96.4806 48.9773 96.7969 48.9167 97.081 48.7955C97.3651 48.6742 97.6056 48.5 97.8026 48.2727C97.9995 48.0455 98.1397 47.7727 98.223 47.4545H99.5639C99.4882 47.9697 99.3007 48.4337 99.0014 48.8466C98.706 49.2557 98.3139 49.5814 97.8253 49.8239C97.3404 50.0625 96.776 50.1818 96.1321 50.1818ZM102.865 44.75V50H101.524V38.3636H102.865V42.6364H102.979C103.183 42.1856 103.49 41.8277 103.899 41.5625C104.312 41.2936 104.861 41.1591 105.547 41.1591C106.142 41.1591 106.662 41.2784 107.109 41.517C107.556 41.7519 107.903 42.1136 108.149 42.6023C108.399 43.0871 108.524 43.7045 108.524 44.4545V50H107.183V44.5455C107.183 43.8523 107.003 43.3163 106.643 42.9375C106.287 42.5549 105.793 42.3636 105.161 42.3636C104.721 42.3636 104.327 42.4564 103.979 42.642C103.634 42.8277 103.361 43.0985 103.161 43.4545C102.964 43.8106 102.865 44.2424 102.865 44.75ZM114.523 50.1818C113.735 50.1818 113.044 49.9943 112.449 49.6193C111.858 49.2443 111.396 48.7197 111.062 48.0455C110.733 47.3712 110.568 46.5833 110.568 45.6818C110.568 44.7727 110.733 43.9792 111.062 43.3011C111.396 42.6231 111.858 42.0966 112.449 41.7216C113.044 41.3466 113.735 41.1591 114.523 41.1591C115.311 41.1591 116 41.3466 116.591 41.7216C117.186 42.0966 117.648 42.6231 117.977 43.3011C118.311 43.9792 118.477 44.7727 118.477 45.6818C118.477 46.5833 118.311 47.3712 117.977 48.0455C117.648 48.7197 117.186 49.2443 116.591 49.6193C116 49.9943 115.311 50.1818 114.523 50.1818ZM114.523 48.9773C115.121 48.9773 115.614 48.8239 116 48.517C116.386 48.2102 116.672 47.8068 116.858 47.3068C117.044 46.8068 117.136 46.2652 117.136 45.6818C117.136 45.0985 117.044 44.5549 116.858 44.0511C116.672 43.5473 116.386 43.1402 116 42.8295C115.614 42.5189 115.121 42.3636 114.523 42.3636C113.924 42.3636 113.432 42.5189 113.045 42.8295C112.659 43.1402 112.373 43.5473 112.188 44.0511C112.002 44.5549 111.909 45.0985 111.909 45.6818C111.909 46.2652 112.002 46.8068 112.188 47.3068C112.373 47.8068 112.659 48.2102 113.045 48.517C113.432 48.8239 113.924 48.9773 114.523 48.9773ZM126.706 43.2273L125.501 43.5682C125.426 43.3674 125.314 43.1723 125.166 42.983C125.022 42.7898 124.825 42.6307 124.575 42.5057C124.325 42.3807 124.005 42.3182 123.615 42.3182C123.081 42.3182 122.636 42.4413 122.28 42.6875C121.928 42.9299 121.751 43.2386 121.751 43.6136C121.751 43.947 121.873 44.2102 122.115 44.4034C122.357 44.5966 122.736 44.7576 123.251 44.8864L124.547 45.2045C125.327 45.3939 125.909 45.6837 126.291 46.0739C126.674 46.4602 126.865 46.9583 126.865 47.5682C126.865 48.0682 126.721 48.5152 126.433 48.9091C126.149 49.303 125.751 49.6136 125.24 49.8409C124.729 50.0682 124.134 50.1818 123.456 50.1818C122.566 50.1818 121.829 49.9886 121.246 49.6023C120.662 49.2159 120.293 48.6515 120.138 47.9091L121.411 47.5909C121.532 48.0606 121.761 48.4129 122.098 48.6477C122.439 48.8826 122.884 49 123.433 49C124.058 49 124.554 48.8674 124.922 48.6023C125.293 48.3333 125.479 48.0114 125.479 47.6364C125.479 47.3333 125.373 47.0795 125.161 46.875C124.948 46.6667 124.623 46.5114 124.183 46.4091L122.729 46.0682C121.929 45.8788 121.342 45.5852 120.967 45.1875C120.596 44.786 120.411 44.2841 120.411 43.6818C120.411 43.1894 120.549 42.7538 120.825 42.375C121.106 41.9962 121.486 41.6989 121.967 41.483C122.452 41.267 123.001 41.1591 123.615 41.1591C124.479 41.1591 125.157 41.3485 125.649 41.7273C126.145 42.1061 126.498 42.6061 126.706 43.2273ZM130.634 46.7273V46.6591C130.641 45.9356 130.717 45.3598 130.861 44.9318C131.005 44.5038 131.209 44.1572 131.474 43.892C131.74 43.6269 132.058 43.3826 132.429 43.1591C132.652 43.0227 132.853 42.8617 133.031 42.6761C133.209 42.4867 133.349 42.2689 133.452 42.0227C133.558 41.7765 133.611 41.5038 133.611 41.2045C133.611 40.8333 133.524 40.5114 133.349 40.2386C133.175 39.9659 132.942 39.7557 132.651 39.608C132.359 39.4602 132.035 39.3864 131.679 39.3864C131.368 39.3864 131.069 39.4508 130.781 39.5795C130.493 39.7083 130.253 39.911 130.06 40.1875C129.866 40.464 129.755 40.8258 129.724 41.2727H128.293C128.323 40.6288 128.49 40.0777 128.793 39.6193C129.099 39.161 129.503 38.8106 130.003 38.5682C130.507 38.3258 131.065 38.2045 131.679 38.2045C132.346 38.2045 132.925 38.3371 133.418 38.6023C133.914 38.8674 134.296 39.2311 134.565 39.6932C134.838 40.1553 134.974 40.6818 134.974 41.2727C134.974 41.6894 134.91 42.0663 134.781 42.4034C134.656 42.7405 134.474 43.0417 134.236 43.3068C134.001 43.572 133.717 43.8068 133.384 44.0114C133.05 44.2197 132.783 44.4394 132.582 44.6705C132.382 44.8977 132.236 45.1686 132.145 45.483C132.054 45.7973 132.005 46.1894 131.997 46.6591V46.7273H130.634ZM131.361 50.0909C131.08 50.0909 130.84 49.9905 130.639 49.7898C130.438 49.589 130.338 49.3485 130.338 49.0682C130.338 48.7879 130.438 48.5473 130.639 48.3466C130.84 48.1458 131.08 48.0455 131.361 48.0455C131.641 48.0455 131.882 48.1458 132.082 48.3466C132.283 48.5473 132.384 48.7879 132.384 49.0682C132.384 49.2538 132.336 49.4242 132.241 49.5795C132.151 49.7348 132.027 49.8598 131.872 49.9545C131.721 50.0455 131.55 50.0909 131.361 50.0909ZM2.37074 57.3636L5.82528 67.1591H5.96165L9.41619 57.3636H10.8935L6.62074 69H5.16619L0.893466 57.3636H2.37074ZM15.3707 69.1818C14.5298 69.1818 13.8045 68.9962 13.1946 68.625C12.5885 68.25 12.1207 67.7273 11.7912 67.0568C11.4654 66.3826 11.3026 65.5985 11.3026 64.7045C11.3026 63.8106 11.4654 63.0227 11.7912 62.3409C12.1207 61.6553 12.5791 61.1212 13.1662 60.7386C13.7571 60.3523 14.4465 60.1591 15.2344 60.1591C15.6889 60.1591 16.1378 60.2348 16.581 60.3864C17.0241 60.5379 17.4276 60.7841 17.7912 61.125C18.1548 61.4621 18.4446 61.9091 18.6605 62.4659C18.8764 63.0227 18.9844 63.7083 18.9844 64.5227V65.0909H12.2571V63.9318H17.6207C17.6207 63.4394 17.5223 63 17.3253 62.6136C17.1321 62.2273 16.8556 61.9223 16.4957 61.6989C16.1397 61.4754 15.7192 61.3636 15.2344 61.3636C14.7003 61.3636 14.2382 61.4962 13.848 61.7614C13.4616 62.0227 13.1643 62.3636 12.956 62.7841C12.7476 63.2045 12.6435 63.6553 12.6435 64.1364V64.9091C12.6435 65.5682 12.7571 66.1269 12.9844 66.5852C13.2154 67.0398 13.5355 67.3864 13.9446 67.625C14.3537 67.8598 14.8291 67.9773 15.3707 67.9773C15.723 67.9773 16.0412 67.928 16.3253 67.8295C16.6132 67.7273 16.8613 67.5758 17.0696 67.375C17.2779 67.1705 17.4389 66.9167 17.5526 66.6136L18.848 66.9773C18.7116 67.4167 18.4825 67.803 18.1605 68.1364C17.8385 68.4659 17.4408 68.7235 16.9673 68.9091C16.4938 69.0909 15.9616 69.1818 15.3707 69.1818ZM21.0241 69V60.2727H22.3196V61.6364H22.4332C22.6151 61.1705 22.9086 60.8087 23.3139 60.5511C23.7192 60.2898 24.206 60.1591 24.7741 60.1591C25.3499 60.1591 25.8291 60.2898 26.2116 60.5511C26.598 60.8087 26.8991 61.1705 27.1151 61.6364H27.206C27.4295 61.1856 27.7647 60.8277 28.2116 60.5625C28.6586 60.2936 29.1946 60.1591 29.8196 60.1591C30.5999 60.1591 31.2382 60.4034 31.7344 60.892C32.2306 61.3769 32.4787 62.1326 32.4787 63.1591V69H31.1378V63.1591C31.1378 62.5152 30.9616 62.0549 30.6094 61.7784C30.2571 61.5019 29.8423 61.3636 29.3651 61.3636C28.7514 61.3636 28.276 61.5492 27.9389 61.9205C27.6018 62.2879 27.4332 62.7538 27.4332 63.3182V69H26.0696V63.0227C26.0696 62.5265 25.9086 62.1269 25.5866 61.8239C25.2647 61.517 24.8499 61.3636 24.3423 61.3636C23.9938 61.3636 23.6681 61.4564 23.3651 61.642C23.0658 61.8277 22.8234 62.0852 22.6378 62.4148C22.456 62.7405 22.3651 63.1174 22.3651 63.5455V69H21.0241ZM42.9759 69.1818C42.1577 69.1818 41.4531 68.9886 40.8622 68.6023C40.2713 68.2159 39.8168 67.6837 39.4986 67.0057C39.1804 66.3277 39.0213 65.553 39.0213 64.6818C39.0213 63.7955 39.1842 63.0133 39.5099 62.3352C39.8395 61.6534 40.2978 61.1212 40.8849 60.7386C41.4759 60.3523 42.1652 60.1591 42.9531 60.1591C43.5668 60.1591 44.1198 60.2727 44.6122 60.5C45.1046 60.7273 45.508 61.0455 45.8224 61.4545C46.1368 61.8636 46.3319 62.3409 46.4077 62.8864H45.0668C44.9645 62.4886 44.7372 62.1364 44.3849 61.8295C44.0365 61.5189 43.5668 61.3636 42.9759 61.3636C42.4531 61.3636 41.9948 61.5 41.6009 61.7727C41.2107 62.0417 40.9058 62.4223 40.6861 62.9148C40.4702 63.4034 40.3622 63.9773 40.3622 64.6364C40.3622 65.3106 40.4683 65.8977 40.6804 66.3977C40.8963 66.8977 41.1993 67.286 41.5895 67.5625C41.9834 67.839 42.4455 67.9773 42.9759 67.9773C43.3243 67.9773 43.6406 67.9167 43.9247 67.7955C44.2088 67.6742 44.4493 67.5 44.6463 67.2727C44.8433 67.0455 44.9834 66.7727 45.0668 66.4545H46.4077C46.3319 66.9697 46.1444 67.4337 45.8452 67.8466C45.5497 68.2557 45.1577 68.5814 44.669 68.8239C44.1842 69.0625 43.6198 69.1818 42.9759 69.1818ZM51.9134 69.1818C51.1255 69.1818 50.4342 68.9943 49.8395 68.6193C49.2486 68.2443 48.7865 67.7197 48.4531 67.0455C48.1236 66.3712 47.9588 65.5833 47.9588 64.6818C47.9588 63.7727 48.1236 62.9792 48.4531 62.3011C48.7865 61.6231 49.2486 61.0966 49.8395 60.7216C50.4342 60.3466 51.1255 60.1591 51.9134 60.1591C52.7012 60.1591 53.3906 60.3466 53.9815 60.7216C54.5762 61.0966 55.0384 61.6231 55.3679 62.3011C55.7012 62.9792 55.8679 63.7727 55.8679 64.6818C55.8679 65.5833 55.7012 66.3712 55.3679 67.0455C55.0384 67.7197 54.5762 68.2443 53.9815 68.6193C53.3906 68.9943 52.7012 69.1818 51.9134 69.1818ZM51.9134 67.9773C52.5118 67.9773 53.0043 67.8239 53.3906 67.517C53.777 67.2102 54.063 66.8068 54.2486 66.3068C54.4342 65.8068 54.527 65.2652 54.527 64.6818C54.527 64.0985 54.4342 63.5549 54.2486 63.0511C54.063 62.5473 53.777 62.1402 53.3906 61.8295C53.0043 61.5189 52.5118 61.3636 51.9134 61.3636C51.3149 61.3636 50.8224 61.5189 50.4361 61.8295C50.0497 62.1402 49.7637 62.5473 49.5781 63.0511C49.3925 63.5549 49.2997 64.0985 49.2997 64.6818C49.2997 65.2652 49.3925 65.8068 49.5781 66.3068C49.7637 66.8068 50.0497 67.2102 50.4361 67.517C50.8224 67.8239 51.3149 67.9773 51.9134 67.9773ZM57.9148 69V60.2727H59.2102V61.6364H59.3239C59.5057 61.1705 59.7992 60.8087 60.2045 60.5511C60.6098 60.2898 61.0966 60.1591 61.6648 60.1591C62.2405 60.1591 62.7197 60.2898 63.1023 60.5511C63.4886 60.8087 63.7898 61.1705 64.0057 61.6364H64.0966C64.3201 61.1856 64.6553 60.8277 65.1023 60.5625C65.5492 60.2936 66.0852 60.1591 66.7102 60.1591C67.4905 60.1591 68.1288 60.4034 68.625 60.892C69.1212 61.3769 69.3693 62.1326 69.3693 63.1591V69H68.0284V63.1591C68.0284 62.5152 67.8523 62.0549 67.5 61.7784C67.1477 61.5019 66.733 61.3636 66.2557 61.3636C65.642 61.3636 65.1667 61.5492 64.8295 61.9205C64.4924 62.2879 64.3239 62.7538 64.3239 63.3182V69H62.9602V63.0227C62.9602 62.5265 62.7992 62.1269 62.4773 61.8239C62.1553 61.517 61.7405 61.3636 61.233 61.3636C60.8845 61.3636 60.5587 61.4564 60.2557 61.642C59.9564 61.8277 59.714 62.0852 59.5284 62.4148C59.3466 62.7405 59.2557 63.1174 59.2557 63.5455V69H57.9148ZM78.8892 69.2045C78.3362 69.2045 77.8343 69.1004 77.3835 68.892C76.9328 68.6799 76.5748 68.375 76.3097 67.9773C76.0445 67.5758 75.9119 67.0909 75.9119 66.5227C75.9119 66.0227 76.0104 65.6174 76.2074 65.3068C76.4044 64.9924 76.6676 64.7462 76.9972 64.5682C77.3267 64.3902 77.6903 64.2576 78.0881 64.1705C78.4896 64.0795 78.893 64.0076 79.2983 63.9545C79.8286 63.8864 80.2585 63.8352 80.5881 63.8011C80.9214 63.7633 81.1638 63.7008 81.3153 63.6136C81.4706 63.5265 81.5483 63.375 81.5483 63.1591V63.1136C81.5483 62.553 81.3949 62.1174 81.0881 61.8068C80.785 61.4962 80.3248 61.3409 79.7074 61.3409C79.0672 61.3409 78.5653 61.4811 78.2017 61.7614C77.8381 62.0417 77.5824 62.3409 77.4347 62.6591L76.1619 62.2045C76.3892 61.6742 76.6922 61.2614 77.071 60.9659C77.4536 60.6667 77.8703 60.4583 78.321 60.3409C78.7756 60.2197 79.2225 60.1591 79.6619 60.1591C79.9422 60.1591 80.2642 60.1932 80.6278 60.2614C80.9953 60.3258 81.3494 60.4602 81.6903 60.6648C82.035 60.8693 82.321 61.178 82.5483 61.5909C82.7756 62.0038 82.8892 62.5568 82.8892 63.25V69H81.5483V67.8182H81.4801C81.3892 68.0076 81.2377 68.2102 81.0256 68.4261C80.8134 68.642 80.5313 68.8258 80.179 68.9773C79.8267 69.1288 79.3968 69.2045 78.8892 69.2045ZM79.0938 68C79.6241 68 80.071 67.8958 80.4347 67.6875C80.8021 67.4792 81.0786 67.2102 81.2642 66.8807C81.4536 66.5511 81.5483 66.2045 81.5483 65.8409V64.6136C81.4915 64.6818 81.3665 64.7443 81.1733 64.8011C80.9839 64.8542 80.7642 64.9015 80.5142 64.9432C80.268 64.9811 80.0275 65.0152 79.7926 65.0455C79.5616 65.072 79.3741 65.0947 79.2301 65.1136C78.8816 65.1591 78.5559 65.233 78.2528 65.3352C77.9536 65.4337 77.7112 65.5833 77.5256 65.7841C77.3438 65.9811 77.2528 66.25 77.2528 66.5909C77.2528 67.0568 77.4252 67.4091 77.7699 67.6477C78.1184 67.8826 78.5597 68 79.0938 68ZM93.3594 72.4545C92.7116 72.4545 92.1548 72.3712 91.6889 72.2045C91.223 72.0417 90.8348 71.8258 90.5241 71.5568C90.2173 71.2917 89.973 71.0076 89.7912 70.7045L90.8594 69.9545C90.9806 70.1136 91.134 70.2955 91.3196 70.5C91.5052 70.7083 91.759 70.8883 92.081 71.0398C92.4067 71.1951 92.8329 71.2727 93.3594 71.2727C94.0639 71.2727 94.6454 71.1023 95.1037 70.7614C95.562 70.4205 95.7912 69.8864 95.7912 69.1591V67.3864H95.6776C95.5791 67.5455 95.4389 67.7424 95.2571 67.9773C95.0791 68.2083 94.8215 68.4148 94.4844 68.5966C94.151 68.7746 93.7003 68.8636 93.1321 68.8636C92.4276 68.8636 91.795 68.697 91.2344 68.3636C90.6776 68.0303 90.2363 67.5455 89.9105 66.9091C89.5885 66.2727 89.4276 65.5 89.4276 64.5909C89.4276 63.697 89.5848 62.9186 89.8991 62.2557C90.2135 61.589 90.651 61.0739 91.2116 60.7102C91.7723 60.3428 92.42 60.1591 93.1548 60.1591C93.723 60.1591 94.1738 60.2538 94.5071 60.4432C94.8442 60.6288 95.1018 60.8409 95.2798 61.0795C95.4616 61.3144 95.6018 61.5076 95.7003 61.6591H95.8366V60.2727H97.1321V69.25C97.1321 70 96.9616 70.6098 96.6207 71.0795C96.2836 71.553 95.8291 71.8996 95.2571 72.1193C94.6889 72.3428 94.0563 72.4545 93.3594 72.4545ZM93.3139 67.6591C93.8518 67.6591 94.3063 67.536 94.6776 67.2898C95.0488 67.0436 95.331 66.6894 95.5241 66.2273C95.7173 65.7652 95.8139 65.2121 95.8139 64.5682C95.8139 63.9394 95.7192 63.3845 95.5298 62.9034C95.3404 62.4223 95.0601 62.0455 94.6889 61.7727C94.3177 61.5 93.8594 61.3636 93.3139 61.3636C92.7457 61.3636 92.2723 61.5076 91.8935 61.7955C91.5185 62.0833 91.2363 62.4697 91.0469 62.9545C90.8613 63.4394 90.7685 63.9773 90.7685 64.5682C90.7685 65.1742 90.8632 65.7102 91.0526 66.1761C91.2457 66.6383 91.5298 67.0019 91.9048 67.267C92.2836 67.5284 92.7533 67.6591 93.3139 67.6591ZM103.246 69.1818C102.405 69.1818 101.679 68.9962 101.07 68.625C100.464 68.25 99.9957 67.7273 99.6662 67.0568C99.3404 66.3826 99.1776 65.5985 99.1776 64.7045C99.1776 63.8106 99.3404 63.0227 99.6662 62.3409C99.9957 61.6553 100.454 61.1212 101.041 60.7386C101.632 60.3523 102.321 60.1591 103.109 60.1591C103.564 60.1591 104.013 60.2348 104.456 60.3864C104.899 60.5379 105.303 60.7841 105.666 61.125C106.03 61.4621 106.32 61.9091 106.536 62.4659C106.751 63.0227 106.859 63.7083 106.859 64.5227V65.0909H100.132V63.9318H105.496C105.496 63.4394 105.397 63 105.2 62.6136C105.007 62.2273 104.731 61.9223 104.371 61.6989C104.015 61.4754 103.594 61.3636 103.109 61.3636C102.575 61.3636 102.113 61.4962 101.723 61.7614C101.337 62.0227 101.039 62.3636 100.831 62.7841C100.623 63.2045 100.518 63.6553 100.518 64.1364V64.9091C100.518 65.5682 100.632 66.1269 100.859 66.5852C101.09 67.0398 101.411 67.3864 101.82 67.625C102.229 67.8598 102.704 67.9773 103.246 67.9773C103.598 67.9773 103.916 67.928 104.2 67.8295C104.488 67.7273 104.736 67.5758 104.945 67.375C105.153 67.1705 105.314 66.9167 105.428 66.6136L106.723 66.9773C106.587 67.4167 106.357 67.803 106.036 68.1364C105.714 68.4659 105.316 68.7235 104.842 68.9091C104.369 69.0909 103.837 69.1818 103.246 69.1818ZM110.24 63.75V69H108.899V60.2727H110.195V61.6364H110.308C110.513 61.1932 110.823 60.8371 111.24 60.5682C111.657 60.2955 112.195 60.1591 112.854 60.1591C113.445 60.1591 113.962 60.2803 114.405 60.5227C114.848 60.7614 115.193 61.125 115.439 61.6136C115.685 62.0985 115.808 62.7121 115.808 63.4545V69H114.467V63.5455C114.467 62.8598 114.289 62.3258 113.933 61.9432C113.577 61.5568 113.089 61.3636 112.467 61.3636C112.039 61.3636 111.657 61.4564 111.32 61.642C110.986 61.8277 110.723 62.0985 110.53 62.4545C110.337 62.8106 110.24 63.2424 110.24 63.75ZM122.054 60.2727V61.4091H117.531V60.2727H122.054ZM118.849 58.1818H120.19V66.5C120.19 66.8788 120.245 67.1629 120.355 67.3523C120.469 67.5379 120.613 67.6629 120.787 67.7273C120.965 67.7879 121.152 67.8182 121.349 67.8182C121.497 67.8182 121.618 67.8106 121.713 67.7955C121.808 67.7765 121.884 67.7614 121.94 67.75L122.213 68.9545C122.122 68.9886 121.995 69.0227 121.832 69.0568C121.67 69.0947 121.463 69.1136 121.213 69.1136C120.834 69.1136 120.463 69.0322 120.099 68.8693C119.74 68.7064 119.44 68.4583 119.202 68.125C118.967 67.7917 118.849 67.3712 118.849 66.8636V58.1818ZM127.636 69.1818C126.795 69.1818 126.07 68.9962 125.46 68.625C124.854 68.25 124.386 67.7273 124.057 67.0568C123.731 66.3826 123.568 65.5985 123.568 64.7045C123.568 63.8106 123.731 63.0227 124.057 62.3409C124.386 61.6553 124.845 61.1212 125.432 60.7386C126.023 60.3523 126.712 60.1591 127.5 60.1591C127.955 60.1591 128.403 60.2348 128.847 60.3864C129.29 60.5379 129.693 60.7841 130.057 61.125C130.42 61.4621 130.71 61.9091 130.926 62.4659C131.142 63.0227 131.25 63.7083 131.25 64.5227V65.0909H124.523V63.9318H129.886C129.886 63.4394 129.788 63 129.591 62.6136C129.398 62.2273 129.121 61.9223 128.761 61.6989C128.405 61.4754 127.985 61.3636 127.5 61.3636C126.966 61.3636 126.504 61.4962 126.114 61.7614C125.727 62.0227 125.43 62.3636 125.222 62.7841C125.013 63.2045 124.909 63.6553 124.909 64.1364V64.9091C124.909 65.5682 125.023 66.1269 125.25 66.5852C125.481 67.0398 125.801 67.3864 126.21 67.625C126.619 67.8598 127.095 67.9773 127.636 67.9773C127.989 67.9773 128.307 67.928 128.591 67.8295C128.879 67.7273 129.127 67.5758 129.335 67.375C129.544 67.1705 129.705 66.9167 129.818 66.6136L131.114 66.9773C130.977 67.4167 130.748 67.803 130.426 68.1364C130.104 68.4659 129.706 68.7235 129.233 68.9091C128.759 69.0909 128.227 69.1818 127.636 69.1818ZM135.062 57.3636L134.949 65.7273H133.631L133.517 57.3636H135.062ZM134.29 69.0909C134.009 69.0909 133.769 68.9905 133.568 68.7898C133.367 68.589 133.267 68.3485 133.267 68.0682C133.267 67.7879 133.367 67.5473 133.568 67.3466C133.769 67.1458 134.009 67.0455 134.29 67.0455C134.57 67.0455 134.811 67.1458 135.011 67.3466C135.212 67.5473 135.312 67.7879 135.312 68.0682C135.312 68.2538 135.265 68.4242 135.17 68.5795C135.08 68.7348 134.956 68.8598 134.801 68.9545C134.65 69.0455 134.479 69.0909 134.29 69.0909Z" fill="#35241D"/>
</svg>
