<?xml version="1.0" standalone="no"?>
<!DOCTYPE svg PUBLIC "-//W3C//DTD SVG 20010904//EN"
 "http://www.w3.org/TR/2001/REC-SVG-20010904/DTD/svg10.dtd">
<svg version="1.0" xmlns="http://www.w3.org/2000/svg"
 width="640.000000pt" height="1280.000000pt" viewBox="0 0 640.000000 1280.000000"
 preserveAspectRatio="xMidYMid meet">
<g transform="translate(0.000000,1280.000000) scale(0.100000,-0.100000)"
fill="#000000" stroke="none">
<path d="M3243 12780 c-255 -20 -295 -25 -593 -76 -932 -158 -1619 -355 -1773
-510 l-27 -27 0 -156 c0 -254 -32 -468 -140 -936 -222 -962 -280 -1655 -185
-2205 79 -456 365 -1277 552 -1580 167 -270 402 -510 683 -695 127 -84 346
-198 421 -220 68 -19 79 -30 123 -125 116 -252 216 -684 425 -1840 99 -544
165 -968 210 -1356 40 -336 46 -437 29 -451 -7 -6 -76 -25 -153 -43 -255 -60
-628 -169 -820 -240 -627 -233 -998 -511 -1192 -890 l-48 -95 2 -105 c4 -239
95 -433 289 -620 262 -250 670 -419 1329 -549 263 -52 398 -65 604 -58 171 6
453 28 596 47 798 107 1466 410 1931 874 374 375 499 780 342 1114 -37 79
-133 207 -196 262 -87 77 -302 194 -577 312 -190 83 -610 241 -627 236 -25 -6
-376 -187 -382 -196 -3 -5 67 -33 157 -62 311 -100 607 -226 869 -371 105 -58
139 -83 198 -145 97 -103 161 -204 196 -310 25 -78 29 -104 29 -204 -1 -211
-76 -400 -253 -636 -88 -117 -130 -155 -332 -307 -96 -71 -188 -142 -205 -157
-90 -82 -671 -219 -1105 -261 -69 -7 -233 -12 -365 -12 -224 0 -252 2 -420 32
-1121 197 -1649 559 -1682 1156 -6 110 -6 110 31 198 150 363 265 492 515 581
291 104 1225 332 1277 312 15 -6 16 -30 11 -274 -6 -253 -19 -378 -45 -443 -6
-15 -47 -89 -92 -164 -92 -154 -134 -240 -127 -258 21 -54 392 -85 517 -43 19
7 95 51 169 100 112 73 132 89 120 100 -8 7 -56 30 -107 51 -56 23 -97 46
-104 59 -8 14 -6 139 6 455 10 240 21 458 24 485 l7 48 123 65 c68 36 121 68
117 71 -3 3 -57 -3 -120 -13 -63 -10 -118 -15 -122 -11 -5 4 -11 51 -15 104
-3 53 -11 140 -17 193 -15 140 -31 503 -31 734 0 518 54 1093 141 1515 74 354
159 697 225 902 29 89 39 109 57 112 12 3 85 17 162 32 253 48 378 93 573 205
427 245 736 570 928 974 118 249 310 801 387 1110 88 353 112 563 104 910 -11
441 -72 875 -208 1485 -28 124 -66 295 -84 380 -110 499 -75 819 107 991 l59
57 -78 25 c-43 14 -123 35 -178 47 -148 31 -239 55 -455 120 -437 131 -556
152 -1076 190 -318 24 -403 23 -711 0z m570 -171 c437 -22 863 -97 1066 -186
81 -35 211 -114 211 -128 0 -17 -454 -170 -890 -300 -786 -235 -1113 -299
-1517 -297 -564 4 -1034 91 -1353 253 -63 32 -132 72 -152 89 -36 30 -37 33
-31 78 7 55 16 67 63 80 19 5 114 32 210 60 431 124 1090 280 1322 313 311 44
698 58 1071 38z m1477 -461 c0 -7 -7 -53 -15 -103 -19 -117 -19 -318 0 -448 9
-56 40 -205 70 -332 130 -559 193 -920 225 -1301 13 -152 18 -559 8 -570 -4
-4 -45 10 -90 31 -102 47 -408 148 -543 180 -327 77 -871 147 -1435 185 -288
19 -1254 32 -1535 20 -433 -17 -628 -41 -1088 -131 -66 -13 -112 -18 -118 -12
-11 11 5 279 32 516 34 302 97 646 191 1042 22 94 55 241 73 328 18 87 36 161
39 164 3 4 25 -4 47 -16 133 -75 541 -160 914 -190 447 -37 714 -19 1131 74
200 45 788 215 1264 365 309 98 571 167 745 199 72 13 85 13 85 -1z m-2415
-5899 c77 -5 232 -13 343 -16 150 -4 205 -9 209 -18 2 -7 -14 -71 -37 -142
-113 -353 -262 -1079 -315 -1538 -20 -173 -23 -191 -36 -178 -10 10 -21 68
-155 813 -93 519 -148 781 -200 963 -19 65 -32 123 -28 128 3 6 22 8 43 4 20
-3 99 -10 176 -16z"/>
</g>
</svg>
