<svg xmlns="http://www.w3.org/2000/svg" viewBox="0 0 750 500"><g id="freepik--speech-bubble-5--inject-372"><path d="M684.11,323.1H625.32a11.27,11.27,0,0,0-11.27,11.27v33.91a11.27,11.27,0,0,0,11.27,11.27h24.29l7.48,10.79,7.49-10.79h19.53a11.27,11.27,0,0,0,11.27-11.27V334.37A11.27,11.27,0,0,0,684.11,323.1Z" style="fill:#fff"></path><path d="M684.11,323.1s.14,0,.42,0a7.52,7.52,0,0,1,1.26.1,11.11,11.11,0,0,1,4.56,1.7,11.41,11.41,0,0,1,4.66,6.18,12.75,12.75,0,0,1,.45,2.37c.06.83,0,1.68,0,2.56,0,1.75,0,3.62,0,5.58,0,3.93,0,8.26,0,13,0,2.35,0,4.79,0,7.31,0,1.27,0,2.55,0,3.85s.06,2.63-.09,4a11.48,11.48,0,0,1-7.72,9.46,13.07,13.07,0,0,1-4.44.61l-18.75,0,.2-.11-7.48,10.79-.2.3-.21-.3c-2.38-3.42-4.92-7.07-7.49-10.78l.21.11H627.52c-1.15,0-2.29,0-3.46-.07a11.54,11.54,0,0,1-9.86-8.45,12.23,12.23,0,0,1-.41-3.34c0-1.1,0-2.19,0-3.28,0-8.71,0-17.1,0-25.11,0-2,0-4,0-5.93a11.31,11.31,0,0,1,1.84-5.53,11.45,11.45,0,0,1,9.45-5.21l19.8,0,28.66.09,7.79.05,2,0,.69,0s-.24,0-.69,0l-2,0-7.79.05-28.66.08-19.79,0a11,11,0,0,0-9.08,5,10.92,10.92,0,0,0-1.75,5.31c-.07,1.91,0,3.91,0,5.9,0,8,0,16.4,0,25.11V368a11.57,11.57,0,0,0,.39,3.21,11,11,0,0,0,9.42,8.06c1.1.1,2.25.07,3.4.07h22.22l.08.11,7.48,10.79h-.41l7.49-10.78.07-.1h18.88a11.3,11.3,0,0,0,8-2.65,11,11,0,0,0,3.79-7c.14-1.3.08-2.64.1-4v-3.85c0-2.52,0-5,0-7.31,0-4.7,0-9,0-13,0-2,0-3.83,0-5.58,0-.88,0-1.73,0-2.54a11.48,11.48,0,0,0-.43-2.32,11.23,11.23,0,0,0-4.52-6.12,11.4,11.4,0,0,0-4.48-1.75C684.69,323.1,684.1,323.14,684.11,323.1Z" style="fill:#263238"></path><circle cx="639.7" cy="350.12" r="4.8" style="fill:#455a64"></circle><circle cx="654.92" cy="350.12" r="4.8" style="fill:#455a64"></circle><path d="M674.52,350.12a4.8,4.8,0,1,1-4.79-4.8A4.79,4.79,0,0,1,674.52,350.12Z" style="fill:#455a64"></path></g><g id="freepik--speech-bubble-4--inject-372"><path d="M636.65,128.34a22.36,22.36,0,1,1,8.62,17.7h0l-7.51,1,2.16-7A22.23,22.23,0,0,1,636.65,128.34Z" style="fill:#fff"></path><path d="M636.65,128.34a17,17,0,0,0,.16,3.22,22.06,22.06,0,0,0,3,8.56l0-.1L637.64,147a.13.13,0,0,0,.09.18h.06l7.51-.95a.15.15,0,0,0,.14-.18.11.11,0,0,0,0-.08h0l-.23.23a22.57,22.57,0,0,0,9.07,4.27,21.12,21.12,0,0,0,5.48.48l1.43-.07c.47,0,1-.13,1.43-.2a21.63,21.63,0,0,0,8.35-3.11l.66-.4.62-.47c.41-.31.85-.6,1.24-.94a22.41,22.41,0,0,0,2.27-2.2,25.76,25.76,0,0,0,2-2.5,27.08,27.08,0,0,0,1.6-2.83,25.24,25.24,0,0,0,1.23-3,24.21,24.21,0,0,0,.73-3.25,22,22,0,0,0-.09-7.56,23.15,23.15,0,0,0-2.48-6.92,21.78,21.78,0,0,0-4.4-5.55,24,24,0,0,0-2.69-2.16,23,23,0,0,0-2.93-1.65l-.75-.36c-.25-.12-.52-.2-.77-.3-.52-.18-1-.39-1.54-.55a24.92,24.92,0,0,0-3.12-.69,23.49,23.49,0,0,0-3.1-.28c-.5,0-1,0-1.51,0s-1,0-1.49.11a22.43,22.43,0,0,0-16.36,10.34,26.91,26.91,0,0,0-1.73,3.28,25.86,25.86,0,0,0-1,2.95c-.11.45-.22.88-.31,1.28s-.12.8-.17,1.15-.1.69-.14,1,0,.57,0,.82c0,.48,0,.85,0,1.12a3.64,3.64,0,0,0,0,.38s0-.13,0-.38,0-.64.09-1.11c0-.25,0-.52.05-.82s.11-.63.16-1,.13-.73.19-1.14.22-.82.34-1.27a23.9,23.9,0,0,1,1-2.91,25.88,25.88,0,0,1,1.74-3.23,22.68,22.68,0,0,1,6.17-6.37,22.27,22.27,0,0,1,10-3.74,10.18,10.18,0,0,1,1.47-.1,14.75,14.75,0,0,1,1.49,0,22.61,22.61,0,0,1,3,.28,24.19,24.19,0,0,1,3.07.69c.5.16,1,.37,1.51.55a6.83,6.83,0,0,1,.75.29l.74.35a20.47,20.47,0,0,1,5.52,3.76,22,22,0,0,1,4.3,5.46,22.59,22.59,0,0,1,2.43,6.78,22,22,0,0,1,.09,7.42,23,23,0,0,1-.72,3.19,23.66,23.66,0,0,1-1.21,3,22.3,22.3,0,0,1-1.57,2.78,24.79,24.79,0,0,1-2,2.46,23.88,23.88,0,0,1-2.23,2.16c-.38.33-.81.62-1.21.93l-.61.45-.65.4a22.69,22.69,0,0,1-5.39,2.45,23.15,23.15,0,0,1-2.81.62c-.47.07-.93.15-1.4.2l-1.4.07a20.87,20.87,0,0,1-5.39-.45,22.37,22.37,0,0,1-9-4.17.16.16,0,0,0-.23,0,.18.18,0,0,0,0,.21h0l.11-.27-7.5,1,.15.19c.79-2.57,1.5-4.92,2.13-7a.17.17,0,0,0,0-.1,22.48,22.48,0,0,1-3.1-8.45c-.15-1-.2-1.84-.23-2.38l0-.62A.8.8,0,0,0,636.65,128.34Z" style="fill:#263238"></path><path d="M653.16,128.69a2.6,2.6,0,1,1-2.59-2.61A2.6,2.6,0,0,1,653.16,128.69Z" style="fill:#263238"></path><path d="M661.59,128.75a2.6,2.6,0,1,1-2.59-2.6A2.59,2.59,0,0,1,661.59,128.75Z" style="fill:#263238"></path><path d="M669.89,127.45a2.6,2.6,0,1,1-3.55-1A2.61,2.61,0,0,1,669.89,127.45Z" style="fill:#263238"></path></g><g id="freepik--speech-bubbles-3--inject-372"><path d="M459.45,71.56a26.9,26.9,0,1,1,10.37,21.29h0l-9,1.16,2.59-8.37A26.72,26.72,0,0,1,459.45,71.56Z" style="fill:#fff"></path><path d="M459.45,71.56a20.49,20.49,0,0,0,.19,3.87,26.53,26.53,0,0,0,3.63,10.3l0-.12c-.77,2.46-1.65,5.28-2.62,8.36a.18.18,0,0,0,.12.22h.07l9-1.14a.21.21,0,0,0,.18-.22.3.3,0,0,0,0-.1h0l-.28.28a27,27,0,0,0,10.91,5.13,25.57,25.57,0,0,0,6.59.58l1.72-.08c.57-.06,1.14-.16,1.71-.24a26.15,26.15,0,0,0,3.44-.76,26.65,26.65,0,0,0,6.61-3l.79-.48.75-.55c.5-.38,1-.73,1.5-1.14a28.22,28.22,0,0,0,2.72-2.64,29.54,29.54,0,0,0,2.41-3,28.3,28.3,0,0,0,1.92-3.4,29.36,29.36,0,0,0,1.49-3.67,30.28,30.28,0,0,0,.87-3.91,26.46,26.46,0,0,0-.1-9.1,28,28,0,0,0-3-8.31,26.73,26.73,0,0,0-5.29-6.69A25.07,25.07,0,0,0,498,47.16l-.9-.43c-.3-.14-.61-.24-.92-.36-.62-.22-1.23-.47-1.85-.66a28.15,28.15,0,0,0-3.76-.83,24.71,24.71,0,0,0-3.72-.33,15.74,15.74,0,0,0-1.82.05,15.08,15.08,0,0,0-1.79.13A27.11,27.11,0,0,0,471,49.35a27.39,27.39,0,0,0-7.45,7.81,30.26,30.26,0,0,0-2.08,3.94,28.8,28.8,0,0,0-1.17,3.56c-.13.54-.27,1-.38,1.54s-.14,1-.2,1.38-.12.82-.17,1.19,0,.69-.05,1c0,.57,0,1,0,1.34s0,.46,0,.46a4.35,4.35,0,0,0,.05-.46c0-.32.06-.77.1-1.34,0-.29,0-.62.07-1s.12-.75.19-1.17.15-.89.23-1.37.26-1,.4-1.53a28.17,28.17,0,0,1,1.2-3.51,31.14,31.14,0,0,1,2.09-3.88,27.16,27.16,0,0,1,7.42-7.67,26.89,26.89,0,0,1,12.07-4.5A17,17,0,0,1,485,45a15.23,15.23,0,0,1,1.79,0,25.29,25.29,0,0,1,3.66.34,27.18,27.18,0,0,1,3.69.83c.61.18,1.21.43,1.82.65.3.12.61.22.91.35l.88.43a28.46,28.46,0,0,1,3.47,2,29.24,29.24,0,0,1,3.17,2.55,26.4,26.4,0,0,1,5.18,6.58,27.22,27.22,0,0,1,2.92,8.16,25.92,25.92,0,0,1,.1,8.92,29.05,29.05,0,0,1-.85,3.83,30.79,30.79,0,0,1-1.46,3.6,27.34,27.34,0,0,1-1.89,3.34,29.65,29.65,0,0,1-2.35,3,27.25,27.25,0,0,1-2.67,2.6c-.47.4-1,.75-1.47,1.12l-.73.55-.78.47a27,27,0,0,1-6.48,3,27.31,27.31,0,0,1-3.38.75c-.57.08-1.13.18-1.69.24l-1.68.08a25.28,25.28,0,0,1-6.49-.54,26.84,26.84,0,0,1-10.76-5,.2.2,0,0,0-.28,0,.21.21,0,0,0,0,.25h0l.13-.32-9,1.19.19.23c.94-3.09,1.8-5.92,2.56-8.39a.14.14,0,0,0,0-.11,27,27,0,0,1-3.72-10.17c-.19-1.25-.24-2.21-.29-2.87,0-.31,0-.55,0-.73A1.15,1.15,0,0,0,459.45,71.56Z" style="fill:#263238"></path><path d="M479.31,72a3.13,3.13,0,1,1-3.12-3.14A3.13,3.13,0,0,1,479.31,72Z" style="fill:#263238"></path><path d="M489.45,72.06a3.13,3.13,0,1,1-3.11-3.14A3.12,3.12,0,0,1,489.45,72.06Z" style="fill:#263238"></path><path d="M499.43,70.49a3.13,3.13,0,1,1-4.27-1.16A3.13,3.13,0,0,1,499.43,70.49Z" style="fill:#263238"></path></g><g id="freepik--speech-bubble-2--inject-372"><path d="M269.35,132a26.89,26.89,0,1,1,10.36,21.3h0l-9,1.16,2.58-8.37A26.74,26.74,0,0,1,269.35,132Z" style="fill:#fff"></path><path d="M269.35,132a19.55,19.55,0,0,0,.19,3.88,26.61,26.61,0,0,0,3.62,10.29V146c-.77,2.46-1.66,5.28-2.62,8.36a.18.18,0,0,0,.11.22h.08l9-1.13a.2.2,0,0,0,.17-.23.15.15,0,0,0,0-.09v0l-.28.28a27.19,27.19,0,0,0,10.91,5.14,25.69,25.69,0,0,0,6.6.58l1.71-.08c.57-.06,1.14-.16,1.72-.24a28.27,28.27,0,0,0,3.44-.76,27.57,27.57,0,0,0,6.61-3l.79-.48.75-.56c.49-.38,1-.72,1.49-1.13a28.43,28.43,0,0,0,2.73-2.65,29.33,29.33,0,0,0,2.4-3,29.43,29.43,0,0,0,3.41-7.08,28.26,28.26,0,0,0,.88-3.9,26.71,26.71,0,0,0-.11-9.1,28,28,0,0,0-3-8.31,26.77,26.77,0,0,0-5.29-6.69,29.51,29.51,0,0,0-3.24-2.6,28.59,28.59,0,0,0-3.53-2l-.9-.44c-.3-.13-.62-.23-.93-.35-.62-.22-1.23-.47-1.85-.66a28,28,0,0,0-3.75-.83,26.38,26.38,0,0,0-3.72-.34c-.62,0-1.22,0-1.83.05a15.24,15.24,0,0,0-1.79.14,26.93,26.93,0,0,0-19.68,12.43,30.14,30.14,0,0,0-2.07,3.94,27.6,27.6,0,0,0-1.17,3.55c-.13.55-.28,1.06-.38,1.55s-.14.95-.2,1.38-.12.82-.18,1.18,0,.7,0,1c0,.58,0,1-.05,1.35s0,.45,0,.45,0-.15,0-.45.05-.77.09-1.34c0-.3.05-.62.07-1s.13-.75.2-1.18.14-.88.22-1.37.26-1,.4-1.52a29.91,29.91,0,0,1,1.2-3.51,30.53,30.53,0,0,1,2.09-3.89,27.32,27.32,0,0,1,7.43-7.66,26.8,26.8,0,0,1,12.06-4.5,14.72,14.72,0,0,1,1.76-.12,15.45,15.45,0,0,1,1.8,0,27,27,0,0,1,3.66.33,28.78,28.78,0,0,1,3.69.83c.61.19,1.2.44,1.81.66.3.12.62.21.91.35l.89.43a28.26,28.26,0,0,1,3.46,1.95,28.62,28.62,0,0,1,3.17,2.56,26.34,26.34,0,0,1,5.19,6.57,27.7,27.7,0,0,1,2.92,8.16,26.23,26.23,0,0,1,.1,8.93,29.08,29.08,0,0,1-.86,3.83,29.74,29.74,0,0,1-1.45,3.6,30.26,30.26,0,0,1-1.89,3.34,28.36,28.36,0,0,1-2.36,3,27.28,27.28,0,0,1-2.67,2.6c-.47.4-1,.74-1.46,1.12l-.74.54-.78.48a26.36,26.36,0,0,1-6.48,2.94,25.26,25.26,0,0,1-3.38.75c-.56.08-1.12.19-1.68.25l-1.69.08a24.77,24.77,0,0,1-6.48-.55,26.89,26.89,0,0,1-10.76-5,.2.2,0,0,0-.28,0,.2.2,0,0,0,0,.25h0l.14-.32-9,1.19.19.22c.95-3.09,1.81-5.91,2.56-8.38a.17.17,0,0,0,0-.12,26.72,26.72,0,0,1-3.72-10.16c-.19-1.25-.25-2.22-.29-2.87,0-.31,0-.55,0-.74S269.35,132,269.35,132Z" style="fill:#263238"></path><path d="M289.2,132.4a3.13,3.13,0,1,1-3.11-3.14A3.12,3.12,0,0,1,289.2,132.4Z" style="fill:#263238"></path><path d="M299.35,132.47a3.13,3.13,0,1,1-3.12-3.13A3.13,3.13,0,0,1,299.35,132.47Z" style="fill:#263238"></path><path d="M309.33,130.91a3.13,3.13,0,1,1-4.27-1.16A3.14,3.14,0,0,1,309.33,130.91Z" style="fill:#263238"></path></g><g id="freepik--character-3--inject-372"><path d="M542.77,259.68c-.65.65-11.07,23.88-10.4,40s10.4,72.26,10.4,72.26l15.54,86.83h22.56s0-55.51-2-70.71-4.38-23.56-5.05-34.73-.87-34.64-1.54-33.71,52.06,136.05,52.06,136.05l22.18-1.47s-8-46.38-9.72-55.17-8.42-35.77-13.47-49.42-6.82-47.68-13.81-62.32-7-19.24-7-19.24Z" style="fill:#263238"></path><path d="M559.63,439.23l1.18,21.58s-21.53,8.44-21.7,12.45l41.91-.79-.46-33.69Z" style="fill:#263238"></path><path d="M581,472.47l0-3.26-40.25,1.89s-1.85.85-1.61,2.16Z" style="fill:#455a64"></path><path d="M560.12,460.61c0,.2,1,.27,2.06.91s1.57,1.49,1.76,1.41-.14-1.26-1.39-2S560.08,460.42,560.12,460.61Z" style="fill:#fff"></path><path d="M555.76,462.51c0,.2.85.53,1.56,1.38s.93,1.76,1.14,1.75.31-1.17-.6-2.21S555.76,462.31,555.76,462.51Z" style="fill:#fff"></path><path d="M553.37,467.82c.18,0,.45-1-.1-2.1s-1.51-1.54-1.59-1.37.52.76,1,1.68S553.16,467.8,553.37,467.82Z" style="fill:#fff"></path><path d="M639.19,436.61l7,25.17,11.31,18.3a2.68,2.68,0,0,1-1,3.78h0a2.62,2.62,0,0,1-2.45,0c-4.93-2.49-23-11.77-23.43-13.64-.48-2.17-9.2-26.06-9.2-26.06Z" style="fill:#263238"></path><path d="M656.51,483.86l-26.4-15.31.32,1.06a4,4,0,0,0,1.68,2.22c2.16,1.39,8.19,5.07,21.88,12.08a2.65,2.65,0,0,0,2.52-.05Z" style="fill:#455a64"></path><path d="M647.47,474.68a5.75,5.75,0,0,1,4.31-4c0-.07-.37-.17-1-.07a4.26,4.26,0,0,0-3.34,3.12C647.33,474.29,647.4,474.67,647.47,474.68Z" style="fill:#fff"></path><path d="M650.27,477.48c.15.07.71-1,1.89-1.75a22.86,22.86,0,0,1,2.34-1.06,3,3,0,0,0-2.66.58C650.5,476.13,650.12,477.45,650.27,477.48Z" style="fill:#fff"></path><path d="M642.85,471.39A13.89,13.89,0,0,1,649,466.5a7.34,7.34,0,0,0-6.17,4.89Z" style="fill:#fff"></path><path d="M640.07,463.92c.11.13,1.31-.87,3.09-1.48s3.34-.62,3.34-.79a5.22,5.22,0,0,0-3.53.25A5.12,5.12,0,0,0,640.07,463.92Z" style="fill:#fff"></path><path d="M637.78,458a13.35,13.35,0,0,1,3.19-1.63,12.8,12.8,0,0,1,3.56-.17c0-.07-.34-.3-1-.46a5.78,5.78,0,0,0-2.69.08,5.72,5.72,0,0,0-2.38,1.28C637.93,457.61,637.73,458,637.78,458Z" style="fill:#fff"></path><path d="M559.53,147.26a5.89,5.89,0,0,0-.76-.84,3.87,3.87,0,0,0-2.89-1,2.6,2.6,0,0,0-.39.05,4.12,4.12,0,0,0-2.44,1.67,4.82,4.82,0,0,0,0,5,3.69,3.69,0,0,0,6.87-.48A4.59,4.59,0,0,0,559.53,147.26Z" style="fill:#455a64"></path><path d="M584.69,191.68l12.64-63.48a4.19,4.19,0,0,0-3.1-4.73l-21.17-8.73C566.13,113,560.2,121,558.73,128c-1.62,7.77-3.3,17.33-3.22,23.32.17,12,9,14.84,9,14.84s-.81,9.66-.81,9.66l-2.16,15.05Z" style="fill:#ae7461"></path><path d="M559.83,138.16a1.53,1.53,0,0,0,1.24,1.73,1.46,1.46,0,0,0,1.75-1.14,1.52,1.52,0,0,0-1.23-1.73A1.46,1.46,0,0,0,559.83,138.16Z" style="fill:#263238"></path><path d="M560.09,133.26c.16.23,1.43-.45,3-.22s2.7,1.23,2.91,1.05,0-.45-.51-.91a4.16,4.16,0,0,0-2.29-1.08,4,4,0,0,0-2.46.42C560.24,132.83,560,133.16,560.09,133.26Z" style="fill:#263238"></path><path d="M575,140.7a1.52,1.52,0,0,0,1.24,1.73A1.45,1.45,0,0,0,578,141.3a1.54,1.54,0,0,0-1.23-1.74A1.47,1.47,0,0,0,575,140.7Z" style="fill:#263238"></path><path d="M576,135.87c.16.22,1.43-.46,3.05-.22s2.7,1.23,2.9,1,0-.46-.5-.91a4.2,4.2,0,0,0-2.29-1.08,4,4,0,0,0-2.46.42C576.16,135.44,575.94,135.77,576,135.87Z" style="fill:#263238"></path><path d="M568.38,147.07a10.81,10.81,0,0,0-2.57-.86c-.4-.1-.78-.24-.81-.53a2.06,2.06,0,0,1,.45-1.19c.54-1,1.1-2,1.68-3,2.36-4.25,4.12-7.77,4-7.86s-2.22,3.28-4.57,7.53c-.57,1.05-1.12,2.05-1.63,3a2.33,2.33,0,0,0-.45,1.59,1,1,0,0,0,.59.71,2.73,2.73,0,0,0,.69.2A11.18,11.18,0,0,0,568.38,147.07Z" style="fill:#263238"></path><path d="M564.49,166.13a30.29,30.29,0,0,0,16.37-1.93s-5,7.53-16.62,4.73Z" style="fill:#6f4439"></path><path d="M574.81,150.65c-.35-.8-.64-1.45-1.49-1.61L569,151.6a1.36,1.36,0,0,0,.28.66c.62.73.86,1.42,1.74,1.77a3.12,3.12,0,0,0,3.08-.77A2.64,2.64,0,0,0,574.81,150.65Z" style="fill:#6f4439"></path><path d="M576,131.37c.1.47,1.75.49,3.62,1s3.34,1.24,3.65.88c.14-.17-.06-.62-.62-1.14a6.54,6.54,0,0,0-5.54-1.44C576.37,130.86,576,131.15,576,131.37Z" style="fill:#263238"></path><path d="M561.37,128.65c.23.41,1.41.19,2.76.36s2.45.61,2.76.26c.15-.17,0-.57-.43-1a4.06,4.06,0,0,0-4.45-.5C561.48,128.09,561.27,128.45,561.37,128.65Z" style="fill:#263238"></path><path d="M604.92,109.77a4.15,4.15,0,0,0,3.64-4.07A5.44,5.44,0,0,0,605.4,101a8.08,8.08,0,0,0-5.87-.27,12.53,12.53,0,0,0-18-7.06,4.45,4.45,0,0,0-1.64,1.4,2,2,0,0,0-.11,2,3.31,3.31,0,0,0-4.26,4.81L599,117.71a7.05,7.05,0,0,0,5.65.63,5.14,5.14,0,0,0,3.47-4.3A4.09,4.09,0,0,0,604.92,109.77Z" style="fill:#263238"></path><path d="M600.16,122.48c2.67-2.14,2.13-5,.93-8.25s-3.81-5.68-6.62-7.63a31.72,31.72,0,0,0-12.9-5.69c-4.08-.79-7.92-.29-9.76,2.16s-1.22,4.25-1.22,4.25a29.44,29.44,0,0,0-8.37,4c-5.87,4.14-8,8.85-8.72,13.83-.56,3.62-.44,10.54,3.14,14.09.59-3.8.91-5.59,1.65-9.16.07-.34,1.55-3.35,1.65-3.7,3.46-4.79,7.9-7,14.41-7.59,3.8,1.47,10,5.14,14.38,14,3.35,6.88,4,14.62,4.11,17.89l-.33,1.64,1.06.38a27.35,27.35,0,0,0,8.94-14.72A23,23,0,0,0,600.16,122.48Z" style="fill:#C53F3F"></path><path d="M600.16,122.48s-.73-.32-2-.87a41.5,41.5,0,0,0-5.73-1.91,45.31,45.31,0,0,0-8.81-1.4,48.92,48.92,0,0,0-5.28,0,42.87,42.87,0,0,0-5.63.62,25.75,25.75,0,0,0-5.39,1.61,18.18,18.18,0,0,0-4.42,2.76,15.46,15.46,0,0,0-4.56,7.45,40.66,40.66,0,0,0-1.21,5.91c-.1.7-.19,1.25-.26,1.63a2.42,2.42,0,0,1-.13.56,2.13,2.13,0,0,1,0-.58c0-.43.09-1,.16-1.64a35.85,35.85,0,0,1,1.06-6,15.66,15.66,0,0,1,4.59-7.72,18.59,18.59,0,0,1,4.54-2.85,25.66,25.66,0,0,1,5.5-1.67,43.89,43.89,0,0,1,5.69-.61,47.15,47.15,0,0,1,5.33,0,43.64,43.64,0,0,1,8.89,1.52,36.78,36.78,0,0,1,5.71,2.08q1,.47,1.47.75A2.25,2.25,0,0,1,600.16,122.48Z" style="fill:#263238"></path><path d="M600.46,122.42a8.52,8.52,0,0,1-.91-1,32.24,32.24,0,0,0-2.58-2.68,37.86,37.86,0,0,0-10.2-6.69,59.11,59.11,0,0,0-11.68-3.72c-1.54-.33-2.79-.57-3.66-.73a8.65,8.65,0,0,1-1.34-.3,5.65,5.65,0,0,1,1.37.1c.88.1,2.14.28,3.7.57A52,52,0,0,1,587,111.56a35.08,35.08,0,0,1,10.24,6.89,26,26,0,0,1,2.49,2.82A5.8,5.8,0,0,1,600.46,122.42Z" style="fill:#263238"></path><path d="M595.73,151.43a6.72,6.72,0,0,0-.77-.85,3.93,3.93,0,0,0-2.89-1l-.38.05a4.09,4.09,0,0,0-2.44,1.67,4.82,4.82,0,0,0,0,5,3.69,3.69,0,0,0,6.88-.48A4.57,4.57,0,0,0,595.73,151.43Z" style="fill:#455a64"></path><path d="M572,154.23a4.1,4.1,0,0,0,1.58-.7,2.59,2.59,0,0,0,.93-1.54,2.69,2.69,0,0,0-.51-2.1c-.24-.3-.55-.6-.82-.55a3.19,3.19,0,0,0-1,.48l-1.68,1a8,8,0,0,1-1.61.82,8.33,8.33,0,0,1,1.46-1.06l1.65-1.06a3.17,3.17,0,0,1,1.09-.55,1,1,0,0,1,.71.21,2.78,2.78,0,0,1,.48.49,3.06,3.06,0,0,1,.55,2.42,2.79,2.79,0,0,1-1.12,1.68A2.19,2.19,0,0,1,572,154.23Z" style="fill:#263238"></path><path d="M521.12,207.94l16.81,19.82.33-5.46,18.61,4s-4.65,26.86-8.51,28.86-6.65,2.79-15.69-8.91-19-31.4-19-31.4Z" style="fill:#ae7461"></path><path d="M520.58,207.4s-1-2.68-5.47-3.45-13.39,1.19-14.34,1.49-7.86-1.07-9.46.65-1.13,2.26-1.13,2.26l18.74,3.22Z" style="fill:#ae7461"></path><path d="M521.12,207.94s-3-3.81-9.64-2.86c-3.24.47-9.82,2.2-10.77,2.2s-6.67-1.43-8.1-.71a2.06,2.06,0,0,0-1.27,2s-5.27-2.58-6.4-.88l-.3.44s-3.15-1.24-3.33,1.25L486,212s-4.49-1.5-4.73,1.66c0,0,8.21,2.74,9.46,2.68a17,17,0,0,0,3.63-1,45.94,45.94,0,0,0,6.28.48c2-.12,12.4-1.07,12.94-1S521.12,207.94,521.12,207.94Z" style="fill:#ae7461"></path><path d="M491.89,208.7c0,.05-.77-.3-2.09-.73a14,14,0,0,0-2.39-.58,4.7,4.7,0,0,0-1.45,0,1.33,1.33,0,0,0-1.08.77l0,.06,0,.05a.48.48,0,0,0,.07.69,4.26,4.26,0,0,0,1,.5l2.31.93,4.62,1.8c.7.27,1.39.55,2,.76a16.39,16.39,0,0,0,1.83.32,34.35,34.35,0,0,1,3.69.53,4.17,4.17,0,0,1-1,0c-.64,0-1.57-.07-2.73-.18a14.54,14.54,0,0,1-1.89-.27c-.68-.22-1.34-.47-2.06-.73-1.43-.53-3-1.12-4.64-1.77-.8-.31-1.57-.62-2.32-.94a4.43,4.43,0,0,1-1.12-.61,1,1,0,0,1-.33-.66,1.08,1.08,0,0,1,.22-.7l0,.1a1.73,1.73,0,0,1,1.47-1.11,4.92,4.92,0,0,1,1.59,0,13,13,0,0,1,2.43.7A6.93,6.93,0,0,1,491.89,208.7Z" style="fill:#6f4439"></path><path d="M494.92,215.44a3.52,3.52,0,0,1-2.23-.08,42.41,42.41,0,0,1-4.84-2.27c-1.85-1-3.5-1.86-4.68-2.53a9.06,9.06,0,0,1-1.86-1.2,10,10,0,0,1,2,.87c1.23.59,2.9,1.44,4.75,2.39s3.5,1.88,4.71,2.39A12,12,0,0,0,494.92,215.44Z" style="fill:#6f4439"></path><path d="M519.12,206.63s-.52-.33-1.52-.78a10.27,10.27,0,0,0-4.45-.95,41.68,41.68,0,0,0-6.75,1.24l-3.95,1a11.74,11.74,0,0,1-2.17.43,10.27,10.27,0,0,1-2.25-.37,16.46,16.46,0,0,0-4.16-.57A3.68,3.68,0,0,0,492,207a1,1,0,0,0-.24,1.39l-.13-.11a67.91,67.91,0,0,0,9.37,2.42c1.17.22,2.1.37,2.73.47a4.61,4.61,0,0,1,1,.19,3.92,3.92,0,0,1-1,0c-.65-.05-1.59-.15-2.77-.33a59,59,0,0,1-9.47-2.25l-.09,0,0-.08a1.79,1.79,0,0,1-.25-1.07,1.29,1.29,0,0,1,.62-1,4,4,0,0,1,2.1-.45,16.7,16.7,0,0,1,4.29.57,9.23,9.23,0,0,0,2.12.36,13.11,13.11,0,0,0,2.06-.4l4-1a37.8,37.8,0,0,1,6.85-1.14,9.74,9.74,0,0,1,4.55,1.13,10.08,10.08,0,0,1,1.09.66C519,206.5,519.13,206.61,519.12,206.63Z" style="fill:#6f4439"></path><path d="M535.24,222.41s-.71-27.29,1.82-33.21,6-7.41,9.35-8.68,17.35-5.68,17.35-5.68,4.14,6.23,10,6.08c9.55-.24,14.77-8.36,14.77-8.36s14.91-.5,20.36.56L614,211.57s-8.08,52-11.58,56.48S572.88,282.49,560,278.47s-21.45-12.89-20.3-18.05c1.24-5.62,7.17-25.21,5.9-31.87C545.43,227.7,535.24,222.41,535.24,222.41Z" style="fill:#C53F3F"></path><path d="M608.76,173a54.7,54.7,0,0,1,9.54,4.23c6.39,3.36,25.91,22.72,25.91,22.72l-18.73,20.94L611.09,209l-11.64-19.53Z" style="fill:#C53F3F"></path><path d="M541.37,201a4.7,4.7,0,0,1,.11,1.13c0,.84.09,1.86.14,3.07.13,2.59.37,6.16.94,10.07a87.44,87.44,0,0,0,2.06,9.89c.68,2.5,1.18,4,1.1,4.05a4.63,4.63,0,0,1-.45-1c-.27-.68-.61-1.67-1-2.92a66.41,66.41,0,0,1-2.22-9.92,76.64,76.64,0,0,1-.79-10.13c0-1.3,0-2.35,0-3.08A4.87,4.87,0,0,1,541.37,201Z" style="fill:#263238"></path><path d="M611.92,174.84c.05.07-1,.71-2.43,2.1a16.51,16.51,0,0,0-4.88,14c.24,2,.68,3.12.59,3.15a2.61,2.61,0,0,1-.37-.79,14,14,0,0,1-.59-2.31,15.74,15.74,0,0,1,5-14.32,13.32,13.32,0,0,1,1.9-1.44A2.46,2.46,0,0,1,611.92,174.84Z" style="fill:#263238"></path><path d="M627,219.28c1.84,1,8.42,7.18,8.42,7.18L608,251.73l4.51,8.52s28-16.32,35.89-20,12.63-8.5,11.46-16-17.83-21.89-17.83-21.89Z" style="fill:#ae7461"></path><path d="M610.93,249.19c-.18.15-6.66,4.64-7.59,9.52,0,0-1.09,5.81-2.17,12.23s-1.43,8.89-.83,9.66c1.16,1.46,2.85.86,3.39-.88a59.48,59.48,0,0,0,.92-7.76s1,6.6,1.06,6.87l3.35,7.52a48.17,48.17,0,0,0,1-5.89c.3-3.86-1-10.37-.6-15.64.22-2.64,9.08-8,9.08-8S611.1,249,610.93,249.19Z" style="fill:#ae7461"></path><path d="M645.7,222.16a25.77,25.77,0,0,0-5.67,1.17,26.64,26.64,0,0,0-5,2.87,12.15,12.15,0,0,1,10.7-4Z" style="fill:#6f4439"></path></g><g id="freepik--character-2--inject-372"><path d="M446.28,240.61H268.35a34.12,34.12,0,0,0-34.12,34.12V377.37a34.13,34.13,0,0,0,34.12,34.12h73.51l22.66,32.64,22.67-32.64h59.09a34.12,34.12,0,0,0,34.12-34.12V274.73A34.11,34.11,0,0,0,446.28,240.61Z" style="fill:#fff"></path><path d="M446.28,240.61s.44,0,1.29,0a26.3,26.3,0,0,1,3.8.33,34,34,0,0,1,13.73,5.2,35.92,35.92,0,0,1,7.95,7.27,33.53,33.53,0,0,1,6,11.39c.27,1.13.63,2.27.84,3.46.09.6.19,1.2.28,1.81a12.64,12.64,0,0,1,.21,1.84c.18,2.51.14,5.08.15,7.74,0,5.31,0,10.95,0,16.89,0,11.89,0,25,0,39.23,0,7.1,0,14.49,0,22.13V369.6a119.2,119.2,0,0,1-.29,12,34,34,0,0,1-11.71,21.78,34.14,34.14,0,0,1-17.91,8l-.84.13-.84,0-1.69.09c-1.14.08-2.26,0-3.4,0l-56.73,0,.2-.11-22.66,32.65-.21.3-.2-.3c-7.19-10.34-14.87-21.4-22.67-32.64l.21.11H275c-3.47,0-6.93.08-10.41-.22a36.25,36.25,0,0,1-10-2.67,34.94,34.94,0,0,1-8.69-5.5,33.38,33.38,0,0,1-6.64-7.74,32.64,32.64,0,0,1-4.06-9.28c-.19-.82-.46-1.63-.59-2.46l-.38-2.49c-.14-.83-.11-1.68-.18-2.51s-.09-1.68-.07-2.51v-9.93c0-26.35,0-51.77,0-76q0-4.54,0-9v-6.7l.11-2.22a34.12,34.12,0,0,1,5.46-16.5,34.14,34.14,0,0,1,28.24-15.59h59.92l86.75.09,23.58,0,6.13,0,2.09,0-2.09,0-6.13,0-23.58.05-86.75.08-59.91.06A33.67,33.67,0,0,0,240,256.26a33.56,33.56,0,0,0-5.38,16.28l-.11,2.19v15.72c0,24.22,0,49.64,0,76v9.93c0,.83,0,1.66.08,2.48s0,1.66.17,2.48l.38,2.45c.12.82.39,1.62.58,2.43a32.26,32.26,0,0,0,4,9.13,32.91,32.91,0,0,0,6.55,7.63,34.34,34.34,0,0,0,8.56,5.41,35.52,35.52,0,0,0,9.85,2.63c3.4.3,6.88.2,10.35.21h67l.08.11L364.73,444h-.41c7.83-11.27,15.5-22.32,22.67-32.63l.07-.11h.13l56.73,0c1.13,0,2.27,0,3.38-.05l1.67-.09c.28,0,.56,0,.84-.05l.82-.12a33.59,33.59,0,0,0,17.69-7.85,33.62,33.62,0,0,0,11.58-21.5c.45-4,.25-8.05.3-12s0-7.83,0-11.66c0-7.64,0-15,0-22.13,0-14.22,0-27.34,0-39.23,0-5.94,0-11.58,0-16.89,0-2.66,0-5.24-.13-7.72a12.35,12.35,0,0,0-.21-1.83l-.27-1.79c-.2-1.19-.56-2.32-.83-3.44a33.44,33.44,0,0,0-5.93-11.34,36,36,0,0,0-7.88-7.25,34.06,34.06,0,0,0-13.67-5.25,27.8,27.8,0,0,0-3.78-.38Z" style="fill:#263238"></path><circle cx="313.59" cy="324.09" r="14.46" transform="translate(-137.32 316.67) rotate(-45)" style="fill:#C53F3F"></circle><circle cx="359.49" cy="324.09" r="14.46" transform="translate(-40.64 596.42) rotate(-76.27)" style="fill:#C53F3F"></circle><circle cx="404.13" cy="324.09" r="14.46" transform="translate(-4.62 642.35) rotate(-76.63)" style="fill:#C53F3F"></circle><path d="M474.65,145.83s9.17-8,11.63-9.36,6.65-.55,10.36-1.12,9-3.06,10.32-2.34c1.59.86-.06,4.46-5.75,6.69l1.66-.14,4,.32s1.49-2.2,2.77-2.19c1.82,0,1.77,1.53,1.77,1.53s2.76-3.26,3.67.26c0,0,3.25-1.23,3.47,1.23,0,0,.72,2-6.23,2.51,0,0-5.91,5.55-7.36,6.11s-6.47-.21-6.47-.21-1.47,2.11-3,2.2c-2.93.17-10.46-.34-10.46-.34l-3,3.54Z" style="fill:#ffbf9d"></path><path d="M498.35,149.18a7.69,7.69,0,0,1,.71-1.17,8.53,8.53,0,0,0,1.39-3.35,6.67,6.67,0,0,0-1.77-4.91c-.32-.4-.67-.79-1-1.19a9.5,9.5,0,0,0-1.15-1.14,1,1,0,0,0-1.27,0,1.72,1.72,0,0,0-.48,1.41,5.14,5.14,0,0,0,2,3.81l.25.19-.24.21a11,11,0,0,0-1.93,2.13l-.13.19-.19-.13a17.86,17.86,0,0,0-6.4-2.68c-1.67-.34-2.67-.35-2.67-.42a3,3,0,0,1,.72,0,15.56,15.56,0,0,1,2,.18,17.19,17.19,0,0,1,6.61,2.57l-.32.07a10.68,10.68,0,0,1,2-2.26l0,.4a5.64,5.64,0,0,1-2.24-4.2,2.2,2.2,0,0,1,.66-1.82,1.46,1.46,0,0,1,1-.37,1.73,1.73,0,0,1,.93.35,9.21,9.21,0,0,1,1.21,1.21c.37.41.72.82,1.05,1.24a6.94,6.94,0,0,1,1.75,5.25,8.2,8.2,0,0,1-1.58,3.42A6.15,6.15,0,0,1,498.35,149.18Z" style="fill:#ff9a6c"></path><path d="M507.42,139.38a19.74,19.74,0,0,1-2.76,3.69c-.42.48-.78,1-1.21,1.36a2.57,2.57,0,0,1-1.41.68,2.43,2.43,0,0,1-1-.12c-.22-.08-.34-.14-.33-.18s.14,0,.37,0a3.05,3.05,0,0,0,.93,0,2.43,2.43,0,0,0,1.14-.67c.36-.37.73-.86,1.14-1.34A20.87,20.87,0,0,1,507.42,139.38Z" style="fill:#ff9a6c"></path><path d="M504.69,148.57c-.11-.11,1.71-2.07,3.62-4.75s3.18-5,3.32-5a19,19,0,0,1-2.9,5.26A18.59,18.59,0,0,1,504.69,148.57Z" style="fill:#ff9a6c"></path><path d="M510.46,145a28.81,28.81,0,0,1,2.37-2.93,18.17,18.17,0,0,1,2.52-2.8,11.19,11.19,0,0,1-2.12,3.13C511.9,144,510.57,145.09,510.46,145Z" style="fill:#ff9a6c"></path><path d="M499.55,140c0-.14.83-.32,1.88-.39s1.92,0,1.93.13-.84.32-1.89.39A3.83,3.83,0,0,1,499.55,140Z" style="fill:#ff9a6c"></path><path d="M376.54,83.2c.2-6-.48-12,0-18s2.36-12.18,6.74-16.3,11.73-5.44,16.48-1.74l.78,5.16c-3,23.08-3.77,46.64-6.73,69.72-.39,3-3,5.68-4.49,8.34s-4.39,4.78-7.43,4.46c-4-.43-6.41-4.59-7.48-8.44C370.55,112.39,376.06,97.7,376.54,83.2Z" style="fill:#263238"></path><path d="M454.72,319c-.48,1-12.91,28.8-12.91,28.8l-13.14-4.54,7.91-30.38Z" style="fill:#ffbf9d"></path><path d="M430.44,336.49S438,347.7,445.23,343l.25,3.58-1.7,24.25a3.17,3.17,0,0,1-2.91,3A3,3,0,0,1,438,372.2c-2.9-5.59-13.44-26.17-12.57-28.17l2-5.06a4.12,4.12,0,0,1,3-2.48Z" style="fill:#263238"></path><path d="M440.31,373.8,426.1,342.13l-.4,1.19c-.56,1.25-.17,2,.15,3,1,3.07,4.11,10.29,12.09,25.85a3,3,0,0,0,2.37,1.63Z" style="fill:#455a64"></path><path d="M438.06,359.32c.13.13,1.27-1.13,3.21-1.35s3.36.64,3.45.48-.23-.4-.86-.72a4.86,4.86,0,0,0-5.15.67C438.18,358.87,438,359.27,438.06,359.32Z" style="fill:#e0e0e0"></path><path d="M439,363.88c.08.18,1.37-.6,3-.66s2.74.56,2.86.37-.93-1.2-2.78-1.09S438.85,363.75,439,363.88Z" style="fill:#e0e0e0"></path><path d="M436,353.21c.09.18,1.95-.76,4.45-.86s4.43.64,4.5.45-1.86-1.24-4.53-1.1S435.86,353.09,436,353.21Z" style="fill:#e0e0e0"></path><path d="M437.8,346.28c0,.2,1.8.08,3.85.69s3.48,1.65,3.6,1.5-1.21-1.49-3.42-2.12S437.76,346.12,437.8,346.28Z" style="fill:#e0e0e0"></path><path d="M442.82,347.31a2.51,2.51,0,0,0,.2-1.11,7.81,7.81,0,0,0-.45-3,3.45,3.45,0,0,0-1.23-1.86,1.22,1.22,0,0,0-1.4.07,2,2,0,0,0-.66,1.26,4.3,4.3,0,0,0,3.15,4.49,5,5,0,0,0,5.23-1.86,1.7,1.7,0,0,0,.29-1.42,1.2,1.2,0,0,0-1.15-.81,4.21,4.21,0,0,0-2.08.72,8.78,8.78,0,0,0-2.35,2,2.61,2.61,0,0,0-.6.95,13.61,13.61,0,0,1,3.17-2.53,4,4,0,0,1,1.83-.59.64.64,0,0,1,.63.44,1.16,1.16,0,0,1-.24.92,4.46,4.46,0,0,1-4.56,1.56,3.74,3.74,0,0,1-2.73-3.77,1.45,1.45,0,0,1,.43-.9.66.66,0,0,1,.77-.05,3.16,3.16,0,0,1,1.07,1.55A11.73,11.73,0,0,1,442.82,347.31Z" style="fill:#e0e0e0"></path><path d="M444,315.68c.28,1.06,9.12,30.21,9.12,30.21l-12.9,5.19L426.26,323Z" style="fill:#ffbf9d"></path><path d="M436.89,345.18s13.21,3.16,15.64-5.16l2.53,2.54L469.67,362a3.14,3.14,0,0,1-.24,4.16,3,3,0,0,1-3.22.63c-5.84-2.32-27.29-11-27.95-13l-2.09-5.37a2.92,2.92,0,0,1,.72-3.2Z" style="fill:#263238"></path><g style="opacity:0.6000000000000001"><path d="M469,366.51,437.5,351.89l.48,1.17c.4,1.31,1.15,1.59,2.08,2.16,2.75,1.69,9.85,5.08,26.07,11.61a3,3,0,0,0,2.86-.32Z" style="fill:#455a64"></path></g><path d="M457.8,357c.18,0,.22-1.68,1.54-3.12s3-1.72,2.92-1.9-.43-.15-1.12,0a4.86,4.86,0,0,0-2.29,1.44,4.75,4.75,0,0,0-1.16,2.44C457.6,356.62,457.72,357.05,457.8,357Z" style="fill:#e0e0e0"></path><path d="M461.26,359.93c.18.06.7-1.19,2-2.18s2.57-1.25,2.55-1.44-1.55-.22-3,.93S461.09,359.91,461.26,359.93Z" style="fill:#e0e0e0"></path><path d="M452.22,353.8c.19.08,1-1.86,2.8-3.56s3.76-2.43,3.69-2.62-2.21.29-4.14,2.14S452.06,353.78,452.22,353.8Z" style="fill:#e0e0e0"></path><path d="M454.43,347s-.12-.39-.57-1a7.87,7.87,0,0,0-2.33-2,3.49,3.49,0,0,0-2.15-.6,1.22,1.22,0,0,0-1,1,2,2,0,0,0,.32,1.39,4.32,4.32,0,0,0,5.33,1.33,5,5,0,0,0,2.73-4.84A1.71,1.71,0,0,0,456,341a1.19,1.19,0,0,0-1.4.14,4.19,4.19,0,0,0-1.1,1.91,8.8,8.8,0,0,0-.47,3,2.91,2.91,0,0,0,.16,1.11,13.83,13.83,0,0,1,.74-4,4,4,0,0,1,1-1.64.64.64,0,0,1,.77-.09,1.21,1.21,0,0,1,.41.86,4.46,4.46,0,0,1-2.41,4.17,3.75,3.75,0,0,1-4.54-1.07,1.41,1.41,0,0,1-.27-1,.67.67,0,0,1,.56-.55,3.22,3.22,0,0,1,1.82.47A11.45,11.45,0,0,1,454.43,347Z" style="fill:#e0e0e0"></path><path d="M371.21,239.39c.51,0,31.38,24.49,33.07,26.94s2.65,19.61,8,35.62,22.43,39.13,22.43,39.13l16.89-4.78s-13.89-67.38-17-78.34-11.85-29.27-11.85-29.27l-6.61-9.46-.94-15.61-42.44-1c-.52,0-9.32,13.73-7.68,26.44C365.85,235.47,371.21,239.39,371.21,239.39Z" style="fill:#263238"></path><path d="M469,234.24c-6.13-11.32-28.47-29.48-28.47-29.48l-4.22-1-25.51-.38s.66,11.78.65,12.3,11.69,28.58,11.69,28.58l15.76,11,2.72,3.16s-4,12.88-5.19,22.95-.62,40.52-.62,40.52l17.44,3.21s14.55-46,16.23-53.61S478.12,251.05,469,234.24Z" style="fill:#263238"></path><path d="M451.55,336.3a1,1,0,0,1-.1-.32c-.06-.24-.13-.55-.22-.94-.19-.87-.46-2.09-.79-3.64-.69-3.21-1.66-7.78-2.86-13.41-2.42-11.32-5.71-27-9.64-44.19-2-8.6-3.88-16.81-6.06-24.12-1.06-3.64-2.94-6.81-4.47-9.83s-3.11-5.79-4.5-8.32l-6.69-12-1.82-3.25-.46-.85a1.78,1.78,0,0,1-.14-.3s.07.08.19.27l.51.82,1.92,3.2c1.65,2.78,4,6.83,6.85,11.87,1.42,2.53,3,5.3,4.57,8.3.8,1.5,1.62,3.06,2.44,4.69a32.8,32.8,0,0,1,2.12,5.21c2.22,7.34,4.12,15.55,6.11,24.15,3.93,17.23,7.16,32.89,9.48,44.23l2.67,13.45c.29,1.56.52,2.79.69,3.67.06.39.12.7.16,1A2.08,2.08,0,0,1,451.55,336.3Z" style="fill:#455a64"></path><path d="M349,228.91a28.84,28.84,0,0,0-4.32,6.41c-.92,2.3-.52,6.56-.08,8.69.71,3.41.89,4.08,2.37,3.64,1-.3-.22-6.24-.22-6.24s2,11.46,4,12.47a1.75,1.75,0,0,0,1.59-.13s.14,2.88,2.12,2.57,1.34-2.43,1.34-2.43a1.87,1.87,0,0,0,2.67-1.19c.65-2.1.62-9,.62-9l3.86-3.37.44-2.53a6,6,0,0,0-.35-3.22,39.49,39.49,0,0,0-2.52-5.11c-.94-1.57,3.31-19.8,3.31-19.8l2.46-10.21L352,195.62Z" style="fill:#ffbf9d"></path><path d="M350.45,238.86c.16,0,.41,3.35.89,7.46.25,2.06.53,3.91.76,5.25a12.18,12.18,0,0,1,.32,2.18,7.78,7.78,0,0,1-.68-2.11,45,45,0,0,1-.92-5.25c-.24-2.07-.36-3.95-.41-5.32A9,9,0,0,1,350.45,238.86Z" style="fill:#ff9a6c"></path><path d="M354.63,239.18a8.81,8.81,0,0,1,.47,2.12c.21,1.32.45,3.16.64,5.19s.25,3.89.26,5.23a8.66,8.66,0,0,1-.12,2.17,9.42,9.42,0,0,1-.25-2.16c-.12-1.53-.26-3.27-.41-5.19C354.85,242.49,354.48,239.2,354.63,239.18Z" style="fill:#ff9a6c"></path><path d="M359.3,236.61a18.94,18.94,0,0,1-.11,7.4,44.25,44.25,0,0,1,.11-7.4Z" style="fill:#ff9a6c"></path><path d="M361.18,236.65c.1.1-.24.61-.76,1.14s-1,.88-1.12.78.23-.61.75-1.14S361.07,236.55,361.18,236.65Z" style="fill:#ff9a6c"></path><path d="M347.39,244.94a10.53,10.53,0,0,1-.82-2.83,10.79,10.79,0,0,1-.42-2.91,6.89,6.89,0,0,1,.93,2.8A7.17,7.17,0,0,1,347.39,244.94Z" style="fill:#ff9a6c"></path><path d="M474.29,144.63l-15.23,8.8s-4.92-10.65-9.76-24.59c-5.3-15.25-12.56-15.36-12.56-15.36L432.22,147l4.68,13.08s7.19,14.19,11,16c13.32,6.28,37.06-17.92,37.06-17.92Z" style="fill:#C53F3F"></path><path d="M443.72,149.06c1.65-8.69,3.92-23-.64-30.78a20,20,0,0,0-6.63-5.54c-4.73-1.86-18.51-4.8-18.94-5.25h-20l-18.07,5.59c-2.27,1-2.2,2.48-2,4.93L379,147.78l2.62,28C380,179.4,375.87,191,373,198.69c-1.35,3.58-.29,3.89-.29,3.89,21.8,10.3,43.66,11.53,65.58,2,2.82-1.14,1.86-3.55,1.24-6.64-1.37-6.88-1.39-4.24-1.78-9.3-.5-6.47,1.85-23.37,2-23.82S441.6,160.3,443.72,149.06Z" style="fill:#C53F3F"></path><path d="M379.86,112.93s-13.3,4.88-16.16,24.66-8.25,35-10.5,46.95c-1.76,9.36-5.15,38.9-5.15,38.9L361.73,226l15.13-54.84,3.95-17.67,3-14.22Z" style="fill:#C53F3F"></path><path d="M441.16,141.76a3.25,3.25,0,0,1-.63.08l-1.83.13-6.7.41c-5.66.35-13.48.88-22.11,1.6s-16.43,1.5-22.07,2.1l-6.68.71-1.82.17a2.59,2.59,0,0,1-.64,0,3.14,3.14,0,0,1,.63-.13l1.81-.27c1.57-.23,3.84-.53,6.66-.88,5.63-.69,13.43-1.53,22.07-2.25S426.31,142.27,432,142c2.83-.13,5.13-.22,6.72-.25l1.82,0A2.42,2.42,0,0,1,441.16,141.76Z" style="fill:#fff"></path><path d="M376.92,134.11c.14,0,1.31,9.29,2.61,20.78s2.23,20.83,2.08,20.85S380.3,166.45,379,155,376.78,134.13,376.92,134.11Z" style="fill:#263238"></path><path d="M438,126.2s.08.12.18.37.24.63.4,1.11c.34,1,.78,2.4,1.21,4.19a69.38,69.38,0,0,1,1.88,14.23,73.4,73.4,0,0,1-.94,14.33c-.31,1.82-.63,3.27-.88,4.27a10.18,10.18,0,0,1-.46,1.53,10.21,10.21,0,0,1,.26-1.58c.19-1,.45-2.46.71-4.27a82.5,82.5,0,0,0,.79-14.26A78.54,78.54,0,0,0,439.44,132c-.39-1.79-.76-3.22-1-4.21A10.4,10.4,0,0,1,438,126.2Z" style="fill:#263238"></path><path d="M429.65,204a13.29,13.29,0,0,1-1.68.48c-1.08.29-2.67.64-4.64,1a84.93,84.93,0,0,1-31.2-.23c-2-.39-3.55-.76-4.63-1.07a12.43,12.43,0,0,1-1.66-.51,10.64,10.64,0,0,1,1.71.31c1.09.25,2.68.56,4.65.9a94.19,94.19,0,0,0,31.07.24c2-.32,3.56-.61,4.66-.83A10.4,10.4,0,0,1,429.65,204Z" style="fill:#263238"></path><path d="M427.06,176.13a9.29,9.29,0,0,1-1.16,1c-.77.61-1.9,1.47-3.32,2.5-2.84,2.06-6.88,4.76-11.51,7.45s-9,4.84-12.2,6.29c-1.6.72-2.91,1.27-3.82,1.63a8.19,8.19,0,0,1-1.44.52,8.16,8.16,0,0,1,1.36-.7l3.74-1.79c3.16-1.52,7.47-3.72,12.09-6.4s8.68-5.32,11.57-7.3l3.41-2.37A7.81,7.81,0,0,1,427.06,176.13Z" style="fill:#263238"></path><g style="opacity:0.30000000000000004"><path d="M439.44,131.16s5.53,13.52,4.76,20.07a29,29,0,0,1-4,11.49s1.58-12,1.25-16.88S439.44,131.16,439.44,131.16Z"></path></g><path d="M457,162.48a10.39,10.39,0,0,1,1.82-9.13,33.72,33.72,0,0,0-1.48,4.45A32.93,32.93,0,0,0,457,162.48Z" style="fill:#263238"></path><path d="M389.44,51.67a15.32,15.32,0,0,1,2.69-3.82,5.22,5.22,0,0,1,4.26-1.54,2.14,2.14,0,0,1,1.73,1.21c.26.69-.23,1.63-1,1.58l-.15.14c-1.6,1.48-3.23,2.94-4.89,4.36a4.37,4.37,0,0,1-1.37.89,1.5,1.5,0,0,1-1.54-.29C388.59,53.53,389,52.47,389.44,51.67Z" style="fill:#455a64"></path><path d="M386.48,57.1A27.56,27.56,0,0,1,407.57,46c4.84-.19,6.87.77,10.38,1.63a15.37,15.37,0,0,1,8.86,5.56c2.55,3.45,4.72,7.34,5.28,11.59A71.12,71.12,0,0,1,433,78a24.07,24.07,0,0,1-3.83,12.49l-11.14,2.2c-6.17.36-12.43.71-18.48-.56s-12-4.38-15.33-9.58C379.6,75.28,381.2,63.88,386.48,57.1Z" style="fill:#263238"></path><path d="M396.44,56.8l14.77-6.28,3.91.36c8.77-.17,15,9.36,15.26,16.46.25,7.89.24,17.53-.88,23.37-2.25,11.75-12.2,13-12.2,13s.35,6.22.51,10.15l-6.26,10.29-17.09-13.55-1.87-49.67A4.15,4.15,0,0,1,396.44,56.8Z" style="fill:#ffbf9d"></path><path d="M426.81,77.22a1.51,1.51,0,0,1-1.51,1.49,1.45,1.45,0,0,1-1.51-1.42,1.51,1.51,0,0,1,1.5-1.48A1.44,1.44,0,0,1,426.81,77.22Z" style="fill:#263238"></path><path d="M427.8,71.35c-.19.19-1.31-.7-2.94-.75s-2.85.74-3,.53.12-.44.65-.8a4.05,4.05,0,0,1,2.42-.67,4,4,0,0,1,2.34.84C427.74,70.9,427.9,71.26,427.8,71.35Z" style="fill:#263238"></path><path d="M417.64,84.36a10.19,10.19,0,0,1,2.66-.4c.42,0,.82-.1.89-.38a2.12,2.12,0,0,0-.23-1.24l-1.14-3.21c-1.56-4.57-2.68-8.32-2.5-8.38s1.61,3.59,3.17,8.16c.38,1.12.74,2.2,1.08,3.22a2.44,2.44,0,0,1,.17,1.64,1.06,1.06,0,0,1-.71.59,3.21,3.21,0,0,1-.71.08A11.21,11.21,0,0,1,417.64,84.36Z" style="fill:#263238"></path><path d="M417.32,103.65a30.1,30.1,0,0,1-15.69-4.72s4,8.32,15.81,7.59Z" style="fill:#ff9a6c"></path><path d="M427.12,65.66c-.29.39-1.53.08-3,.16s-2.68.42-3,.05c-.14-.18,0-.56.55-1a4.45,4.45,0,0,1,2.39-.76,4.49,4.49,0,0,1,2.43.59C427.05,65.1,427.24,65.47,427.12,65.66Z" style="fill:#263238"></path><path d="M409.43,77.19a1.52,1.52,0,0,0,1.47,1.52,1.46,1.46,0,0,0,1.56-1.38A1.52,1.52,0,0,0,411,75.81,1.46,1.46,0,0,0,409.43,77.19Z" style="fill:#263238"></path><path d="M405.76,71.23c.19.19,1.33-.66,3-.67s2.83.81,3,.61-.11-.45-.63-.83a4.2,4.2,0,0,0-2.41-.72,4,4,0,0,0-2.36.77C405.83,70.78,405.67,71.14,405.76,71.23Z" style="fill:#263238"></path><path d="M406.62,66c.32.37,1.58,0,3.09,0s2.79.23,3.09-.16c.12-.19-.08-.56-.64-.9a4.9,4.9,0,0,0-5,.16C406.65,65.43,406.47,65.81,406.62,66Z" style="fill:#263238"></path><path d="M395.07,80.67c0-.88-.92-3-1.79-3.15-2.3-.44-6.49-.38-6.72,5.51-.3,8,7.84,6.7,7.87,6.47S395,83.71,395.07,80.67Z" style="fill:#ffbf9d"></path><path d="M392.32,86.47s-.15.09-.39.19a1.4,1.4,0,0,1-1.05,0c-.84-.35-1.5-1.73-1.48-3.18a4.39,4.39,0,0,1,.47-2,1.61,1.61,0,0,1,1.09-1,.73.73,0,0,1,.82.42c.09.23,0,.38.08.4s.18-.13.13-.46a.94.94,0,0,0-.3-.52,1.09,1.09,0,0,0-.77-.23,2,2,0,0,0-1.51,1.19,4.57,4.57,0,0,0-.57,2.22c0,1.63.76,3.18,1.91,3.56a1.47,1.47,0,0,0,1.29-.17C392.3,86.67,392.35,86.49,392.32,86.47Z" style="fill:#ff9a6c"></path><path d="M393,77.55l2.09,2.07c8.62-8.65,25.37-30.19,24.44-28.9a25.67,25.67,0,0,0-12.64-1.08c-6.53,1.27-18.89,4.84-18.52,12.57S393,77.55,393,77.55Z" style="fill:#263238"></path><path d="M381.23,76.05a2.43,2.43,0,0,1,.12-.47,8.13,8.13,0,0,1,.52-1.28,11.68,11.68,0,0,1,3.27-3.86A21.92,21.92,0,0,1,391.83,67c2.66-.94,5.68-1.69,8.63-3a39.45,39.45,0,0,0,7.84-4.63,41.46,41.46,0,0,0,5.49-5,45.77,45.77,0,0,0,3.15-3.92l.78-1.13a2,2,0,0,1,.29-.38s-.06.15-.22.42-.39.68-.72,1.18a37.74,37.74,0,0,1-3.06,4,39.08,39.08,0,0,1-5.48,5.14,38.47,38.47,0,0,1-7.91,4.71,88.73,88.73,0,0,1-8.67,3,22,22,0,0,0-6.63,3.28,12,12,0,0,0-3.31,3.7C381.44,75.41,381.28,76.06,381.23,76.05Z" style="fill:#455a64"></path><path d="M383.6,77.26a4.41,4.41,0,0,1,.27-1.77,8.23,8.23,0,0,1,2.94-3.85,18.4,18.4,0,0,1,6.65-2.79A39.41,39.41,0,0,0,401.73,66a35.37,35.37,0,0,0,7.33-4.76,36.08,36.08,0,0,0,5-5.12,38.1,38.1,0,0,0,2.75-4l.66-1.15a2,2,0,0,1,.25-.38,1.66,1.66,0,0,1-.18.42l-.59,1.19a32.79,32.79,0,0,1-2.66,4.07,34.66,34.66,0,0,1-5,5.23,34.11,34.11,0,0,1-7.39,4.84,38.61,38.61,0,0,1-8.36,2.84A18.41,18.41,0,0,0,387,71.87a8.23,8.23,0,0,0-3,3.68A10.21,10.21,0,0,0,383.6,77.26Z" style="fill:#455a64"></path><path d="M393.54,91.16c0-.06-.69-.13-1.88-.42a11.38,11.38,0,0,1-4.56-2.41A16.22,16.22,0,0,1,382.77,82a28.31,28.31,0,0,1-2-9.24,23.74,23.74,0,0,1,.28-4.88,24.35,24.35,0,0,1,1.23-4.39,23.23,23.23,0,0,1,4-6.58,38,38,0,0,1,5.29-4.83s-.16.07-.44.24-.7.42-1.2.8a24.68,24.68,0,0,0-3.93,3.54,22.73,22.73,0,0,0-4.18,6.65,23.36,23.36,0,0,0-1.29,4.48,24.19,24.19,0,0,0-.3,5,27.86,27.86,0,0,0,2,9.39,16.26,16.26,0,0,0,4.54,6.4A11.23,11.23,0,0,0,391.61,91a10.9,10.9,0,0,0,1.43.19A2.36,2.36,0,0,0,393.54,91.16Z" style="fill:#455a64"></path><path d="M412.35,86.2a1.31,1.31,0,0,0-.7-.24,1,1,0,0,0-.61.32,2.76,2.76,0,0,0,1.89,4.77c1.1,0,2.4-.62,3.07-2.61C414.85,87.78,413.5,86.87,412.35,86.2Z" style="fill:#ff9a6c"></path><path d="M412.93,91.12a4,4,0,0,1-1.58-.69,2.59,2.59,0,0,1-.93-1.54,2.69,2.69,0,0,1,.51-2.1c.24-.31.55-.6.82-.55a3.4,3.4,0,0,1,1,.47l1.68,1a8,8,0,0,0,1.61.82,8.21,8.21,0,0,0-1.46-1.06l-1.65-1.06a3.17,3.17,0,0,0-1.09-.55,1,1,0,0,0-.71.21,2.47,2.47,0,0,0-.48.49,3,3,0,0,0-.55,2.41,2.78,2.78,0,0,0,1.12,1.69A2.11,2.11,0,0,0,412.93,91.12Z" style="fill:#263238"></path></g><g id="freepik--character-1--inject-372"><path d="M169.68,203.34l-10.22,24.59-18.54-11.44-7.64,7.7S156.34,250.88,167.2,249c8-1.36,18-34,18-34Z" style="fill:#ffbf9d"></path><path d="M140.82,217.89a14.44,14.44,0,0,0-.95-7.36c-1.56-3.29-2.77-5.63-3.55-7.53s-1.56-3.21-2.85-1.39-.44,4.16.43,5.72,1.82,2.33.26,3.11-5.72-.86-7.71-1.9a55.6,55.6,0,0,0-9.26-3.21c-2.51-.6-3.12.61-3.12.61a2.78,2.78,0,0,0-2.51-.52,1.28,1.28,0,0,0-1,1.82l.69.6a1.71,1.71,0,0,0-.08,2.6c1.38,1.3,8.05,5,8.05,5s-5.35-2.52-6.65-2.35-1,1.57-.28,2,12.64,6.75,14.2,7.88,8.46,2.69,8.46,2.69Z" style="fill:#ffbf9d"></path><path d="M122.68,214.06A54.65,54.65,0,0,1,117,211a56.69,56.69,0,0,1-5.57-3.28,31.18,31.18,0,0,1,5.83,2.83A32.37,32.37,0,0,1,122.68,214.06Z" style="fill:#ff9a6c"></path><path d="M125.4,211.35a56.75,56.75,0,0,1-5.74-2.75,57.32,57.32,0,0,1-5.66-2.9,29.6,29.6,0,0,1,5.89,2.44A29.54,29.54,0,0,1,125.4,211.35Z" style="fill:#ff9a6c"></path><path d="M134.62,218.46s-.48-.26-.87-1a5.3,5.3,0,0,1-.49-3.14,10.17,10.17,0,0,1,1-3c.36-.71.63-1.13.69-1.1s-.08.5-.35,1.25a14.76,14.76,0,0,0-.78,2.92,5.93,5.93,0,0,0,.3,2.91C134.36,218,134.68,218.4,134.62,218.46Z" style="fill:#ff9a6c"></path><path d="M163.67,235.28a10.65,10.65,0,0,1-2.76-3.51,10.4,10.4,0,0,1-1.53-4.18c.15-.05.8,1.82,2,3.93S163.79,235.18,163.67,235.28Z" style="fill:#ff9a6c"></path><path d="M214.65,108.67c-5.46-.54-10.06,1.87-14.39,5.22a27.07,27.07,0,0,0-9.07,13.42,26.79,26.79,0,0,0,.19,17,21.37,21.37,0,0,0,11.43,12.37c7.26,3.08,16.15,1.21,22.1-4s9-13.27,8.74-21.16a26,26,0,0,0-5.18-15.17,19.89,19.89,0,0,0-13.82-7.73" style="fill:#263238"></path><path d="M200.58,128.08c.65-2.12.18-4.4.34-6.61.36-4.86,4-9,8.33-11.18,4.05-2,9.17-2,14.31-.73a19.18,19.18,0,0,1,9.4,5.23,15.13,15.13,0,0,1,3.72,13.39L211.8,126.3a27.57,27.57,0,0,1-7.13,5.43,5.08,5.08,0,0,1-2.54.59,2.31,2.31,0,0,1-2-1.45C199.81,130,200.3,129,200.58,128.08Z" style="fill:#263238"></path><path d="M224.56,116.32l-21.19,6.05a4,4,0,0,0-3.48,4.19l3.49,46.53a14.53,14.53,0,0,0,3.64,8.57l2.24,2.5a10.63,10.63,0,0,0,17.63-2.55,5.43,5.43,0,0,0,.41-1.25c0-.42.13-.71.13-1.06l.09-4.57c-.08-4.16-.34-8.37-.33-8.33s8.72-1.73,10.19-13.23c.73-5.71.16-15-.55-22.65C236.19,123.67,231.38,115.39,224.56,116.32Z" style="fill:#ffbf9d"></path><path d="M235.13,140.06a1.46,1.46,0,0,1-1.37,1.52,1.39,1.39,0,0,1-1.55-1.27,1.47,1.47,0,0,1,1.37-1.53A1.41,1.41,0,0,1,235.13,140.06Z" style="fill:#263238"></path><path d="M235,135.44c-.18.2-1.31-.59-2.89-.54s-2.71.88-2.89.69.09-.44.58-.82a4.08,4.08,0,0,1,2.31-.79,4,4,0,0,1,2.31.67C234.86,135,235,135.35,235,135.44Z" style="fill:#263238"></path><path d="M220.26,140.4a1.46,1.46,0,0,1-1.36,1.52,1.4,1.4,0,0,1-1.56-1.27,1.47,1.47,0,0,1,1.37-1.53A1.4,1.4,0,0,1,220.26,140.4Z" style="fill:#263238"></path><path d="M220,136.09c-.18.2-1.31-.59-2.89-.54s-2.71.88-2.89.69.08-.43.58-.82a4,4,0,0,1,2.31-.78,3.84,3.84,0,0,1,2.3.66C219.88,135.66,220.06,136,220,136.09Z" style="fill:#263238"></path><path d="M225.53,147.74a10.26,10.26,0,0,1,2.55-.54c.4,0,.78-.14.84-.42a2.1,2.1,0,0,0-.31-1.19c-.41-1-.84-2-1.28-3-1.79-4.32-3.1-7.88-2.93-7.95s1.77,3.37,3.56,7.69l1.23,3.06a2.28,2.28,0,0,1,.26,1.57,1,1,0,0,1-.64.61,2.78,2.78,0,0,1-.69.12A10.36,10.36,0,0,1,225.53,147.74Z" style="fill:#263238"></path><path d="M227.18,166.4a29.06,29.06,0,0,1-15.44-3.63s4.09,7.81,15.51,6.39Z" style="fill:#ff9a6c"></path><path d="M219.56,131.42c-.15.44-1.73.28-3.57.56s-3.33.83-3.59.45c-.12-.18.13-.59.72-1a6.25,6.25,0,0,1,5.46-.77C219.27,130.89,219.62,131.22,219.56,131.42Z" style="fill:#263238"></path><path d="M234.28,128.55c-.26.36-1.36,0-2.67,0s-2.41.31-2.68-.06c-.11-.17,0-.54.52-.89a3.85,3.85,0,0,1,4.31,0C234.24,128,234.4,128.37,234.28,128.55Z" style="fill:#263238"></path><path d="M196.41,125c1.77-6.71,10.89-16.31,17.83-16.16l11.36,6.07a10.67,10.67,0,0,1-6.82,8.5c-1.93.69-4.27,1-5.35,2.71s-.28,4.23-1.3,6c-1.4,2.53-5.59,2.62-6.6,5.32-.45,1.18-.12,2.55-.58,3.73-.62,1.56-4.4,3.69-6,3.27s-1.77-3.16-2.36-4.56a7.6,7.6,0,0,1-.49-5.06C196.62,131.63,195.56,128.23,196.41,125Z" style="fill:#263238"></path><path d="M203.72,145.63c0-.85-1.07-2.83-1.92-2.93-2.26-.29-6.3,0-6.17,5.73.19,7.8,8,6,8,5.78S203.82,148.57,203.72,145.63Z" style="fill:#ffbf9d"></path><path d="M201.17,151.31s-.14.1-.36.21a1.33,1.33,0,0,1-1,0c-.83-.28-1.55-1.57-1.63-3a4.52,4.52,0,0,1,.34-2,1.54,1.54,0,0,1,1-1.07.69.69,0,0,1,.81.35c.11.22.06.38.1.39s.17-.14.1-.46a1,1,0,0,0-.32-.48,1,1,0,0,0-.76-.18,1.91,1.91,0,0,0-1.39,1.24,4.72,4.72,0,0,0-.42,2.19c.09,1.57.93,3,2.06,3.32a1.45,1.45,0,0,0,1.24-.23C201.16,151.5,201.2,151.32,201.17,151.31Z" style="fill:#ff9a6c"></path><path d="M223.17,112.74c.94,3.12,6,6.85,8.32,9.17,4.36,4.42,5.26,5.93,5.95,16.45,1.65-3.76,2.86-7.42,2.43-11.51A17,17,0,0,0,234.59,116a13.29,13.29,0,0,0-11.42-3.27" style="fill:#263238"></path><path d="M203.07,105.24a12.85,12.85,0,0,0-6.95-2.36A15.77,15.77,0,0,0,186,105.64a11.15,11.15,0,0,0-4.78,8.6,9.33,9.33,0,0,0,4.94,8.28,15.73,15.73,0,0,1-5.63,4.87,4.59,4.59,0,0,0,3.37,1.18,14.21,14.21,0,0,0,3.64-.7,6.37,6.37,0,0,1-3,3.19,11.82,11.82,0,0,0,5.92-1.29,23.38,23.38,0,0,0,4.93-3.4,39.62,39.62,0,0,0,10.89-14A9.49,9.49,0,0,0,203.07,105.24Z" style="fill:#263238"></path><path d="M204.85,155.26a3.39,3.39,0,1,1-3.62-3.15A3.39,3.39,0,0,1,204.85,155.26Z" style="fill:#455a64"></path><path d="M193.42,123.57c3.13-7.06,8-11.42,12.73-13.37" style="fill:#263238"></path><path d="M206.15,110.2a4.33,4.33,0,0,1-.66.34c-.43.21-1,.53-1.77,1a23.92,23.92,0,0,0-5.11,4.23,29.11,29.11,0,0,0-3.89,5.39c-.41.75-.74,1.36-.95,1.79a5,5,0,0,1-.35.65,3.62,3.62,0,0,1,.27-.69c.18-.45.49-1.07.89-1.83a27.25,27.25,0,0,1,3.86-5.47,22.19,22.19,0,0,1,5.2-4.21,16.85,16.85,0,0,1,1.81-.91A6.6,6.6,0,0,1,206.15,110.2Z" style="fill:#455a64"></path><path d="M189.28,129.86s0,0,.1,0l.3.06c.26.06.65.13,1.15.21a17.86,17.86,0,0,0,4.27.08,22.82,22.82,0,0,0,6.14-1.53,40.16,40.16,0,0,0,6.88-3.62c2.33-1.49,4.5-3,6.43-4.4a43.49,43.49,0,0,0,4.83-4.13,27.3,27.3,0,0,0,2.78-3.26c.3-.4.52-.74.67-1l.17-.25.06-.08s0,0,0,.1l-.16.26a9.67,9.67,0,0,1-.63,1,25.13,25.13,0,0,1-2.73,3.32,41.4,41.4,0,0,1-4.82,4.19c-1.93,1.44-4.1,2.93-6.44,4.43a40.17,40.17,0,0,1-6.93,3.62,22.53,22.53,0,0,1-6.2,1.49,17,17,0,0,1-4.3-.15c-.5-.09-.88-.18-1.14-.25l-.29-.09Z" style="fill:#455a64"></path><path d="M226.14,152.11a9.35,9.35,0,0,1-1,1.91,3.2,3.2,0,0,1-1.75,1.23,3.05,3.05,0,0,1-2.55-.68,2.5,2.5,0,0,1-.88-1.25,2.43,2.43,0,0,1,.15-1.43,7.18,7.18,0,0,1,.72-1.26,1.28,1.28,0,0,1,.58-.55,1.22,1.22,0,0,1,.85.12c1.43.56,2.55,1.27,3.93,1.91" style="fill:#ff9a6c"></path><path d="M224.74,154.67s-.11.2-.45.39a2.94,2.94,0,0,1-1.59.27,3.7,3.7,0,0,1-2.2-1,2.41,2.41,0,0,1-.77-1.28,2.48,2.48,0,0,1,.25-1.58,7.6,7.6,0,0,1,.85-1.27.9.9,0,0,1,.82-.36,2.46,2.46,0,0,1,.7.25l2.08,1a9,9,0,0,1,1.87,1,8.46,8.46,0,0,1-2-.71l-2.13-.9a1.8,1.8,0,0,0-.55-.19c-.16,0-.25,0-.39.19a8.12,8.12,0,0,0-.76,1.17,1.9,1.9,0,0,0-.22,1.25,1.94,1.94,0,0,0,.6,1,3.46,3.46,0,0,0,3.91.67Z" style="fill:#263238"></path><path d="M177.4,437.87l-5.74,23.47-9.89,17.26a2.49,2.49,0,0,0,1.06,3.46h0a2.46,2.46,0,0,0,2.27-.05c4.48-2.46,20.91-11.58,21.24-13.33.37-2,7.69-24.36,7.69-24.36Z" style="fill:#455a64"></path><path d="M162.83,482.06l23.93-14.95-.27,1a3.67,3.67,0,0,1-1.48,2.1c-1.95,1.35-7.41,4.94-19.84,11.83a2.49,2.49,0,0,1-2.34,0Z" style="fill:#263238"></path><path d="M170.91,473.3a5.32,5.32,0,0,0-4.11-3.6c0-.07.34-.17.91-.1a4,4,0,0,1,2,.93,3.89,3.89,0,0,1,1.19,1.86C171,472.94,171,473.3,170.91,473.3Z" style="fill:#fff"></path><path d="M168.41,476c-.14.07-.69-.89-1.8-1.56a20.5,20.5,0,0,0-2.2-.91,2.73,2.73,0,0,1,2.48.46C168.15,474.74,168.55,476,168.41,476Z" style="fill:#fff"></path><path d="M175.08,470.12a26.84,26.84,0,0,0-2.61-2.59,24.53,24.53,0,0,0-3.25-1.74,6.78,6.78,0,0,1,5.86,4.33Z" style="fill:#fff"></path><path d="M177.42,463.13c-.1.13-1.24-.76-2.91-1.27s-3.09-.47-3.11-.62a4.71,4.71,0,0,1,3.27.11A4.87,4.87,0,0,1,177.42,463.13Z" style="fill:#fff"></path><path d="M179.28,456.29a11.72,11.72,0,0,0-3-1.41,12.37,12.37,0,0,0-3.3-.06c0-.05.3-.28.93-.44a5.28,5.28,0,0,1,2.49,0,5.4,5.4,0,0,1,2.23,1.11C179.13,455.9,179.33,456.24,179.28,456.29Z" style="fill:#fff"></path><path d="M210.08,439.45l4,23.8,8.62,17.9a2.48,2.48,0,0,1-1.31,3.37h0a2.48,2.48,0,0,1-2.26-.21c-4.28-2.77-20-13-20.2-14.8-.23-2-5.92-24.82-5.92-24.82Z" style="fill:#455a64"></path><path d="M221.42,484.52l-22.77-16.61.2,1a3.71,3.71,0,0,0,1.32,2.21c1.85,1.47,7,5.44,18.92,13.2a2.47,2.47,0,0,0,2.33.2Z" style="fill:#263238"></path><path d="M214,475.21a7.61,7.61,0,0,1,1.72-2.24,7.46,7.46,0,0,1,2.63-1.05c0-.06-.33-.19-.9-.16a3.91,3.91,0,0,0-3.36,2.55C213.91,474.85,213.94,475.2,214,475.21Z" style="fill:#fff"></path><path d="M216.3,478.06c.13.08.74-.84,1.9-1.42a18.48,18.48,0,0,1,2.26-.75,2.74,2.74,0,0,0-2.5.28C216.64,476.84,216.16,478,216.3,478.06Z" style="fill:#fff"></path><path d="M210.07,471.75a25.31,25.31,0,0,1,2.79-2.4,23.42,23.42,0,0,1,3.36-1.49,5.38,5.38,0,0,0-3.64,1.05A5.5,5.5,0,0,0,210.07,471.75Z" style="fill:#fff"></path><path d="M208.24,464.62c.09.13,1.3-.67,3-1.06s3.12-.24,3.14-.4a4.77,4.77,0,0,0-3.27-.12A4.83,4.83,0,0,0,208.24,464.62Z" style="fill:#fff"></path><path d="M206.88,457.66a12.43,12.43,0,0,1,3.08-1.18,12.12,12.12,0,0,1,3.3.18c0-.06-.29-.31-.9-.52a5.39,5.39,0,0,0-4.79.76C207.06,457.28,206.84,457.62,206.88,457.66Z" style="fill:#fff"></path><path d="M183.57,250.5s-24.39,21-24.11,51.34,12.76,46.22,19.57,83.37,14.43,77.72,14.43,77.72l21.75-4.63s-5.55-59.19-6.12-79.61-5.1-75.5-5.1-75.5l9.36-36.52Z" style="fill:#263238"></path><path d="M236.56,268.2s6.67,36.55-4.94,68c-10.28,27.88-39.85,126.66-39.85,126.66L171,456.68,185.51,388s15.64-84.81,17.06-84.81,10.78-36.52,10.78-36.52Z" style="fill:#263238"></path><path d="M204.42,297.22a9.1,9.1,0,0,0,2.16-.44c1.31-.34,3.11-.89,5.06-1.61s3.67-1.48,4.9-2.07a8.5,8.5,0,0,0,1.92-1.08,11.9,11.9,0,0,0-2.07.75c-1.25.51-3,1.21-4.92,1.93s-3.71,1.31-5,1.74A10.05,10.05,0,0,0,204.42,297.22Z" style="fill:#455a64"></path><path d="M192.48,286.76s.17.24.53.7l1.61,2.05,6.29,7.88,0-.05c2.11,24.22,6.92,79.34,12.52,143.44q.79,8.89,1.55,17.54l.2-.27-21.76,4.64.3.19c-7.22-37.8-13.35-69.93-17.28-90.53h0L171,354.26l-1.44-4.76c-.17-.53-.29-.94-.38-1.22l-.14-.41s0,.14.1.42l.35,1.23c.31,1.1.77,2.7,1.37,4.78,1.22,4.2,3,10.33,5.27,18.11h0C180,393,186.09,425.16,193.22,463l0,.24.25-.05,21.75-4.63.22,0,0-.23q-.77-8.62-1.55-17.54c-5.73-64.08-10.66-119.19-12.82-143.41v0l0,0-6.36-7.82-1.66-2C192.68,287,192.48,286.76,192.48,286.76Z" style="fill:#455a64"></path><polygon points="238.04 172.93 226.72 171.63 203.19 174.67 192.38 179.62 207.04 192.05 226.26 188.79 234.7 183.49 238.04 172.93" style="fill:#ffbf9d"></polygon><path d="M197.54,176.6c-.8.2-15.77,3.2-19.37,6.19s-11,23.1-11,23.1l17.34,10.63,2.42-5.39,1.39,28.55s-10.43,13.32-9.84,14.63a23.34,23.34,0,0,0,2.6,4.33,31.54,31.54,0,0,0,11.78,9.54c9.15,4.36,28.64,11.3,44.45,1l3.81-25.91s9.28-17.57,9.28-27.56c0-2.26.08-5.79-.16-9.82-.81-13.71-2.83-33.69-2.83-33.69H234.06s-9.16,15.57-21,12.58S197.54,176.6,197.54,176.6Z" style="fill:#C53F3F"></path><path d="M247.44,172.21c7,1.16,11.89,7,20.62,20.67l-20.62,12.48Z" style="fill:#C53F3F"></path><path d="M193.63,244.27a4.09,4.09,0,0,0,.8.67c.54.42,1.33,1,2.33,1.66a83.66,83.66,0,0,0,16.74,8.65c1.14.42,2.06.74,2.7.94a3.82,3.82,0,0,0,1,.26,4.36,4.36,0,0,0-.95-.44l-2.63-1.09c-2.22-.93-5.26-2.28-8.52-4S199,247.58,197,246.3l-2.42-1.52A3.93,3.93,0,0,0,193.63,244.27Z" style="fill:#263238"></path><path d="M185.31,193.69a2.84,2.84,0,0,0-.09.91c0,.58,0,1.42,0,2.46,0,2.08.16,5,.49,8.11s.8,6,1.21,8c.2,1,.38,1.85.53,2.41a3.57,3.57,0,0,0,.27.87,25.91,25.91,0,0,0-.45-3.34c-.32-2.05-.72-4.88-1.06-8s-.52-6-.63-8.07A28.78,28.78,0,0,0,185.31,193.69Z" style="fill:#263238"></path><path d="M247.44,186.46a4.33,4.33,0,0,0,.15,1.11c.15.82.34,1.82.57,3,.48,2.53,1.14,6,1.61,9.93a90.83,90.83,0,0,1,.62,10v3.05a5,5,0,0,0,0,1.13,4.37,4.37,0,0,0,.15-1.12c.07-.72.13-1.76.17-3a70.93,70.93,0,0,0-.48-10.1,98.47,98.47,0,0,0-1.76-9.95c-.29-1.26-.54-2.27-.73-3A5.16,5.16,0,0,0,247.44,186.46Z" style="fill:#263238"></path><rect x="211.78" y="201.3" width="15.17" height="26.28" style="fill:#fff"></rect><path d="M227,227.61H211.76V201.28H227Z" style="fill:#fff"></path><path d="M221.54,218.57a26.11,26.11,0,0,1-1.69-2.48,53.34,53.34,0,0,0-4.42-5.68,52.54,52.54,0,0,0-5.16-5,23.91,23.91,0,0,1-2.27-2,13.5,13.5,0,0,1,2.5,1.67,40.1,40.1,0,0,1,9.66,10.78A13.34,13.34,0,0,1,221.54,218.57Z" style="fill:#263238"></path><path d="M260.33,219.63l-9.2-16.5,14.81-9c.85.85,8.14,17.09,10,20.56,4.22,7.9,3.17,13.05-.19,15.3-4.68,3.14-39.31,23.12-39.31,23.12l-5.17-7.91S258.67,221.3,260.33,219.63Z" style="fill:#ffbf9d"></path><path d="M232.47,244.34s-4.62,3.1-6.57,6.76a126.72,126.72,0,0,0-5.48,13.15c-.13.61.6,9.87.6,9.87l3.17,7.55s2.19.25,1.1-2.8a46.6,46.6,0,0,1-1.59-5.27l.37-6.18,1.22,6.18,5.6,8.08a2.22,2.22,0,0,0,1.22-3.05c-.85-2.32-2.44-6.46-2.44-6.46l4.14,5.12a1.52,1.52,0,0,0,1.22-2.07,28.27,28.27,0,0,0-1-3.05s1.88.25,1.06-1.7a21.42,21.42,0,0,1-1.18-3.9l.48-5.85s2.68-5,2.93-7.79S232.47,244.34,232.47,244.34Z" style="fill:#ffbf9d"></path><path d="M269,217.52a32.23,32.23,0,0,0-4.77.63,31.32,31.32,0,0,0-4.44,1.83,10.46,10.46,0,0,1,9.21-2.46Z" style="fill:#ff9a6c"></path></g></svg>
